<svg width="24" height="25" viewBox="0 0 24 25" fill="white" xmlns="http://www.w3.org/2000/svg">
  <path
    d="M12.0002 5.4198L11.5602 5.3598L6.0002 14.9498C6.2402 15.1598 6.4002 15.4298 6.4702 15.7298H17.5302C17.6002 15.4298 17.7602 15.1598 18.0002 14.9498L12.4402 5.3598L12.0002 5.4198ZM6.6002 16.5798L10.8802 19.1098C11.1702 18.8398 11.5702 18.6798 12.0002 18.6798C12.4302 18.6798 12.8302 18.8398 13.1202 19.1098L17.4002 16.5798H6.6002ZM12.0002 22.0498C11.5546 22.0498 11.1273 21.8728 10.8123 21.5577C10.4972 21.2427 10.3202 20.8154 10.3202 20.3698L10.4102 19.8098L6.1102 17.2598C5.8002 17.6198 5.3502 17.8398 4.8402 17.8398C4.39463 17.8398 3.96732 17.6628 3.65226 17.3477C3.33719 17.0327 3.1602 16.6054 3.1602 16.1598C3.1602 15.3698 3.6902 14.7098 4.4202 14.5198V9.4098C3.5902 9.2998 2.9502 8.5898 2.9502 7.7298C2.9502 7.28424 3.12719 6.85693 3.44226 6.54187C3.75732 6.2268 4.18463 6.0498 4.6302 6.0498C5.1802 6.0498 5.6602 6.3098 5.9702 6.7098L10.3802 4.1798L10.3202 3.7298C10.3202 2.7998 11.0702 2.0498 12.0002 2.0498C12.9302 2.0498 13.6802 2.7998 13.6802 3.7298L13.6202 4.1798L18.0302 6.7098C18.3402 6.3098 18.8202 6.0498 19.3702 6.0498C19.8158 6.0498 20.2431 6.2268 20.5581 6.54187C20.8732 6.85693 21.0502 7.28424 21.0502 7.7298C21.0502 8.5898 20.4102 9.2998 19.5802 9.4098V14.5198C20.3102 14.7098 20.8402 15.3698 20.8402 16.1598C20.8402 16.6054 20.6632 17.0327 20.3481 17.3477C20.0331 17.6628 19.6058 17.8398 19.1602 17.8398C18.6502 17.8398 18.2002 17.6198 17.8902 17.2598L13.5902 19.8098L13.6802 20.3698C13.6802 20.8154 13.5032 21.2427 13.1881 21.5577C12.8731 21.8728 12.4458 22.0498 12.0002 22.0498ZM10.8002 4.9098L6.3002 7.4898L6.3202 7.7298C6.3202 8.4398 5.8802 9.0498 5.2602 9.2998L5.2902 14.5498L10.8002 4.9098ZM13.2002 4.9098L18.7102 14.5498L18.7402 9.2998C18.1202 9.0498 17.6802 8.4398 17.6802 7.7298L17.7002 7.4898L13.2002 4.9098Z"
  />
</svg>
