<svg width="24" height="25" viewBox="0 0 24 25" fill="white" xmlns="http://www.w3.org/2000/svg">
  <path
    d="M5.6999 11.1498H18.2999V5.74983H5.6999V11.1498ZM20.0999 4.84983V19.2498C20.0999 19.4885 20.0051 19.7174 19.8363 19.8862C19.6675 20.055 19.4386 20.1498 19.1999 20.1498H4.7999C4.56121 20.1498 4.33229 20.055 4.16351 19.8862C3.99472 19.7174 3.8999 19.4885 3.8999 19.2498V4.84983C3.8999 4.61113 3.99472 4.38222 4.16351 4.21343C4.33229 4.04465 4.56121 3.94983 4.7999 3.94983H19.1999C19.4386 3.94983 19.6675 4.04465 19.8363 4.21343C20.0051 4.38222 20.0999 4.61113 20.0999 4.84983ZM18.2999 12.9498H5.6999V18.3498H18.2999V12.9498ZM7.4999 14.7498H10.1999V16.5498H7.4999V14.7498ZM7.4999 7.54983H10.1999V9.34983H7.4999V7.54983Z"
  />
</svg>
