<svg viewBox="0 0 53 54" xmlns="http://www.w3.org/2000/svg">
  <style>
    @media (prefers-color-scheme: dark) {
      svg {
        fill: #fff;
      }
    }
  </style>
  <path
    d="M35.213 10.37h-8.231l4.943-4.943L26.5 0l-5.427 5.427 4.943 4.943h-8.231a4 4 0 0 0-2.827 1.172L.5 26l5.427 5.427 17.747-17.746a3.997 3.997 0 0 1 5.652 0l17.747 17.746L52.5 26 38.04 11.54a4 4 0 0 0-2.827-1.172v.002ZM26.5 42.197l-5.426 5.426L26.5 53.05l5.426-5.426-5.426-5.427Z"
  />
  <path
    d="M26.5 31.427h-8.713A4 4 0 0 0 14.96 32.6L10.79 36.77l5.427 5.427 7.46-7.46a3.997 3.997 0 0 1 5.653 0l7.46 7.46 5.427-5.427-4.172-4.171a4 4 0 0 0-2.827-1.172H26.5Z"
  />
</svg>
