<svg width="90" height="90" viewBox="0 0 90 90" fill="none" xmlns="http://www.w3.org/2000/svg">
  <path
    d="M21 25.3501C21.7279 25.3501 22.4195 25.5056 23.0433 25.7853L42.1439 14.8C43.0439 14.3 44.1439 14 45.1439 14C46.2439 14 47.2439 14.3 48.1439 14.8L64.5439 24.3C63.3439 25.1 62.4439 26.3 61.8439 27.7L45.9438 18.5C45.6439 18.3 45.344 18.3 45.0441 18.3C44.7441 18.3 44.4439 18.4 44.1439 18.5L25.8225 29.0251C25.9382 29.4471 26 29.8914 26 30.3501C26 33.1115 23.7614 35.3501 21 35.3501C18.2386 35.3501 16 33.1115 16 30.3501C16 27.5887 18.2386 25.3501 21 25.3501Z"
    fill="url(#paint0_linear_1677_11483)"
  />
  <path
    d="M67.2438 35.0329C65.3487 34.3219 64 32.4934 64 30.35C64 27.5886 66.2386 25.35 69 25.35C71.7614 25.35 74 27.5886 74 30.35C74 32.1825 73.0142 33.7848 71.5439 34.6554V55.2C71.5439 57.4 70.3439 59.4 68.5439 60.5L52.1439 69.9C52.1439 68.4 51.6438 66.9 50.7438 65.8L66.3439 56.8C66.9439 56.5 67.2438 55.9 67.2438 55.2V35.0329Z"
    fill="url(#paint1_linear_1677_11483)"
  />
  <path
    d="M49.8439 69.1055C49.9458 69.5034 50 69.9204 50 70.3501C50 73.1115 47.7614 75.3501 45 75.3501C42.5102 75.3501 40.4454 73.5302 40.0633 71.1481L21.8439 60.6C19.9439 59.5 18.8439 57.5 18.8439 55.3V36.8C19.5439 37 20.3439 37.2 21.0439 37.2C21.7439 37.2 22.4439 37.1 23.0439 36.9V55.3C23.0439 56 23.4438 56.6 23.9438 56.9L41.3263 66.9583C42.2398 65.9694 43.5476 65.3501 45 65.3501C47.3291 65.3501 49.2862 66.9426 49.8419 69.0981L49.8436 69.0997L49.8439 69.1055Z"
    fill="url(#paint2_linear_1677_11483)"
  />
  <mask
    id="mask0_1677_11483"
    style="mask-type: alpha"
    maskUnits="userSpaceOnUse"
    x="16"
    y="14"
    width="58"
    height="62"
  >
    <path
      d="M21 25.3501C21.7279 25.3501 22.4195 25.5056 23.0433 25.7853L42.1439 14.8C43.0439 14.3 44.1439 14 45.1439 14C46.2439 14 47.2439 14.3 48.1439 14.8L64.5439 24.3C63.3439 25.1 62.4439 26.3 61.8439 27.7L45.9438 18.5C45.6439 18.3 45.344 18.3 45.0441 18.3C44.7441 18.3 44.4439 18.4 44.1439 18.5L25.8225 29.0251C25.9382 29.4471 26 29.8914 26 30.3501C26 33.1115 23.7614 35.3501 21 35.3501C18.2386 35.3501 16 33.1115 16 30.3501C16 27.5887 18.2386 25.3501 21 25.3501Z"
      fill="url(#paint3_linear_1677_11483)"
    />
    <path
      d="M67.2438 35.0329C65.3487 34.3219 64 32.4934 64 30.35C64 27.5886 66.2386 25.35 69 25.35C71.7614 25.35 74 27.5886 74 30.35C74 32.1825 73.0142 33.7848 71.5439 34.6554V55.2C71.5439 57.4 70.3439 59.4 68.5439 60.5L52.1439 69.9C52.1439 68.4 51.6438 66.9 50.7438 65.8L66.3439 56.8C66.9439 56.5 67.2438 55.9 67.2438 55.2V35.0329Z"
      fill="url(#paint4_linear_1677_11483)"
    />
    <path
      d="M49.8439 69.1055C49.9458 69.5034 50 69.9204 50 70.3501C50 73.1115 47.7614 75.3501 45 75.3501C42.5102 75.3501 40.4454 73.5302 40.0633 71.1481L21.8439 60.6C19.9439 59.5 18.8439 57.5 18.8439 55.3V36.8C19.5439 37 20.3439 37.2 21.0439 37.2C21.7439 37.2 22.4439 37.1 23.0439 36.9V55.3C23.0439 56 23.4438 56.6 23.9438 56.9L41.3263 66.9583C42.2398 65.9694 43.5476 65.3501 45 65.3501C47.3291 65.3501 49.2862 66.9426 49.8419 69.0981L49.8436 69.0997L49.8439 69.1055Z"
      fill="url(#paint5_linear_1677_11483)"
    />
  </mask>
  <g mask="url(#mask0_1677_11483)">
    <g filter="url(#filter0_f_1677_11483)">
      <circle cx="73" cy="25" r="26" fill="#ED2E7E" />
    </g>
    <g filter="url(#filter1_f_1677_11483)">
      <circle cx="26" cy="69" r="26" fill="#1CC8EE" />
    </g>
  </g>
  <path
    fill-rule="evenodd"
    clip-rule="evenodd"
    d="M49.3945 32.3945C49.3945 34.7088 47.5796 38.5469 45 38.5469C42.4271 38.5469 40.6055 34.7112 40.6055 32.3945C40.6055 29.9714 42.5769 28 45 28C47.4231 28 49.3945 29.9714 49.3945 32.3945ZM35.332 49.0433V48.2148C35.332 42.8117 37.8535 41.0004 39.8796 39.545L39.8801 39.5447C40.3928 39.1767 40.8604 38.8404 41.2488 38.4742C42.3293 39.6642 43.626 40.3047 45 40.3047C46.3752 40.3047 47.6725 39.6642 48.7529 38.4754C49.1408 38.841 49.6078 39.1773 50.1199 39.5447L50.1204 39.545C52.1465 41.0004 54.668 42.8117 54.668 48.2148V49.0433L53.8406 49.092C49.9848 49.3185 46.8646 46.9002 45 43.5777C43.1159 46.935 39.9847 49.318 36.1594 49.092L35.332 49.0433ZM58.1463 51.0747L58.1463 51.0746C57.0179 50.891 50.0128 49.7507 45.0007 55.693C40.0116 49.7553 33.1965 50.8592 31.9095 51.0677L31.9095 51.0677C31.7906 51.087 31.7189 51.0986 31.7002 51.0963C31.7005 51.0969 31.7011 51.1045 31.7023 51.1187C31.726 51.4003 31.9682 54.2745 34.0566 56.2422L30 58H60L55.8956 56.2422C57.8537 54.4764 58.1396 52.2685 58.2508 51.4092V51.4091C58.2697 51.2628 58.2836 51.1556 58.2998 51.0963C58.2881 51.0977 58.2356 51.0892 58.1463 51.0747ZM40.4836 50.104C42.3956 49.3212 43.6746 48.1737 45 46.61C46.332 48.1841 47.6159 49.3259 49.5164 50.104C49.5356 50.1425 49.5557 50.1805 49.5756 50.2182C49.5793 50.2253 49.583 50.2323 49.5867 50.2393C48.0911 50.8127 46.4264 51.825 45.0047 53.1444C43.5906 51.8221 41.9673 50.8196 40.4256 50.2153C40.4455 50.1784 40.4648 50.1415 40.4836 50.104Z"
    fill="url(#paint6_linear_1677_11483)"
  />
  <mask
    id="mask1_1677_11483"
    style="mask-type: alpha"
    maskUnits="userSpaceOnUse"
    x="30"
    y="28"
    width="30"
    height="30"
  >
    <path
      fill-rule="evenodd"
      clip-rule="evenodd"
      d="M49.3945 32.3945C49.3945 34.7088 47.5796 38.5469 45 38.5469C42.4271 38.5469 40.6055 34.7112 40.6055 32.3945C40.6055 29.9714 42.5769 28 45 28C47.4231 28 49.3945 29.9714 49.3945 32.3945ZM35.332 49.0433V48.2148C35.332 42.8117 37.8535 41.0004 39.8796 39.545L39.8801 39.5447C40.3928 39.1767 40.8604 38.8404 41.2488 38.4742C42.3293 39.6642 43.626 40.3047 45 40.3047C46.3752 40.3047 47.6725 39.6642 48.7529 38.4754C49.1408 38.841 49.6078 39.1773 50.1199 39.5447L50.1204 39.545C52.1465 41.0004 54.668 42.8117 54.668 48.2148V49.0433L53.8406 49.092C49.9848 49.3185 46.8646 46.9002 45 43.5777C43.1159 46.935 39.9847 49.318 36.1594 49.092L35.332 49.0433ZM58.1463 51.0747L58.1463 51.0746C57.0179 50.891 50.0128 49.7507 45.0007 55.693C40.0116 49.7553 33.1965 50.8592 31.9095 51.0677L31.9095 51.0677C31.7906 51.087 31.7189 51.0986 31.7002 51.0963C31.7005 51.0969 31.7011 51.1045 31.7023 51.1187C31.726 51.4003 31.9682 54.2745 34.0566 56.2422L30 58H60L55.8956 56.2422C57.8537 54.4764 58.1396 52.2685 58.2508 51.4092V51.4091C58.2697 51.2628 58.2836 51.1556 58.2998 51.0963C58.2881 51.0977 58.2356 51.0892 58.1463 51.0747ZM40.4836 50.104C42.3956 49.3212 43.6746 48.1737 45 46.61C46.332 48.1841 47.6159 49.3259 49.5164 50.104C49.5356 50.1425 49.5557 50.1805 49.5756 50.2182C49.5793 50.2253 49.583 50.2323 49.5867 50.2393C48.0911 50.8127 46.4264 51.825 45.0047 53.1444C43.5906 51.8221 41.9673 50.8196 40.4256 50.2153C40.4455 50.1784 40.4648 50.1415 40.4836 50.104Z"
      fill="black"
    />
  </mask>
  <g mask="url(#mask1_1677_11483)">
    <g filter="url(#filter2_f_1677_11483)">
      <circle cx="38" cy="6" r="26" fill="#ED2E7E" />
    </g>
    <g filter="url(#filter3_f_1677_11483)">
      <circle cx="63" cy="69" r="26" fill="#1CC8EE" />
    </g>
  </g>
  <defs>
    <filter
      id="filter0_f_1677_11483"
      x="23"
      y="-25"
      width="100"
      height="100"
      filterUnits="userSpaceOnUse"
      color-interpolation-filters="sRGB"
    >
      <feFlood flood-opacity="0" result="BackgroundImageFix" />
      <feBlend mode="normal" in="SourceGraphic" in2="BackgroundImageFix" result="shape" />
      <feGaussianBlur stdDeviation="12" result="effect1_foregroundBlur_1677_11483" />
    </filter>
    <filter
      id="filter1_f_1677_11483"
      x="-24"
      y="19"
      width="100"
      height="100"
      filterUnits="userSpaceOnUse"
      color-interpolation-filters="sRGB"
    >
      <feFlood flood-opacity="0" result="BackgroundImageFix" />
      <feBlend mode="normal" in="SourceGraphic" in2="BackgroundImageFix" result="shape" />
      <feGaussianBlur stdDeviation="12" result="effect1_foregroundBlur_1677_11483" />
    </filter>
    <filter
      id="filter2_f_1677_11483"
      x="-12"
      y="-44"
      width="100"
      height="100"
      filterUnits="userSpaceOnUse"
      color-interpolation-filters="sRGB"
    >
      <feFlood flood-opacity="0" result="BackgroundImageFix" />
      <feBlend mode="normal" in="SourceGraphic" in2="BackgroundImageFix" result="shape" />
      <feGaussianBlur stdDeviation="12" result="effect1_foregroundBlur_1677_11483" />
    </filter>
    <filter
      id="filter3_f_1677_11483"
      x="13"
      y="19"
      width="100"
      height="100"
      filterUnits="userSpaceOnUse"
      color-interpolation-filters="sRGB"
    >
      <feFlood flood-opacity="0" result="BackgroundImageFix" />
      <feBlend mode="normal" in="SourceGraphic" in2="BackgroundImageFix" result="shape" />
      <feGaussianBlur stdDeviation="12" result="effect1_foregroundBlur_1677_11483" />
    </filter>
    <linearGradient
      id="paint0_linear_1677_11483"
      x1="16"
      y1="14"
      x2="87.2132"
      y2="44.5982"
      gradientUnits="userSpaceOnUse"
    >
      <stop stop-color="#7433FF" />
      <stop offset="1" stop-color="#FFA3FD" />
    </linearGradient>
    <linearGradient
      id="paint1_linear_1677_11483"
      x1="16"
      y1="14"
      x2="87.2132"
      y2="44.5982"
      gradientUnits="userSpaceOnUse"
    >
      <stop stop-color="#7433FF" />
      <stop offset="1" stop-color="#FFA3FD" />
    </linearGradient>
    <linearGradient
      id="paint2_linear_1677_11483"
      x1="16"
      y1="14"
      x2="87.2132"
      y2="44.5982"
      gradientUnits="userSpaceOnUse"
    >
      <stop stop-color="#7433FF" />
      <stop offset="1" stop-color="#FFA3FD" />
    </linearGradient>
    <linearGradient
      id="paint3_linear_1677_11483"
      x1="16"
      y1="14"
      x2="87.2132"
      y2="44.5982"
      gradientUnits="userSpaceOnUse"
    >
      <stop stop-color="#7433FF" />
      <stop offset="1" stop-color="#FFA3FD" />
    </linearGradient>
    <linearGradient
      id="paint4_linear_1677_11483"
      x1="16"
      y1="14"
      x2="87.2132"
      y2="44.5982"
      gradientUnits="userSpaceOnUse"
    >
      <stop stop-color="#7433FF" />
      <stop offset="1" stop-color="#FFA3FD" />
    </linearGradient>
    <linearGradient
      id="paint5_linear_1677_11483"
      x1="16"
      y1="14"
      x2="87.2132"
      y2="44.5982"
      gradientUnits="userSpaceOnUse"
    >
      <stop stop-color="#7433FF" />
      <stop offset="1" stop-color="#FFA3FD" />
    </linearGradient>
    <linearGradient
      id="paint6_linear_1677_11483"
      x1="30"
      y1="28"
      x2="66.1645"
      y2="44.4363"
      gradientUnits="userSpaceOnUse"
    >
      <stop stop-color="#7433FF" />
      <stop offset="1" stop-color="#FFA3FD" />
    </linearGradient>
  </defs>
</svg>
