<svg width="172" height="90" viewBox="0 0 172 90" fill="none" xmlns="http://www.w3.org/2000/svg">
  <rect width="171.66" height="90" fill="#0B0D11" />
  <path
    d="M15 25.3501C15.7279 25.3501 16.4195 25.5056 17.0433 25.7853L36.1439 14.8C37.0439 14.3 38.1439 14 39.1439 14C40.2439 14 41.2439 14.3 42.1439 14.8L58.5439 24.3C57.3439 25.1 56.4439 26.3 55.8439 27.7L39.9438 18.5C39.6439 18.3 39.344 18.3 39.0441 18.3C38.7441 18.3 38.4439 18.4 38.1439 18.5L19.8225 29.0251C19.9382 29.4471 20 29.8914 20 30.3501C20 33.1115 17.7614 35.3501 15 35.3501C12.2386 35.3501 10 33.1115 10 30.3501C10 27.5887 12.2386 25.3501 15 25.3501Z"
    fill="url(#paint0_linear_1677_11638)"
  />
  <path
    d="M61.2438 35.0329C59.3487 34.3219 58 32.4934 58 30.35C58 27.5886 60.2386 25.35 63 25.35C65.7614 25.35 68 27.5886 68 30.35C68 32.1825 67.0142 33.7848 65.5439 34.6554V55.2C65.5439 57.4 64.3439 59.4 62.5439 60.5L46.1439 69.9C46.1439 68.4 45.6438 66.9 44.7438 65.8L60.3439 56.8C60.9439 56.5 61.2438 55.9 61.2438 55.2V35.0329Z"
    fill="url(#paint1_linear_1677_11638)"
  />
  <path
    d="M43.8439 69.1055C43.9458 69.5034 44 69.9204 44 70.3501C44 73.1115 41.7614 75.3501 39 75.3501C36.5102 75.3501 34.4454 73.5302 34.0633 71.1481L15.8439 60.6C13.9439 59.5 12.8439 57.5 12.8439 55.3V36.8C13.5439 37 14.3439 37.2 15.0439 37.2C15.7439 37.2 16.4439 37.1 17.0439 36.9V55.3C17.0439 56 17.4438 56.6 17.9438 56.9L35.3263 66.9583C36.2398 65.9694 37.5476 65.3501 39 65.3501C41.3291 65.3501 43.2862 66.9426 43.8419 69.0981L43.8436 69.0997L43.8439 69.1055Z"
    fill="url(#paint2_linear_1677_11638)"
  />
  <mask
    id="mask0_1677_11638"
    style="mask-type: alpha"
    maskUnits="userSpaceOnUse"
    x="10"
    y="14"
    width="58"
    height="62"
  >
    <path
      d="M15 25.3501C15.7279 25.3501 16.4195 25.5056 17.0433 25.7853L36.1439 14.8C37.0439 14.3 38.1439 14 39.1439 14C40.2439 14 41.2439 14.3 42.1439 14.8L58.5439 24.3C57.3439 25.1 56.4439 26.3 55.8439 27.7L39.9438 18.5C39.6439 18.3 39.344 18.3 39.0441 18.3C38.7441 18.3 38.4439 18.4 38.1439 18.5L19.8225 29.0251C19.9382 29.4471 20 29.8914 20 30.3501C20 33.1115 17.7614 35.3501 15 35.3501C12.2386 35.3501 10 33.1115 10 30.3501C10 27.5887 12.2386 25.3501 15 25.3501Z"
      fill="url(#paint3_linear_1677_11638)"
    />
    <path
      d="M61.2438 35.0329C59.3487 34.3219 58 32.4934 58 30.35C58 27.5886 60.2386 25.35 63 25.35C65.7614 25.35 68 27.5886 68 30.35C68 32.1825 67.0142 33.7848 65.5439 34.6554V55.2C65.5439 57.4 64.3439 59.4 62.5439 60.5L46.1439 69.9C46.1439 68.4 45.6438 66.9 44.7438 65.8L60.3439 56.8C60.9439 56.5 61.2438 55.9 61.2438 55.2V35.0329Z"
      fill="url(#paint4_linear_1677_11638)"
    />
    <path
      d="M43.8439 69.1055C43.9458 69.5034 44 69.9204 44 70.3501C44 73.1115 41.7614 75.3501 39 75.3501C36.5102 75.3501 34.4454 73.5302 34.0633 71.1481L15.8439 60.6C13.9439 59.5 12.8439 57.5 12.8439 55.3V36.8C13.5439 37 14.3439 37.2 15.0439 37.2C15.7439 37.2 16.4439 37.1 17.0439 36.9V55.3C17.0439 56 17.4438 56.6 17.9438 56.9L35.3263 66.9583C36.2398 65.9694 37.5476 65.3501 39 65.3501C41.3291 65.3501 43.2862 66.9426 43.8419 69.0981L43.8436 69.0997L43.8439 69.1055Z"
      fill="url(#paint5_linear_1677_11638)"
    />
  </mask>
  <g mask="url(#mask0_1677_11638)">
    <g filter="url(#filter0_f_1677_11638)">
      <circle cx="67" cy="25" r="26" fill="#ED2E7E" />
    </g>
    <g filter="url(#filter1_f_1677_11638)">
      <circle cx="20" cy="69" r="26" fill="#1CC8EE" />
    </g>
  </g>
  <path
    fill-rule="evenodd"
    clip-rule="evenodd"
    d="M43.3945 32.3945C43.3945 34.7088 41.5796 38.5469 39 38.5469C36.4271 38.5469 34.6055 34.7112 34.6055 32.3945C34.6055 29.9714 36.5769 28 39 28C41.4231 28 43.3945 29.9714 43.3945 32.3945ZM29.332 49.0433V48.2148C29.332 42.8117 31.8535 41.0004 33.8796 39.545L33.8801 39.5447C34.3928 39.1767 34.8604 38.8404 35.2488 38.4742C36.3293 39.6642 37.626 40.3047 39 40.3047C40.3752 40.3047 41.6725 39.6642 42.7529 38.4754C43.1408 38.841 43.6078 39.1773 44.1199 39.5447L44.1204 39.545C46.1465 41.0004 48.668 42.8117 48.668 48.2148V49.0433L47.8406 49.092C43.9848 49.3185 40.8646 46.9002 39 43.5777C37.1159 46.935 33.9847 49.318 30.1594 49.092L29.332 49.0433ZM52.1463 51.0747L52.1463 51.0746C51.0179 50.891 44.0128 49.7507 39.0007 55.693C34.0116 49.7553 27.1965 50.8592 25.9095 51.0677L25.9095 51.0677C25.7906 51.087 25.7189 51.0986 25.7002 51.0963C25.7005 51.0969 25.7011 51.1045 25.7023 51.1187C25.726 51.4003 25.9682 54.2745 28.0566 56.2422L24 58H54L49.8956 56.2422C51.8537 54.4764 52.1396 52.2685 52.2508 51.4092V51.4091C52.2697 51.2628 52.2836 51.1556 52.2998 51.0963C52.2881 51.0977 52.2356 51.0892 52.1463 51.0747ZM34.4836 50.104C36.3956 49.3212 37.6746 48.1737 39 46.61C40.332 48.1841 41.6159 49.3259 43.5164 50.104C43.5356 50.1425 43.5557 50.1805 43.5756 50.2182C43.5793 50.2253 43.583 50.2323 43.5867 50.2393C42.0911 50.8127 40.4264 51.825 39.0047 53.1444C37.5906 51.8221 35.9673 50.8196 34.4256 50.2153C34.4455 50.1784 34.4648 50.1415 34.4836 50.104Z"
    fill="url(#paint6_linear_1677_11638)"
  />
  <mask
    id="mask1_1677_11638"
    style="mask-type: alpha"
    maskUnits="userSpaceOnUse"
    x="24"
    y="28"
    width="30"
    height="30"
  >
    <path
      fill-rule="evenodd"
      clip-rule="evenodd"
      d="M43.3945 32.3945C43.3945 34.7088 41.5796 38.5469 39 38.5469C36.4271 38.5469 34.6055 34.7112 34.6055 32.3945C34.6055 29.9714 36.5769 28 39 28C41.4231 28 43.3945 29.9714 43.3945 32.3945ZM29.332 49.0433V48.2148C29.332 42.8117 31.8535 41.0004 33.8796 39.545L33.8801 39.5447C34.3928 39.1767 34.8604 38.8404 35.2488 38.4742C36.3293 39.6642 37.626 40.3047 39 40.3047C40.3752 40.3047 41.6725 39.6642 42.7529 38.4754C43.1408 38.841 43.6078 39.1773 44.1199 39.5447L44.1204 39.545C46.1465 41.0004 48.668 42.8117 48.668 48.2148V49.0433L47.8406 49.092C43.9848 49.3185 40.8646 46.9002 39 43.5777C37.1159 46.935 33.9847 49.318 30.1594 49.092L29.332 49.0433ZM52.1463 51.0747L52.1463 51.0746C51.0179 50.891 44.0128 49.7507 39.0007 55.693C34.0116 49.7553 27.1965 50.8592 25.9095 51.0677L25.9095 51.0677C25.7906 51.087 25.7189 51.0986 25.7002 51.0963C25.7005 51.0969 25.7011 51.1045 25.7023 51.1187C25.726 51.4003 25.9682 54.2745 28.0566 56.2422L24 58H54L49.8956 56.2422C51.8537 54.4764 52.1396 52.2685 52.2508 51.4092V51.4091C52.2697 51.2628 52.2836 51.1556 52.2998 51.0963C52.2881 51.0977 52.2356 51.0892 52.1463 51.0747ZM34.4836 50.104C36.3956 49.3212 37.6746 48.1737 39 46.61C40.332 48.1841 41.6159 49.3259 43.5164 50.104C43.5356 50.1425 43.5557 50.1805 43.5756 50.2182C43.5793 50.2253 43.583 50.2323 43.5867 50.2393C42.0911 50.8127 40.4264 51.825 39.0047 53.1444C37.5906 51.8221 35.9673 50.8196 34.4256 50.2153C34.4455 50.1784 34.4648 50.1415 34.4836 50.104Z"
      fill="black"
    />
  </mask>
  <g mask="url(#mask1_1677_11638)">
    <g filter="url(#filter2_f_1677_11638)">
      <circle cx="32" cy="6" r="26" fill="#ED2E7E" />
    </g>
    <g filter="url(#filter3_f_1677_11638)">
      <circle cx="57" cy="69" r="26" fill="#1CC8EE" />
    </g>
  </g>
  <path
    d="M86.64 27.37H81L88.392 39.226V46.09H93.168V39.226L100.584 27.37H94.92L90.768 34.162L86.64 27.37Z"
    fill="#FCFCFC"
  />
  <path
    d="M99.9551 36.73C99.9551 42.082 104.491 46.45 109.891 46.45C115.363 46.45 119.827 42.082 119.827 36.73C119.827 31.378 115.363 27.01 109.891 27.01C104.491 27.01 99.9551 31.378 99.9551 36.73ZM104.803 36.73C104.803 33.898 107.083 31.642 109.891 31.642C112.771 31.642 114.979 33.898 114.979 36.73C114.979 39.562 112.771 41.818 109.891 41.818C107.083 41.818 104.803 39.562 104.803 36.73Z"
    fill="#FCFCFC"
  />
  <path
    d="M131.048 39.154H135.584V39.682C134.696 40.978 133.256 41.818 131.576 41.818C128.743 41.818 126.488 39.562 126.488 36.73C126.488 33.898 128.743 31.642 131.576 31.642C133.208 31.642 134.648 32.386 135.584 33.562L139.496 30.922C137.696 28.57 134.792 27.01 131.576 27.01C126.152 27.01 121.64 31.378 121.64 36.73C121.64 42.082 126.152 46.45 131.576 46.45C133.496 46.45 135.392 45.73 136.304 44.338V46.09H140.072V35.17H131.048V39.154Z"
    fill="#FCFCFC"
  />
  <path
    d="M149.348 27.37L141.764 46.09H146.996L148.028 43.354H155.396L156.428 46.09H161.66L154.1 27.37H149.348ZM153.764 39.01H149.66L151.724 33.514L153.764 39.01Z"
    fill="#FCFCFC"
  />
  <path
    fill-rule="evenodd"
    clip-rule="evenodd"
    d="M129.3 53.0901C131.6 53.0901 133.4 54.8901 133.4 57.0901C133.4 58.5901 132.6 59.7901 131.4 60.5901C131.483 60.6318 131.563 60.6736 131.638 60.7135C131.925 60.8649 132.163 60.9901 132.4 60.9901H132.4C132.5 60.9901 132.9 60.9901 133.1 60.6902L134.6 61.8901C134 62.6901 133.1 62.9901 132.4 62.9901C131.446 62.9901 130.741 62.4923 130.051 62.0056C129.584 61.6761 129.125 61.3517 128.6 61.1902C126.7 60.8902 125.2 59.1902 125.2 57.1902C125.2 54.8902 127 53.0901 129.3 53.0901ZM129.3 59.1902C130.5 59.1902 131.4 58.2901 131.4 57.0901C131.4 55.8901 130.5 54.9901 129.3 54.9901C128.1 54.9901 127.2 55.8901 127.2 57.0901C127.2 58.2901 128.1 59.1902 129.3 59.1902ZM85 56.4901H88.7V60.9901H87.1V60.2902C86.7 60.8902 85.9 61.1902 85.1 61.1902C82.9 61.1902 81 59.3902 81 57.1902C81 54.9902 82.9 53.1902 85.1 53.1902C86.4 53.1902 87.6 53.7902 88.4 54.7902L86.8 55.8901C86.4 55.3901 85.8 55.0901 85.1 55.0901C83.9 55.0901 83 55.9902 83 57.1902C83 58.3902 83.9 59.2902 85.1 59.2902C85.8 59.2902 86.4 58.9901 86.8 58.3901V58.1902H85V56.4901ZM94.4001 53.2903C96.4001 53.2903 97.3001 54.5902 97.3001 56.0902C97.3001 57.1902 96.8001 58.1903 95.8001 58.6903L97.5001 60.9902H95.1001L93.6001 58.8903H92.6001V60.9902H90.6001V53.2903H94.4001ZM92.6001 55.1903V57.1903H94.3001C95.1001 57.1903 95.4001 56.6903 95.4001 56.1903C95.4001 55.5903 95.1001 55.1903 94.3001 55.1903H92.6001ZM106.7 60.9902L103.6 53.2903H101.6L98.5 60.9902H100.7L101.1 59.8903H104.1L104.5 60.9902H106.7ZM101.7 58.0902L102.6 55.7903L103.4 58.0902H101.7ZM108.2 53.2903H111.6C113.7 53.2903 114.6 54.6903 114.6 56.2903C114.6 57.8903 113.6 59.2903 111.6 59.2903H110.2V61.0902H108.2V53.2903ZM110.2 55.0902V57.4902H111.5C112.3 57.4902 112.6 56.9903 112.6 56.2903C112.6 55.6903 112.3 55.0902 111.5 55.0902H110.2ZM123.5 60.9902V53.2903H121.5V56.2903H118.3V53.2903H116.3V60.9902H118.3V58.0902H121.5V60.9902H123.5ZM137.1 53.2903H135.1V60.9902H140.8V59.0902H137.1V53.2903Z"
    fill="#7F818C"
  />
  <defs>
    <filter
      id="filter0_f_1677_11638"
      x="17"
      y="-25"
      width="100"
      height="100"
      filterUnits="userSpaceOnUse"
      color-interpolation-filters="sRGB"
    >
      <feFlood flood-opacity="0" result="BackgroundImageFix" />
      <feBlend mode="normal" in="SourceGraphic" in2="BackgroundImageFix" result="shape" />
      <feGaussianBlur stdDeviation="12" result="effect1_foregroundBlur_1677_11638" />
    </filter>
    <filter
      id="filter1_f_1677_11638"
      x="-30"
      y="19"
      width="100"
      height="100"
      filterUnits="userSpaceOnUse"
      color-interpolation-filters="sRGB"
    >
      <feFlood flood-opacity="0" result="BackgroundImageFix" />
      <feBlend mode="normal" in="SourceGraphic" in2="BackgroundImageFix" result="shape" />
      <feGaussianBlur stdDeviation="12" result="effect1_foregroundBlur_1677_11638" />
    </filter>
    <filter
      id="filter2_f_1677_11638"
      x="-18"
      y="-44"
      width="100"
      height="100"
      filterUnits="userSpaceOnUse"
      color-interpolation-filters="sRGB"
    >
      <feFlood flood-opacity="0" result="BackgroundImageFix" />
      <feBlend mode="normal" in="SourceGraphic" in2="BackgroundImageFix" result="shape" />
      <feGaussianBlur stdDeviation="12" result="effect1_foregroundBlur_1677_11638" />
    </filter>
    <filter
      id="filter3_f_1677_11638"
      x="7"
      y="19"
      width="100"
      height="100"
      filterUnits="userSpaceOnUse"
      color-interpolation-filters="sRGB"
    >
      <feFlood flood-opacity="0" result="BackgroundImageFix" />
      <feBlend mode="normal" in="SourceGraphic" in2="BackgroundImageFix" result="shape" />
      <feGaussianBlur stdDeviation="12" result="effect1_foregroundBlur_1677_11638" />
    </filter>
    <linearGradient
      id="paint0_linear_1677_11638"
      x1="10"
      y1="14"
      x2="81.2132"
      y2="44.5982"
      gradientUnits="userSpaceOnUse"
    >
      <stop stop-color="#7433FF" />
      <stop offset="1" stop-color="#FFA3FD" />
    </linearGradient>
    <linearGradient
      id="paint1_linear_1677_11638"
      x1="10"
      y1="14"
      x2="81.2132"
      y2="44.5982"
      gradientUnits="userSpaceOnUse"
    >
      <stop stop-color="#7433FF" />
      <stop offset="1" stop-color="#FFA3FD" />
    </linearGradient>
    <linearGradient
      id="paint2_linear_1677_11638"
      x1="10"
      y1="14"
      x2="81.2132"
      y2="44.5982"
      gradientUnits="userSpaceOnUse"
    >
      <stop stop-color="#7433FF" />
      <stop offset="1" stop-color="#FFA3FD" />
    </linearGradient>
    <linearGradient
      id="paint3_linear_1677_11638"
      x1="10"
      y1="14"
      x2="81.2132"
      y2="44.5982"
      gradientUnits="userSpaceOnUse"
    >
      <stop stop-color="#7433FF" />
      <stop offset="1" stop-color="#FFA3FD" />
    </linearGradient>
    <linearGradient
      id="paint4_linear_1677_11638"
      x1="10"
      y1="14"
      x2="81.2132"
      y2="44.5982"
      gradientUnits="userSpaceOnUse"
    >
      <stop stop-color="#7433FF" />
      <stop offset="1" stop-color="#FFA3FD" />
    </linearGradient>
    <linearGradient
      id="paint5_linear_1677_11638"
      x1="10"
      y1="14"
      x2="81.2132"
      y2="44.5982"
      gradientUnits="userSpaceOnUse"
    >
      <stop stop-color="#7433FF" />
      <stop offset="1" stop-color="#FFA3FD" />
    </linearGradient>
    <linearGradient
      id="paint6_linear_1677_11638"
      x1="24"
      y1="28"
      x2="60.1645"
      y2="44.4363"
      gradientUnits="userSpaceOnUse"
    >
      <stop stop-color="#7433FF" />
      <stop offset="1" stop-color="#FFA3FD" />
    </linearGradient>
  </defs>
</svg>
