<svg width="455" height="370" viewBox="0 0 455 370" fill="none" xmlns="http://www.w3.org/2000/svg">
  <g style="mix-blend-mode: multiply">
    <path
      fill-rule="evenodd"
      clip-rule="evenodd"
      d="M387.403 204.464L452.62 166.807C455.793 164.975 455.793 160.396 452.62 158.564L310.168 76.3129C302.806 72.0611 293.734 72.0611 286.37 76.3129L221.153 113.969C217.979 115.802 217.979 120.379 221.153 122.213L363.604 204.464C370.967 208.716 380.04 208.716 387.403 204.464Z"
      fill="url(#paint0_linear_2635_1518)"
    />
  </g>
  <path
    fill-rule="evenodd"
    clip-rule="evenodd"
    d="M221.066 93.244C221.1 93.2238 221.12 93.1968 221.154 93.1766L286.371 55.5191C293.735 51.2674 302.807 51.2674 310.171 55.5191L452.119 137.481H454.989V141.79C454.991 141.859 454.991 141.928 454.989 141.997V142.15H454.969C454.888 143.665 454.121 145.148 452.621 146.014L387.404 183.67C380.041 187.924 370.968 187.924 363.606 183.67L221.154 101.421C219.566 100.504 218.774 98.8996 218.774 97.2969V93.244H221.066Z"
    fill="url(#paint1_linear_2635_1518)"
  />
  <path
    fill-rule="evenodd"
    clip-rule="evenodd"
    d="M387.403 179.617L452.62 141.96C455.793 140.128 455.793 135.549 452.62 133.717L310.168 51.466C302.806 47.2143 293.734 47.2143 286.37 51.466L221.153 89.1219C217.979 90.9554 217.979 95.5324 221.153 97.3659L363.604 179.617C370.967 183.869 380.04 183.869 387.403 179.617Z"
    fill="url(#paint2_linear_2635_1518)"
  />
  <path
    fill-rule="evenodd"
    clip-rule="evenodd"
    d="M347.422 97.2973L305.294 121.623L263.167 97.2973L305.294 72.9731L347.422 97.2973Z"
    fill="#67e8f9"
  />
  <path
    fill-rule="evenodd"
    clip-rule="evenodd"
    d="M333.375 93.0416L305.289 76.8249L277.204 93.0416L305.289 109.258L333.375 93.0416Z"
    fill="#0e7490"
  />
  <path
    fill-rule="evenodd"
    clip-rule="evenodd"
    d="M333.375 84.5283L305.289 68.3116L277.204 84.5283L305.289 100.743L333.375 84.5283Z"
    fill="white"
  />
  <path
    fill-rule="evenodd"
    clip-rule="evenodd"
    d="M333.375 76.0135L305.289 59.7968L277.204 76.0135L305.289 92.2302L333.375 76.0135Z"
    fill="#0e7490"
  />
  <path
    fill-rule="evenodd"
    clip-rule="evenodd"
    d="M333.375 67.5002L305.289 51.2835L277.204 67.5002L305.289 83.7169L333.375 67.5002Z"
    fill="white"
  />
  <path
    fill-rule="evenodd"
    clip-rule="evenodd"
    d="M333.375 58.9869L305.289 42.7702L277.204 58.9869L305.289 75.2036L333.375 58.9869Z"
    fill="#0e7490"
  />
  <path
    fill-rule="evenodd"
    clip-rule="evenodd"
    d="M333.375 50.4729L305.289 34.2562L277.204 50.4729L305.289 66.6896L333.375 50.4729Z"
    fill="white"
  />
  <path
    fill-rule="evenodd"
    clip-rule="evenodd"
    d="M410.611 133.784L368.483 158.11L326.356 133.784L368.483 109.46L410.611 133.784Z"
    fill="#67e8f9"
  />
  <path
    fill-rule="evenodd"
    clip-rule="evenodd"
    d="M390.185 89.1906C390.185 86.951 392 85.136 394.24 85.136C396.478 85.136 398.293 86.951 398.293 89.1906C398.293 91.4286 396.478 93.2436 394.24 93.2436C392 93.2436 390.185 91.4286 390.185 89.1906Z"
    fill="#0e7490"
  />
  <path
    fill-rule="evenodd"
    clip-rule="evenodd"
    d="M365.957 79.4596C365.957 77.2216 367.772 75.4067 370.012 75.4067C372.25 75.4067 374.066 77.2216 374.066 79.4596C374.066 81.6992 372.25 83.5142 370.012 83.5142C367.772 83.5142 365.957 81.6992 365.957 79.4596Z"
    fill="#0e7490"
  />
  <path
    d="M393.477 90.7442L380.147 118.024"
    stroke="white"
    stroke-width="1.37"
    stroke-linecap="round"
    stroke-linejoin="round"
  />
  <path
    d="M368.773 79.996L346.069 91.2161"
    stroke="white"
    stroke-width="1.37"
    stroke-linecap="round"
    stroke-linejoin="round"
  />
  <path
    fill-rule="evenodd"
    clip-rule="evenodd"
    d="M368.772 122.636C368.772 117.599 372.855 113.514 377.894 113.514C382.931 113.514 387.016 117.599 387.016 122.636C387.016 127.673 382.931 131.758 377.894 131.758C372.855 131.758 368.772 127.673 368.772 122.636Z"
    fill="#0e7490"
  />
  <path
    fill-rule="evenodd"
    clip-rule="evenodd"
    d="M342.012 91.2164C342.012 88.9785 343.827 87.1635 346.066 87.1635C348.304 87.1635 350.121 88.9785 350.121 91.2164C350.121 93.4561 348.304 95.271 346.066 95.271C343.827 95.271 342.012 93.4561 342.012 91.2164Z"
    fill="#0e7490"
  />
  <path
    d="M374.066 120.141L357.071 109.055"
    stroke="white"
    stroke-width="1.37"
    stroke-linecap="round"
    stroke-linejoin="round"
  />
  <path
    d="M356.963 110.972L346.853 93.3775"
    stroke="white"
    stroke-width="1.37"
    stroke-linecap="round"
    stroke-linejoin="round"
  />
  <path
    fill-rule="evenodd"
    clip-rule="evenodd"
    d="M353.019 109.054C353.019 106.816 354.834 105.001 357.074 105.001C359.312 105.001 361.127 106.816 361.127 109.054C361.127 111.294 359.312 113.109 357.074 113.109C354.834 113.109 353.019 111.294 353.019 109.054Z"
    fill="#0e7490"
  />
  <path
    fill-rule="evenodd"
    clip-rule="evenodd"
    d="M305.294 0L347.422 24.3242V97.2968L305.294 121.623L263.165 97.2968V24.3242L305.294 0Z"
    fill="url(#paint3_linear_2635_1518)"
  />
  <path
    fill-rule="evenodd"
    clip-rule="evenodd"
    d="M368.485 36.487L410.613 60.8112V133.784L368.485 158.11L326.357 133.784V60.8112L368.485 36.487Z"
    fill="url(#paint4_linear_2635_1518)"
  />
  <g style="mix-blend-mode: multiply">
    <path
      fill-rule="evenodd"
      clip-rule="evenodd"
      d="M336.264 250.767L187.228 164.713C176.89 158.745 164.154 158.745 153.816 164.713L4.77985 250.767C-0.417328 253.767 -0.417328 261.268 4.77985 264.27L153.816 350.324C164.154 356.292 176.89 356.292 187.228 350.324L336.264 264.27C341.461 261.268 341.461 253.767 336.264 250.767Z"
      fill="url(#paint5_linear_2635_1518)"
    />
  </g>
  <g style="mix-blend-mode: multiply">
    <path
      fill-rule="evenodd"
      clip-rule="evenodd"
      d="M336.264 265.967L187.228 179.913C176.89 173.945 164.154 173.945 153.816 179.913L4.77985 265.967C-0.417328 268.967 -0.417328 276.468 4.77985 279.47L153.816 365.524C164.154 371.492 176.89 371.492 187.228 365.524L336.264 279.47C341.461 276.468 341.461 268.967 336.264 265.967Z"
      fill="url(#paint6_linear_2635_1518)"
    />
  </g>
  <path
    fill-rule="evenodd"
    clip-rule="evenodd"
    d="M181.81 175.135L193.539 181.907H292.873V242.531C292.873 244.437 291.929 246.345 290.041 247.434L181.81 309.927C174.301 314.262 165.051 314.262 157.544 309.927L49.311 247.434C47.4233 246.345 46.4806 244.437 46.4806 242.531V181.907H145.815L157.544 175.135C161.298 172.967 165.487 171.883 169.677 171.883C173.866 171.883 178.056 172.967 181.81 175.135Z"
    fill="url(#paint7_linear_2635_1518)"
  />
  <path
    d="M296.677 144.821L251.922 169.31"
    stroke="#1CC8EE"
    stroke-linecap="round"
    stroke-linejoin="round"
  />
  <path
    fill-rule="evenodd"
    clip-rule="evenodd"
    d="M290.042 177.004L181.809 114.51C174.302 110.176 165.052 110.176 157.545 114.51L49.3119 177.004C45.5376 179.183 45.5376 184.631 49.3119 186.81L157.545 249.304C165.052 253.639 174.302 253.639 181.809 249.304L290.042 186.81C293.817 184.631 293.817 179.183 290.042 177.004Z"
    fill="url(#paint8_linear_2635_1518)"
  />
  <path
    fill-rule="evenodd"
    clip-rule="evenodd"
    d="M279.127 181.907L169.68 118.712L60.23 181.907L169.68 245.102L279.127 181.907Z"
    fill="#0e7490"
  />
  <path
    fill-rule="evenodd"
    clip-rule="evenodd"
    d="M269.424 181.907L169.681 124.316L69.9379 181.907L169.681 239.498L269.424 181.907Z"
    stroke="#67e8f9"
    stroke-width="1.37"
    stroke-linecap="round"
    stroke-linejoin="round"
  />
  <path
    fill-rule="evenodd"
    clip-rule="evenodd"
    d="M252.531 180.6L169.677 132.76L86.8228 180.6L169.677 228.44L252.531 180.6Z"
    stroke="#67e8f9"
    stroke-width="1.37"
    stroke-linecap="round"
    stroke-linejoin="round"
  />
  <path
    fill-rule="evenodd"
    clip-rule="evenodd"
    d="M231.322 180.6L169.678 145.133L108.034 180.6L169.678 216.066L231.322 180.6Z"
    stroke="#06b6d4"
    stroke-width="1.37"
    stroke-linecap="round"
    stroke-linejoin="round"
  />
  <path
    fill-rule="evenodd"
    clip-rule="evenodd"
    d="M231.322 180.6L169.678 145.133L108.034 180.6L169.678 216.066L231.322 180.6Z"
    fill="#67e8f9"
    fill-opacity="0.459462"
  />
  <path
    fill-rule="evenodd"
    clip-rule="evenodd"
    d="M231.322 172.155L169.678 136.689L108.034 172.155L169.678 207.622L231.322 172.155Z"
    fill="white"
  />
  <path
    fill-rule="evenodd"
    clip-rule="evenodd"
    d="M169.678 45.0864L242.707 87.253V181.907L169.678 224.075L96.6498 181.907V87.253L169.678 45.0864Z"
    fill="url(#paint9_linear_2635_1518)"
  />
  <path
    fill-rule="evenodd"
    clip-rule="evenodd"
    d="M110.432 122.662C110.432 89.9405 136.957 63.4151 169.677 63.4151C202.398 63.4151 228.924 89.9405 228.924 122.662C228.924 155.383 202.398 181.907 169.677 181.907C136.957 181.907 110.432 155.383 110.432 122.662Z"
    fill="url(#paint10_linear_2635_1518)"
  />
  <path
    d="M155.97 154.381L133.884 103.372L205.037 122.418"
    stroke="#4DCAFF"
    stroke-width="1.37"
    stroke-linecap="round"
    stroke-linejoin="round"
  />
  <path
    d="M155.97 154.381L133.884 103.372L205.037 122.418"
    stroke="#F3F3F3"
    stroke-opacity="0.234921"
    stroke-width="1.37"
    stroke-linecap="round"
    stroke-linejoin="round"
  />
  <path
    fill-rule="evenodd"
    clip-rule="evenodd"
    d="M125.053 103.372C125.053 98.4959 129.005 94.5441 133.881 94.5441C138.756 94.5441 142.709 98.4959 142.709 103.372C142.709 108.247 138.756 112.2 133.881 112.2C129.005 112.2 125.053 108.247 125.053 103.372Z"
    fill="white"
  />
  <path
    d="M125.053 103.372C125.053 98.4959 129.005 94.5441 133.881 94.5441C138.756 94.5441 142.709 98.4959 142.709 103.372C142.709 108.247 138.756 112.2 133.881 112.2C129.005 112.2 125.053 108.247 125.053 103.372"
    stroke="#155e75"
    stroke-opacity="0.5"
    stroke-width="6"
  />
  <path
    fill-rule="evenodd"
    clip-rule="evenodd"
    d="M148.918 158.484C148.918 153.608 152.871 149.656 157.746 149.656C162.621 149.656 166.574 153.608 166.574 158.484C166.574 163.361 162.621 167.313 157.746 167.313C152.871 167.313 148.918 163.361 148.918 158.484Z"
    fill="white"
  />
  <path
    d="M148.918 158.484C148.918 153.608 152.871 149.656 157.746 149.656C162.621 149.656 166.574 153.608 166.574 158.484C166.574 163.361 162.621 167.313 157.746 167.313C152.871 167.313 148.918 163.361 148.918 158.484"
    stroke="#155e75"
    stroke-opacity="0.5"
    stroke-width="6"
  />
  <path
    fill-rule="evenodd"
    clip-rule="evenodd"
    d="M193.541 95.105C193.541 92.4693 195.677 90.3318 198.314 90.3318C200.95 90.3318 203.086 92.4693 203.086 95.105C203.086 97.7407 200.95 99.8781 198.314 99.8781C195.677 99.8781 193.541 97.7407 193.541 95.105Z"
    fill="white"
  />
  <path
    d="M193.541 95.105C193.541 92.4693 195.677 90.3318 198.314 90.3318C200.95 90.3318 203.086 92.4693 203.086 95.105C203.086 97.7407 200.95 99.8781 198.314 99.8781C195.677 99.8781 193.541 97.7407 193.541 95.105"
    stroke="#155e75"
    stroke-opacity="0.5"
    stroke-width="6"
  />
  <path
    d="M195.311 93.8908L174.453 85.4602L175.688 106.767L148.204 125.417L136.632 131.439"
    stroke="#4DCAFF"
    stroke-width="1.37"
    stroke-linecap="round"
    stroke-linejoin="round"
  />
  <path
    d="M195.311 93.8908L174.453 85.4602L175.688 106.767L148.204 125.417L136.632 131.439"
    stroke="#F3F3F3"
    stroke-opacity="0.234921"
    stroke-width="1.37"
    stroke-linecap="round"
    stroke-linejoin="round"
  />
  <path
    fill-rule="evenodd"
    clip-rule="evenodd"
    d="M145.61 125.417C145.61 123.986 146.77 122.827 148.2 122.827C149.63 122.827 150.789 123.986 150.789 125.417C150.789 126.847 149.63 128.006 148.2 128.006C146.77 128.006 145.61 126.847 145.61 125.417Z"
    fill="white"
  />
  <path
    d="M145.61 125.417C145.61 123.986 146.77 122.827 148.2 122.827C149.63 122.827 150.789 123.986 150.789 125.417C150.789 126.847 149.63 128.006 148.2 128.006C146.77 128.006 145.61 126.847 145.61 125.417"
    stroke="#155e75"
    stroke-opacity="0.5"
    stroke-width="3"
  />
  <path
    fill-rule="evenodd"
    clip-rule="evenodd"
    d="M169.68 85.4604C169.68 82.8247 171.816 80.6873 174.453 80.6873C177.087 80.6873 179.225 82.8247 179.225 85.4604C179.225 88.0961 177.087 90.2335 174.453 90.2335C171.816 90.2335 169.68 88.0961 169.68 85.4604Z"
    fill="white"
  />
  <path
    d="M169.68 85.4604C169.68 82.8247 171.816 80.6873 174.453 80.6873C177.087 80.6873 179.225 82.8247 179.225 85.4604C179.225 88.0961 177.087 90.2335 174.453 90.2335C171.816 90.2335 169.68 88.0961 169.68 85.4604"
    stroke="#155e75"
    stroke-opacity="0.5"
    stroke-width="6"
  />
  <path
    fill-rule="evenodd"
    clip-rule="evenodd"
    d="M129.111 132.867C129.111 130.231 131.249 128.094 133.884 128.094C136.52 128.094 138.656 130.231 138.656 132.867C138.656 135.503 136.52 137.639 133.884 137.639C131.249 137.639 129.111 135.503 129.111 132.867Z"
    fill="white"
  />
  <path
    d="M129.111 132.867C129.111 130.231 131.249 128.094 133.884 128.094C136.52 128.094 138.656 130.231 138.656 132.867C138.656 135.503 136.52 137.639 133.884 137.639C131.249 137.639 129.111 135.503 129.111 132.867"
    stroke="#155e75"
    stroke-opacity="0.5"
    stroke-width="6"
  />
  <path
    d="M136.629 133.699L199.676 152.808L180.456 132.305L197.086 97.6598"
    stroke="#4DCAFF"
    stroke-width="1.37"
    stroke-linecap="round"
    stroke-linejoin="round"
  />
  <path
    d="M136.629 133.699L199.676 152.808L180.456 132.305L197.086 97.6598"
    stroke="#F3F3F3"
    stroke-opacity="0.234921"
    stroke-width="1.37"
    stroke-linecap="round"
    stroke-linejoin="round"
  />
  <path
    fill-rule="evenodd"
    clip-rule="evenodd"
    d="M202.268 124.039C202.268 119.164 206.22 115.211 211.096 115.211C215.971 115.211 219.924 119.164 219.924 124.039C219.924 128.914 215.971 132.867 211.096 132.867C206.22 132.867 202.268 128.914 202.268 124.039Z"
    fill="white"
  />
  <path
    d="M202.268 124.039C202.268 119.164 206.22 115.211 211.096 115.211C215.971 115.211 219.924 119.164 219.924 124.039C219.924 128.914 215.971 132.867 211.096 132.867C206.22 132.867 202.268 128.914 202.268 124.039"
    stroke="#155e75"
    stroke-opacity="0.5"
    stroke-width="6"
  />
  <path
    fill-rule="evenodd"
    clip-rule="evenodd"
    d="M175.685 132.306C175.685 129.67 177.822 127.534 180.458 127.534C183.094 127.534 185.23 129.67 185.23 132.306C185.23 134.942 183.094 137.079 180.458 137.079C177.822 137.079 175.685 134.942 175.685 132.306Z"
    fill="white"
  />
  <path
    d="M175.685 132.306C175.685 129.67 177.822 127.534 180.458 127.534C183.094 127.534 185.23 129.67 185.23 132.306C185.23 134.942 183.094 137.079 180.458 137.079C177.822 137.079 175.685 134.942 175.685 132.306"
    stroke="#155e75"
    stroke-opacity="0.5"
    stroke-width="6"
  />
  <path
    d="M153.38 80.6878L175.685 106.766L179.916 129.413"
    stroke="#4DCAFF"
    stroke-width="1.37"
    stroke-linecap="round"
    stroke-linejoin="round"
  />
  <path
    d="M153.38 80.6878L175.685 106.766L179.916 129.413"
    stroke="#F3F3F3"
    stroke-opacity="0.234921"
    stroke-width="1.37"
    stroke-linecap="round"
    stroke-linejoin="round"
  />
  <path
    d="M206.447 127.037L162.526 155.397"
    stroke="#4DCAFF"
    stroke-width="1.37"
    stroke-linecap="round"
    stroke-linejoin="round"
  />
  <path
    d="M206.447 127.037L162.526 155.397"
    stroke="#F3F3F3"
    stroke-opacity="0.234921"
    stroke-width="1.37"
    stroke-linecap="round"
    stroke-linejoin="round"
  />
  <path
    fill-rule="evenodd"
    clip-rule="evenodd"
    d="M150.792 80.6878C150.792 79.2571 151.951 78.0979 153.382 78.0979C154.812 78.0979 155.971 79.2571 155.971 80.6878C155.971 82.1185 154.812 83.2777 153.382 83.2777C151.951 83.2777 150.792 82.1185 150.792 80.6878Z"
    fill="white"
  />
  <path
    d="M150.792 80.6878C150.792 79.2571 151.951 78.0979 153.382 78.0979C154.812 78.0979 155.971 79.2571 155.971 80.6878C155.971 82.1185 154.812 83.2777 153.382 83.2777C151.951 83.2777 150.792 82.1185 150.792 80.6878"
    stroke="#155e75"
    stroke-opacity="0.5"
    stroke-width="3"
  />
  <path
    fill-rule="evenodd"
    clip-rule="evenodd"
    d="M197.087 152.808C197.087 151.377 198.246 150.218 199.677 150.218C201.106 150.218 202.266 151.377 202.266 152.808C202.266 154.237 201.106 155.397 199.677 155.397C198.246 155.397 197.087 154.237 197.087 152.808Z"
    fill="white"
  />
  <path
    d="M197.087 152.808C197.087 151.377 198.246 150.218 199.677 150.218C201.106 150.218 202.266 151.377 202.266 152.808C202.266 154.237 201.106 155.397 199.677 155.397C198.246 155.397 197.087 154.237 197.087 152.808"
    stroke="#155e75"
    stroke-opacity="0.5"
    stroke-width="3"
  />
  <path
    fill-rule="evenodd"
    clip-rule="evenodd"
    d="M112.405 316.933V289.376L141.041 256.309L140.72 300.214L112.405 316.933Z"
    fill="url(#paint11_linear_2635_1518)"
  />
  <path
    fill-rule="evenodd"
    clip-rule="evenodd"
    d="M112.404 316.933L45.5898 278.354V250.798L112.404 289.376V316.933Z"
    fill="url(#paint12_linear_2635_1518)"
  />
  <path
    fill-rule="evenodd"
    clip-rule="evenodd"
    d="M141.041 256.309L74.2265 217.73L45.5912 250.797L112.405 289.376L141.041 256.309Z"
    fill="url(#paint13_linear_2635_1518)"
  />
  <path
    fill-rule="evenodd"
    clip-rule="evenodd"
    d="M94.4708 265.971L116.545 278.716L112.085 283.865L90.0104 271.119L94.4708 265.971Z"
    fill="#164e63"
  />
  <path
    fill-rule="evenodd"
    clip-rule="evenodd"
    d="M72.284 253.043L91.6777 264.241L87.2185 269.39L67.8236 258.192L72.284 253.043Z"
    fill="#164e63"
  />
  <path
    fill-rule="evenodd"
    clip-rule="evenodd"
    d="M106.674 254.599C109.979 250.105 115.982 248.827 120.084 251.744C124.185 254.661 124.831 260.669 121.525 265.162C118.22 269.656 112.217 270.934 108.115 268.017C104.014 265.099 103.369 259.092 106.674 254.599Z"
    fill="#1CC8EE"
  />
  <path
    fill-rule="evenodd"
    clip-rule="evenodd"
    d="M70.8224 227.148L83.5645 234.505L64.5774 256.432L51.8353 249.076L70.8224 227.148Z"
    fill="#1CC8EE"
  />
  <path
    fill-rule="evenodd"
    clip-rule="evenodd"
    d="M78.2542 235.13C77.8189 234.822 77.1844 234.957 76.8338 235.432C76.7086 235.603 76.6369 235.793 76.6163 235.982L68.6302 237.919C68.5678 237.768 68.4659 237.635 68.3265 237.535C67.8924 237.227 67.2566 237.362 66.9061 237.839C66.5556 238.314 66.6244 238.951 67.0596 239.259C67.3033 239.433 67.6104 239.466 67.895 239.378L69.3482 242.398C69.2899 242.451 69.2358 242.51 69.1871 242.576C69.0013 242.829 68.9333 243.126 68.9751 243.396L59.1493 248.71C59.1022 248.653 59.0475 248.602 58.9852 248.558C58.5511 248.25 57.9154 248.385 57.5649 248.86C57.2143 249.337 57.2831 249.974 57.7183 250.282C58.1525 250.591 58.7882 250.456 59.1387 249.981C59.3244 249.728 59.3921 249.431 59.3502 249.161L69.176 243.847C69.2229 243.903 69.2775 243.954 69.3394 243.998C69.7736 244.307 70.4093 244.172 70.7598 243.696C71.1103 243.22 71.0416 242.583 70.6063 242.274C70.364 242.102 70.0593 242.068 69.7763 242.154L68.323 239.132C68.3797 239.08 68.4325 239.022 68.48 238.958C68.6052 238.788 68.6767 238.597 68.6972 238.408L76.6831 236.473C76.7454 236.623 76.847 236.755 76.9862 236.854C77.4215 237.163 78.056 237.028 78.4066 236.552C78.7571 236.076 78.6883 235.439 78.2542 235.13ZM117.504 254.372C117.854 253.896 118.49 253.761 118.925 254.069C119.359 254.379 119.427 255.016 119.077 255.492C118.726 255.967 118.091 256.103 117.657 255.793C117.222 255.485 117.154 254.848 117.504 254.372ZM115.378 258.155C115.728 257.68 116.364 257.544 116.798 257.853C117.232 258.162 117.301 258.799 116.952 259.275C116.6 259.751 115.964 259.886 115.53 259.576C115.096 259.268 115.027 258.631 115.378 258.155ZM113.038 254.419C112.604 254.111 111.969 254.246 111.618 254.722C111.268 255.198 111.336 255.835 111.77 256.143C112.206 256.453 112.841 256.317 113.192 255.842C113.541 255.366 113.473 254.729 113.038 254.419ZM111.618 265.411C111.969 264.935 112.604 264.8 113.038 265.108C113.473 265.418 113.541 266.054 113.192 266.53C112.841 267.006 112.206 267.142 111.77 266.832C111.336 266.524 111.268 265.887 111.618 265.411Z"
    fill="white"
  />
  <g style="mix-blend-mode: multiply">
    <path
      d="M338.747 281.749C308.639 277.507 264.45 290.797 241.362 303.803C212.593 319.96 214.946 338.904 228.296 349.326L233.733 346.256C241.923 349.9 250.34 353.017 258.932 355.587C301.092 368.431 350.231 355.587 350.231 355.587L358.062 320.97C358.062 320.97 399.654 290.231 338.747 281.749Z"
      fill="url(#paint14_linear_2635_1518)"
    />
  </g>
  <path
    d="M397.055 254.524C399.287 254.524 420.265 210.738 422.091 207.911C423.327 206.074 424.682 204.319 426.149 202.66C430.063 197.813 433.437 192.558 436.212 186.987C436.719 186.226 436.908 185.299 436.74 184.402C436.496 183.554 435.198 183.069 434.67 183.796L437.389 174.789C437.714 173.738 437.795 172.244 436.74 171.961C435.685 171.678 435.036 172.85 434.711 173.779L431.059 183.392C431.587 179.353 432.073 175.314 432.56 171.274C432.56 169.982 432.56 168.285 431.384 167.881C431.062 167.826 430.732 167.848 430.421 167.947C430.111 168.045 429.828 168.217 429.598 168.447C428.829 169.37 428.387 170.52 428.34 171.719L427.001 181.049L427.245 172.446C427.336 171.555 427.167 170.658 426.758 169.861C425.743 168.245 424.445 169.376 424.161 170.749C424.161 171.476 423.877 172.203 423.715 172.93C423.39 174.385 423.106 175.798 422.781 177.252C422.457 178.707 422.173 180.161 421.848 181.615L421.402 183.715C421.166 184.323 421.029 184.964 420.996 185.614C420.631 183.271 420.225 180.928 419.86 178.585C419.803 177.865 419.566 177.171 419.17 176.566C417.871 174.91 416.857 177.01 416.614 178.222C416.403 179.68 416.335 181.154 416.411 182.625C416.521 184.927 416.344 187.233 415.883 189.491C415.153 192.359 413.205 203.306 412.596 205.931C411.988 208.557 394.702 228.228 394.702 228.228C392.187 222.73 388.939 217.594 385.044 212.96C383.897 211.618 382.34 210.686 380.611 210.307C378.882 209.928 377.076 210.122 375.468 210.859C374.591 211.646 373.897 212.614 373.435 213.695C372.972 214.777 372.752 215.945 372.79 217.12C372.671 220.21 373.196 223.291 374.332 226.168C375.346 229.076 391.699 254.524 397.055 254.524Z"
    fill="#F5DFFF"
  />
  <path
    d="M299.023 319.354C295.939 318.143 293.464 317.537 291.354 320.526C290.822 321.519 290.168 322.442 289.406 323.272C285.064 326.989 263.639 321.172 262.3 327.312C262.226 327.845 262.259 328.388 262.399 328.908C262.538 329.428 262.781 329.916 263.112 330.341C273.134 346.498 287.823 340.197 299.347 343.63C306.529 345.731 308.842 345.408 309.451 338.46C310.222 330.341 318.053 326.989 299.023 319.354Z"
    fill="#F5DFFF"
  />
  <path
    d="M306.811 311.639C307.095 312.649 316.753 320.485 321.176 318.829C326.248 316.931 332.903 297.663 352.461 286.515C362.564 280.658 357.289 258.24 349.012 249.758C348.356 248.832 347.487 248.078 346.477 247.556C345.467 247.035 344.347 246.763 343.209 246.763C342.072 246.763 340.951 247.035 339.941 247.556C338.932 248.078 338.062 248.832 337.407 249.758C334.999 254.286 332.964 259 331.32 263.855C328.074 271.368 306.527 310.589 306.811 311.639Z"
    fill="#211A20"
  />
  <path
    d="M383.06 291.968C377.298 298.512 347.677 305.136 339.155 307.075L337.573 313.619C326.73 308.948 315.503 305.218 304.015 302.47C306.734 301.056 310.061 298.875 314.241 296.654L323.29 279.406C310.346 281.183 282.712 285.061 272.893 286.555C265.751 287.646 254.958 286.555 254.998 297.663C254.998 307.398 260.72 312.164 269.606 316.365C284.735 324.07 299.298 332.83 313.186 342.58C321.585 348.074 330.269 353.729 340.17 355.385C348.763 356.767 357.57 355.048 365.003 350.537C367.113 349.245 369.061 347.71 371.292 346.498C373.524 345.286 376.284 344.357 378.637 343.024C382.133 340.728 385.009 337.611 387.012 333.949C389.014 330.286 390.081 326.19 390.12 322.02C390.526 313.78 386.144 299.683 383.06 291.968Z"
    fill="#0B0D11"
  />
  <path
    d="M385.453 249.798C385.453 241.719 389.511 220.473 383.384 213.081C382.071 211.753 380.36 210.885 378.508 210.608C376.657 210.331 374.765 210.66 373.118 211.546C364.353 215.868 338.79 231.742 335.665 233.6C334.493 234.143 333.448 234.924 332.598 235.893C331.747 236.862 331.111 237.998 330.728 239.228C330.346 240.457 330.227 241.752 330.378 243.03C330.53 244.308 330.948 245.54 331.608 246.647C334.435 254.994 336.686 263.523 338.343 272.175C338.668 274.72 338.83 277.305 338.952 279.89C339.479 289.019 339.277 297.906 338.952 307.075C338.546 320.283 384.074 311.76 384.114 295.199C384.317 285.949 385.535 258.442 385.453 249.798Z"
    fill="url(#paint15_linear_2635_1518)"
  />
  <path
    d="M332.133 236.226C327.223 238.205 312.453 274.357 311.561 274.841C310.668 275.326 262.34 271.246 260.555 269.752C258.08 267.288 249.518 265.713 244.811 265.066C243.68 264.911 242.65 264.333 241.93 263.451C240.551 261.815 239.074 260.264 237.507 258.805C234.87 256.382 233.449 258.805 237.061 263.087C232.151 257.513 226.592 257.432 227.89 259.411C222.047 258.684 228.742 263.127 232.881 268.015L228.012 266.803C227.398 266.659 226.759 266.659 226.146 266.803C225.845 266.879 225.582 267.059 225.404 267.311C225.225 267.563 225.143 267.87 225.172 268.177C225.172 268.621 225.74 268.904 226.105 269.146C227.89 270.196 229.797 271.004 231.583 271.974C236.229 274.649 241.333 276.444 246.637 277.265C252.237 278.032 257.715 278.84 263.314 279.365C268.914 279.89 302.187 293.624 317.363 294.311C322.232 294.513 337.124 265.349 341.182 260.462C349.865 250.04 343.454 231.904 332.133 236.226Z"
    fill="#F5DFFF"
  />
  <path
    d="M347.593 177.252C345.731 179.122 344.287 181.363 343.357 183.827C342.427 186.292 342.031 188.924 342.196 191.551C342.338 192.122 342.338 192.718 342.196 193.288C341.831 194.096 340.979 194.46 340.208 194.904C339.437 195.348 338.706 196.116 338.869 196.964C339.031 197.812 339.639 198.014 340.005 198.58C340.268 199.121 340.407 199.715 340.41 200.317C340.713 202.836 340.835 205.374 340.776 207.911C340.613 208.697 340.613 209.508 340.776 210.294C341.425 212.394 344.022 213.04 346.132 213.767C346.651 213.875 347.127 214.131 347.502 214.504C347.877 214.877 348.134 215.351 348.242 215.868C349.122 217.511 349.619 219.329 349.696 221.189C349.773 223.049 349.429 224.903 348.688 226.612C347.065 232.55 374.536 227.218 371.209 219.261C370.803 218.211 369.058 214.616 371.209 211.99C373.724 208.718 380.379 208.84 380.46 194.419C380.541 169.537 357.291 167.558 347.593 177.252Z"
    fill="#F5DFFF"
  />
  <path
    d="M350.92 201.892C350.92 203.185 351.691 205.931 354.044 205.527C355.708 205.285 356.235 203.185 356.803 201.003C357.044 200.371 357.46 199.82 358.004 199.415C358.548 199.01 359.197 198.768 359.874 198.717C360.552 198.666 361.23 198.809 361.828 199.128C362.427 199.447 362.922 199.929 363.255 200.519C365.325 203.791 363.742 207.507 359.563 211.748C359.563 217.968 382.367 218.857 384.274 191.148C384.902 186.829 384.303 182.423 382.546 178.425C380.79 174.428 377.945 171 374.333 168.528C370.567 166.23 366.209 165.079 361.794 165.215C345.564 165.539 339.923 178.545 341.506 185.169C341.681 185.88 342.022 186.54 342.501 187.094C342.981 187.649 343.585 188.082 344.265 188.36C348.039 189.976 352.867 190.744 350.92 201.892Z"
    fill="#0B0D11"
  />
  <path
    d="M376.199 169.941C374.876 169.282 373.38 169.049 371.918 169.272C370.456 169.496 369.1 170.166 368.037 171.19C366.974 172.214 366.256 173.541 365.984 174.989C365.711 176.436 365.897 177.932 366.515 179.27C367.133 180.608 368.153 181.721 369.435 182.457C370.716 183.193 372.196 183.514 373.668 183.377C375.141 183.24 376.535 182.651 377.657 181.691C378.779 180.731 379.574 179.449 379.932 178.02C380.224 177.246 380.358 176.422 380.328 175.596C380.298 174.769 380.104 173.957 379.757 173.206C379.409 172.455 378.916 171.78 378.306 171.22C377.695 170.659 376.979 170.225 376.199 169.941Z"
    fill="url(#paint16_linear_2635_1518)"
  />
  <path
    d="M401.766 178.222C402.294 163.681 374.539 156.046 371.536 181.938C371.07 186.341 371.549 190.792 372.94 194.997C374.332 199.202 376.605 203.064 379.608 206.329C382.612 209.594 386.278 212.187 390.364 213.936C394.449 215.685 398.861 216.55 403.308 216.474C403.501 216.471 403.688 216.409 403.844 216.297C403.999 216.184 404.116 216.027 404.179 215.845C404.241 215.664 404.245 215.468 404.191 215.284C404.137 215.1 404.027 214.937 403.876 214.818C401.033 212.3 398.925 209.064 397.775 205.452C396.625 201.841 396.476 197.987 397.343 194.298C398.561 188.118 401.563 184.523 401.766 178.222Z"
    fill="#0B0D11"
  />
  <defs>
    <linearGradient
      id="paint0_linear_2635_1518"
      x1="336.886"
      y1="73.1241"
      x2="336.886"
      y2="207.653"
      gradientUnits="userSpaceOnUse"
    >
      <stop stop-color="#E2E9FB" />
      <stop offset="1" stop-color="#E2E9FB" stop-opacity="0" />
    </linearGradient>
    <linearGradient
      id="paint1_linear_2635_1518"
      x1="317.131"
      y1="46.7641"
      x2="312.962"
      y2="189.609"
      gradientUnits="userSpaceOnUse"
    >
      <stop offset="0.124802" stop-color="#0891b2" />
      <stop offset="1" stop-color="#67e8f9" stop-opacity="0" />
    </linearGradient>
    <linearGradient
      id="paint2_linear_2635_1518"
      x1="317.134"
      y1="42.711"
      x2="312.966"
      y2="185.554"
      gradientUnits="userSpaceOnUse"
    >
      <stop offset="0.124802" stop-color="#0e7490" />
      <stop offset="1" stop-color="#67e8f9" stop-opacity="0" />
    </linearGradient>
    <linearGradient
      id="paint3_linear_2635_1518"
      x1="343.131"
      y1="12.3868"
      x2="343.131"
      y2="121.623"
      gradientUnits="userSpaceOnUse"
    >
      <stop stop-color="#22d3ee" stop-opacity="0.01" />
      <stop offset="1" stop-color="white" stop-opacity="0.636855" />
    </linearGradient>
    <linearGradient
      id="paint4_linear_2635_1518"
      x1="406.323"
      y1="48.8738"
      x2="406.323"
      y2="158.11"
      gradientUnits="userSpaceOnUse"
    >
      <stop stop-color="#22d3ee" stop-opacity="0.01" />
      <stop offset="1" stop-color="white" stop-opacity="0.636855" />
    </linearGradient>
    <linearGradient
      id="paint5_linear_2635_1518"
      x1="170.522"
      y1="160.237"
      x2="170.522"
      y2="354.8"
      gradientUnits="userSpaceOnUse"
    >
      <stop stop-color="#E2E9FB" />
      <stop offset="1" stop-color="#E2E9FB" stop-opacity="0" />
    </linearGradient>
    <linearGradient
      id="paint6_linear_2635_1518"
      x1="170.522"
      y1="175.437"
      x2="170.522"
      y2="370"
      gradientUnits="userSpaceOnUse"
    >
      <stop stop-color="#E2E9FB" />
      <stop offset="1" stop-color="#E2E9FB" stop-opacity="0" />
    </linearGradient>
    <linearGradient
      id="paint7_linear_2635_1518"
      x1="149.074"
      y1="166.037"
      x2="144.666"
      y2="316.063"
      gradientUnits="userSpaceOnUse"
    >
      <stop offset="0.124802" stop-color="#0e7490" />
      <stop offset="1" stop-color="#67e8f9" stop-opacity="0" />
    </linearGradient>
    <linearGradient
      id="paint8_linear_2635_1518"
      x1="149.074"
      y1="105.413"
      x2="144.667"
      y2="255.44"
      gradientUnits="userSpaceOnUse"
    >
      <stop offset="0.124802" stop-color="#0e7490" />
      <stop offset="1" stop-color="#67e8f9" stop-opacity="0" />
    </linearGradient>
    <linearGradient
      id="paint9_linear_2635_1518"
      x1="266.344"
      y1="-0.0527963"
      x2="266.344"
      y2="236.868"
      gradientUnits="userSpaceOnUse"
    >
      <stop stop-color="#67e8f9" stop-opacity="0.01" />
      <stop offset="1" stop-color="white" stop-opacity="0.636855" />
    </linearGradient>
    <linearGradient
      id="paint10_linear_2635_1518"
      x1="222.89"
      y1="75.4831"
      x2="222.89"
      y2="181.907"
      gradientUnits="userSpaceOnUse"
    >
      <stop stop-color="#67e8f9" stop-opacity="0.0449628" />
      <stop offset="1" stop-color="#0e7490" stop-opacity="0.601945" />
    </linearGradient>
    <linearGradient
      id="paint11_linear_2635_1518"
      x1="124.328"
      y1="253.801"
      x2="117.422"
      y2="317.478"
      gradientUnits="userSpaceOnUse"
    >
      <stop stop-color="#0e7490" />
      <stop offset="1" stop-color="#a5f3fc" stop-opacity="0.64" />
    </linearGradient>
    <linearGradient
      id="paint12_linear_2635_1518"
      x1="73.4102"
      y1="248.062"
      x2="69.8551"
      y2="318.164"
      gradientUnits="userSpaceOnUse"
    >
      <stop stop-color="#0e7490" />
      <stop offset="1" stop-color="#67e8f9" stop-opacity="0" />
    </linearGradient>
    <linearGradient
      id="paint13_linear_2635_1518"
      x1="85.3349"
      y1="214.766"
      x2="82.4111"
      y2="290.792"
      gradientUnits="userSpaceOnUse"
    >
      <stop offset="0.124802" stop-color="#0e7490" />
      <stop offset="1" stop-color="#67e8f9" stop-opacity="0" />
    </linearGradient>
    <linearGradient
      id="paint14_linear_2635_1518"
      x1="295.349"
      y1="280.944"
      x2="255.5"
      y2="354"
      gradientUnits="userSpaceOnUse"
    >
      <stop stop-color="#E2E9FB" />
      <stop offset="1" stop-color="#E2E9FB" stop-opacity="0" />
    </linearGradient>
    <linearGradient
      id="paint15_linear_2635_1518"
      x1="323.953"
      y1="206.863"
      x2="454.804"
      y2="278.979"
      gradientUnits="userSpaceOnUse"
    >
      <stop stop-color="#47DEFF" />
      <stop offset="1" stop-color="#9847FF" />
    </linearGradient>
    <linearGradient
      id="paint16_linear_2635_1518"
      x1="364.231"
      y1="168.686"
      x2="385.582"
      y2="190.544"
      gradientUnits="userSpaceOnUse"
    >
      <stop stop-color="#47DEFF" />
      <stop offset="1" stop-color="#9847FF" />
    </linearGradient>
  </defs>
</svg>
