<svg width="412" height="412" viewBox="0 0 412 412" fill="none" xmlns="http://www.w3.org/2000/svg">
  <path
    opacity="0.22819"
    fill-rule="evenodd"
    clip-rule="evenodd"
    d="M293.138 185.235L256.379 164.014L207.168 192.426L243.925 213.647L293.138 185.235Z"
    fill="url(#paint0_linear_2635_1744)"
  />
  <path
    opacity="0.22819"
    fill-rule="evenodd"
    clip-rule="evenodd"
    d="M157.951 164.013L121.193 185.234L170.407 213.648L207.164 192.426L157.951 164.013Z"
    fill="url(#paint1_linear_2635_1744)"
    fill-opacity="0.3"
  />
  <path
    opacity="0.22819"
    fill-rule="evenodd"
    clip-rule="evenodd"
    d="M121.195 242.06L157.954 263.283L207.165 234.87L170.408 213.647L121.195 242.06Z"
    fill="url(#paint2_linear_2635_1744)"
    fill-opacity="0.3"
  />
  <path
    opacity="0.22819"
    fill-rule="evenodd"
    clip-rule="evenodd"
    d="M256.382 263.283L293.139 242.061L243.925 213.648L207.168 234.869L256.382 263.283Z"
    fill="url(#paint3_linear_2635_1744)"
    fill-opacity="0.3"
  />
  <path
    fill-rule="evenodd"
    clip-rule="evenodd"
    d="M105.554 223.382L105.15 222.685L161.001 190.44C162.965 189.307 165.402 189.307 167.366 190.44L193.476 205.514L193.073 206.212L166.963 191.137C165.249 190.148 163.118 190.148 161.404 191.137L105.554 223.382Z"
    fill="#1CC8EE"
  />
  <path
    fill-rule="evenodd"
    clip-rule="evenodd"
    d="M205.794 247.833C206.744 248.382 208.484 248.303 209.593 247.662L253.437 222.349C253.963 222.044 254.278 221.651 254.278 221.295C254.279 220.942 253.982 220.696 253.734 220.553L209.295 194.897C208.344 194.349 206.604 194.429 205.494 195.068L161.652 220.381C161.124 220.686 160.811 221.08 160.811 221.436C160.809 221.789 161.107 222.033 161.353 222.177L205.794 247.833ZM207.426 248.892C206.691 248.892 205.986 248.741 205.449 248.43L161.01 222.774C160.435 222.442 160.12 221.967 160.121 221.435C160.121 220.821 160.553 220.22 161.307 219.786L205.151 194.472C206.492 193.697 208.463 193.621 209.637 194.3L254.077 219.958C254.651 220.288 254.968 220.763 254.966 221.296C254.966 221.91 254.534 222.511 253.78 222.944L209.937 248.259C209.208 248.678 208.297 248.892 207.426 248.892Z"
    fill="#1CC8EE"
  />
  <path
    fill-rule="evenodd"
    clip-rule="evenodd"
    d="M207.426 229.836L160.232 202.588L207.425 175.343L254.618 202.589L207.426 229.836Z"
    fill="url(#paint4_linear_2635_1744)"
  />
  <path
    fill-rule="evenodd"
    clip-rule="evenodd"
    d="M207.426 223.552L171.127 202.595L207.425 181.639L243.724 202.596L207.426 223.552Z"
    fill="#0F054C"
  />
  <path
    fill-rule="evenodd"
    clip-rule="evenodd"
    d="M207.426 223.553L171.127 202.596L207.425 181.639L243.724 202.596L207.426 223.553Z"
    fill="white"
    stroke="#979797"
    stroke-linejoin="round"
  />
  <path
    fill-rule="evenodd"
    clip-rule="evenodd"
    d="M207.426 176.354L243.725 197.312V202.596L207.426 181.639V176.354Z"
    fill="white"
    fill-opacity="0.3"
    stroke="#5F2EEA"
    stroke-linejoin="round"
  />
  <path
    fill-rule="evenodd"
    clip-rule="evenodd"
    d="M207.426 181.639L171.127 202.594V197.311L207.425 176.354L207.426 181.639Z"
    fill="white"
    fill-opacity="0.50041"
    stroke="#5F2EEA"
    stroke-linejoin="round"
  />
  <path
    opacity="0.198126"
    fill-rule="evenodd"
    clip-rule="evenodd"
    d="M207.426 218.851L171.127 197.893L207.425 176.937L243.724 197.895L207.426 218.851Z"
    fill="white"
  />
  <path
    fill-rule="evenodd"
    clip-rule="evenodd"
    d="M207.428 207.727L192.924 199.352L207.428 190.978L221.932 199.353L207.428 207.727Z"
    fill="#5F2EEA"
  />
  <path
    fill-rule="evenodd"
    clip-rule="evenodd"
    d="M207.428 191.749L221.265 199.738L221.933 199.352L207.428 190.978L192.924 199.352L193.591 199.738L207.428 191.749Z"
    fill="#2A00A2"
  />
  <path
    fill-rule="evenodd"
    clip-rule="evenodd"
    d="M207.428 218.269V223.553L243.726 202.596V197.312L207.428 218.269Z"
    fill="white"
    fill-opacity="0.495547"
    stroke="#5F2EEA"
    stroke-linejoin="round"
  />
  <path
    fill-rule="evenodd"
    clip-rule="evenodd"
    d="M171.127 197.31V202.595L207.426 223.553V218.268L171.127 197.31Z"
    fill="white"
    fill-opacity="0.495547"
    stroke="#BC6BEE"
    stroke-linejoin="round"
  />
  <path
    fill-rule="evenodd"
    clip-rule="evenodd"
    d="M298.782 339.744C300.84 340.932 303.399 340.93 305.458 339.744L410.285 279.222L302.116 216.77L196.05 278.008C195.611 278.261 195.35 278.715 195.35 279.219C195.35 279.725 195.611 280.177 196.05 280.43L298.782 339.744ZM302.117 341.441C300.824 341.441 299.53 341.107 298.376 340.442L195.643 281.128C194.952 280.73 194.541 280.016 194.541 279.219C194.541 278.422 194.952 277.709 195.643 277.311L302.113 215.839L411.893 279.222L305.858 340.442C304.703 341.107 303.41 341.441 302.117 341.441Z"
    fill="#1CC8EE"
  />
  <path
    fill-rule="evenodd"
    clip-rule="evenodd"
    d="M92.5921 213.309L16.489 257.247C16.0837 257.482 15.8418 257.901 15.8418 258.366C15.8418 258.834 16.0837 259.253 16.489 259.487L58.6609 283.836C60.6258 284.97 63.1926 284.97 65.16 283.836L138.014 241.773C138.418 241.539 138.66 241.121 138.66 240.654C138.66 240.186 138.418 239.768 138.014 239.534L92.5921 213.309ZM61.9062 285.508C60.6229 285.508 59.3592 285.172 58.2539 284.533L16.0832 260.185C15.425 259.804 15.0332 259.126 15.0332 258.366C15.0332 257.608 15.425 256.93 16.0832 256.55L92.5892 212.379L93.1431 212.699L138.413 238.836C139.07 239.216 139.462 239.894 139.462 240.654C139.462 241.412 139.07 242.091 138.413 242.471L65.5599 284.533C64.4533 285.172 63.1896 285.508 61.9062 285.508Z"
    fill="#1CC8EE"
  />
  <path
    fill-rule="evenodd"
    clip-rule="evenodd"
    d="M92.9105 198.253L11.793 245.087C11.1667 245.449 10.63 245.24 10.5207 244.591L0.290594 183.895C0.172697 183.205 0.677447 182.219 1.34308 181.835L82.4606 135.002C83.0869 134.64 83.6236 134.849 83.7329 135.497L93.9642 196.192C94.0809 196.883 93.5761 197.87 92.9105 198.253Z"
    fill="url(#paint5_linear_2635_1744)"
  />
  <path
    fill-rule="evenodd"
    clip-rule="evenodd"
    d="M143.213 227.717L62.9209 274.074C62.0416 274.581 60.7127 274.637 59.9513 274.198L12.0368 246.534C11.2766 246.095 11.3712 245.328 12.2505 244.821L92.544 198.463C93.4221 197.956 94.7521 197.901 95.5135 198.339L143.427 226.002C144.187 226.442 144.092 227.21 143.213 227.717Z"
    fill="url(#paint6_linear_2635_1744)"
  />
  <path
    fill-rule="evenodd"
    clip-rule="evenodd"
    d="M24.5334 243.944L91.2575 205.42C91.7021 205.164 92.2498 205.164 92.6944 205.422L116.455 219.168C116.796 219.366 116.795 219.858 116.455 220.056L49.7611 258.559C49.3178 258.816 48.77 258.816 48.3255 258.559L24.5334 244.831C24.192 244.634 24.192 244.14 24.5334 243.944Z"
    fill="url(#paint7_linear_2635_1744)"
  />
  <path
    fill-rule="evenodd"
    clip-rule="evenodd"
    d="M24.5334 244.831L24.7729 244.969L91.2575 206.583C91.7021 206.326 92.2498 206.326 92.6944 206.584L116.215 220.193L116.455 220.055C116.795 219.858 116.796 219.366 116.455 219.169L92.6944 205.421C92.2498 205.163 91.7021 205.163 91.2575 205.42L24.5334 243.943C24.192 244.141 24.192 244.633 24.5334 244.831Z"
    fill="#2A00A2"
  />
  <path
    fill-rule="evenodd"
    clip-rule="evenodd"
    d="M94.483 208.903L36.5251 242.365L33.9473 240.877L91.9064 207.415L94.483 208.903ZM100.799 212.55L46.4359 243.938L43.8594 242.45L98.2226 211.063L100.799 212.55ZM40.9047 251.881L104.911 214.926L102.335 213.439L38.3282 250.392L40.9047 251.881ZM109.026 217.302L45.02 254.257L42.4435 252.768L106.45 215.815L109.026 217.302ZM49.1364 256.633L113.143 219.678L110.565 218.191L46.5586 255.144L49.1364 256.633ZM33.0215 244.387L30.445 245.875L27.8672 244.387L30.4437 242.899L33.0215 244.387ZM36.7633 249.523L42.1117 246.435L39.5352 244.946L34.1855 248.035L36.7633 249.523Z"
    fill="url(#paint8_linear_2635_1744)"
  />
  <path
    fill-rule="evenodd"
    clip-rule="evenodd"
    d="M93.8221 253.266L111.813 242.879C112.516 242.473 112.516 241.815 111.813 241.409L99.5107 234.306C98.807 233.899 97.6673 233.899 96.9648 234.306L78.9731 244.694C78.2694 245.099 78.2694 245.757 78.9731 246.163L91.2762 253.266C91.9787 253.671 93.1184 253.671 93.8221 253.266Z"
    fill="url(#paint9_linear_2635_1744)"
  />
  <path
    fill-rule="evenodd"
    clip-rule="evenodd"
    d="M78.9743 245.294L96.9648 234.907C97.6685 234.501 98.8082 234.501 99.5119 234.907L111.814 242.01C112.031 242.135 112.174 242.286 112.256 242.445C112.441 242.09 112.3 241.688 111.814 241.408L99.5119 234.306C98.8082 233.9 97.6685 233.9 96.9648 234.306L78.9743 244.694C78.488 244.974 78.3455 245.373 78.5322 245.729C78.6157 245.57 78.7569 245.421 78.9743 245.294Z"
    fill="#2A00A2"
  />
  <path
    fill-rule="evenodd"
    clip-rule="evenodd"
    d="M32.6504 219.388L38.9764 215.731L39.1618 216.829L32.8358 220.487L32.6504 219.388Z"
    fill="#1CC8EE"
  />
  <path
    fill-rule="evenodd"
    clip-rule="evenodd"
    d="M39.9922 215.148L43.4395 213.156L43.6249 214.254L40.1776 216.247L39.9922 215.148Z"
    fill="#1CC8EE"
  />
  <path
    fill-rule="evenodd"
    clip-rule="evenodd"
    d="M48.8047 210.06L51.299 208.619L51.4844 209.718L48.9901 211.16L48.8047 210.06Z"
    fill="#1CC8EE"
  />
  <path
    fill-rule="evenodd"
    clip-rule="evenodd"
    d="M46.9858 211.111L47.8381 210.62L48.0236 211.716L47.1712 212.21L46.9858 211.111Z"
    fill="#1CC8EE"
  />
  <path
    fill-rule="evenodd"
    clip-rule="evenodd"
    d="M44.4707 212.565L46.0181 211.669L46.2048 212.768L44.6561 213.664L44.4707 212.565Z"
    fill="#1CC8EE"
  />
  <path
    fill-rule="evenodd"
    clip-rule="evenodd"
    d="M37.6523 210.986L40.1466 209.545L40.3321 210.644L37.8378 212.086L37.6523 210.986Z"
    fill="#1CC8EE"
  />
  <path
    fill-rule="evenodd"
    clip-rule="evenodd"
    d="M31.8047 214.368L36.6913 211.545L36.8768 212.644L31.9901 215.468L31.8047 214.368Z"
    fill="#ED2E39"
  />
  <path
    fill-rule="evenodd"
    clip-rule="evenodd"
    d="M38.8125 196.566L43.6991 193.741L43.8846 194.84L38.9979 197.665L38.8125 196.566Z"
    fill="white"
  />
  <path
    fill-rule="evenodd"
    clip-rule="evenodd"
    d="M36.2988 198.019L37.8462 197.124L38.0317 198.223L36.4843 199.118L36.2988 198.019Z"
    fill="#1CC8EE"
  />
  <path
    fill-rule="evenodd"
    clip-rule="evenodd"
    d="M39.6211 201.591L44.5077 198.767L44.6932 199.867L39.8065 202.69L39.6211 201.591Z"
    fill="#ED2E39"
  />
  <path
    fill-rule="evenodd"
    clip-rule="evenodd"
    d="M37.1055 203.044L38.6529 202.149L38.8383 203.248L37.2909 204.144L37.1055 203.044Z"
    fill="#1CC8EE"
  />
  <path
    fill-rule="evenodd"
    clip-rule="evenodd"
    d="M35.2006 174.879L25.9948 180.199L25.8105 179.101L35.0152 173.78L35.2006 174.879Z"
    fill="#1CC8EE"
  />
  <path
    fill-rule="evenodd"
    clip-rule="evenodd"
    d="M38.4499 173.004L36.173 174.32L35.9863 173.221L38.2645 171.905L38.4499 173.004Z"
    fill="#1CC8EE"
  />
  <path
    fill-rule="evenodd"
    clip-rule="evenodd"
    d="M54.6206 171.936L45.4147 177.257L45.2305 176.159L54.4351 170.837L54.6206 171.936Z"
    fill="white"
  />
  <path
    fill-rule="evenodd"
    clip-rule="evenodd"
    d="M57.862 170.061L55.5851 171.378L55.3984 170.279L57.6766 168.962L57.862 170.061Z"
    fill="#1CC8EE"
  />
  <path
    fill-rule="evenodd"
    clip-rule="evenodd"
    d="M28.918 181.267L26.4237 182.708L26.2383 181.609L28.7326 180.167L28.918 181.267Z"
    fill="#1CC8EE"
  />
  <path
    fill-rule="evenodd"
    clip-rule="evenodd"
    d="M44.0879 178.012L41.5936 179.454L41.4082 178.355L43.9025 176.913L44.0879 178.012Z"
    fill="#1CC8EE"
  />
  <path
    fill-rule="evenodd"
    clip-rule="evenodd"
    d="M34.7654 177.884L29.8788 180.709L29.6934 179.609L34.58 176.785L34.7654 177.884Z"
    fill="#1CC8EE"
  />
  <path
    fill-rule="evenodd"
    clip-rule="evenodd"
    d="M37.2829 176.431L35.7355 177.326L35.5488 176.227L37.0975 175.332L37.2829 176.431Z"
    fill="#1CC8EE"
  />
  <path
    fill-rule="evenodd"
    clip-rule="evenodd"
    d="M43.1775 173.028L38.2909 175.853L38.1055 174.753L42.9921 171.929L43.1775 173.028Z"
    fill="#1CC8EE"
  />
  <path
    fill-rule="evenodd"
    clip-rule="evenodd"
    d="M45.6918 171.575L44.1444 172.47L43.959 171.371L45.5064 170.476L45.6918 171.575Z"
    fill="#1CC8EE"
  />
  <path
    fill-rule="evenodd"
    clip-rule="evenodd"
    d="M43.6621 175.501L41.1679 176.943L40.9824 175.844L43.4767 174.404L43.6621 175.501Z"
    fill="#1CC8EE"
  />
  <path
    fill-rule="evenodd"
    clip-rule="evenodd"
    d="M49.5193 172.119L44.6327 174.943L44.4473 173.844L49.3339 171.02L49.5193 172.119Z"
    fill="#1CC8EE"
  />
  <path
    fill-rule="evenodd"
    clip-rule="evenodd"
    d="M52.0278 170.666L50.4804 171.561L50.2949 170.462L51.8423 169.567L52.0278 170.666Z"
    fill="#1CC8EE"
  />
  <path
    fill-rule="evenodd"
    clip-rule="evenodd"
    d="M31.9445 182.268L26.8417 185.218L26.6562 184.119L31.759 181.169L31.9445 182.268Z"
    fill="#1CC8EE"
  />
  <path
    fill-rule="evenodd"
    clip-rule="evenodd"
    d="M36.6044 179.577L32.9152 181.71L32.7285 180.611L36.419 178.478L36.6044 179.577Z"
    fill="#1CC8EE"
  />
  <path
    fill-rule="evenodd"
    clip-rule="evenodd"
    d="M40.0645 177.577L37.5702 179.019L37.3848 177.92L39.879 176.478L40.0645 177.577Z"
    fill="#1CC8EE"
  />
  <path
    fill-rule="evenodd"
    clip-rule="evenodd"
    d="M64.2452 166.382L59.1425 169.331L58.957 168.233L64.0598 165.283L64.2452 166.382Z"
    fill="#1CC8EE"
  />
  <path
    fill-rule="evenodd"
    clip-rule="evenodd"
    d="M68.9071 163.691L65.2167 165.823L65.0312 164.725L68.7217 162.592L68.9071 163.691Z"
    fill="white"
  />
  <path
    fill-rule="evenodd"
    clip-rule="evenodd"
    d="M72.3672 161.691L69.8742 163.132L69.6875 162.033L72.1818 160.592L72.3672 161.691Z"
    fill="#1CC8EE"
  />
  <path
    fill-rule="evenodd"
    clip-rule="evenodd"
    d="M62.2539 199.539L67.3567 196.59L67.5421 197.687L62.4393 200.637L62.2539 199.539Z"
    fill="#1CC8EE"
  />
  <path
    fill-rule="evenodd"
    clip-rule="evenodd"
    d="M57.5957 202.23L61.2849 200.097L61.4716 201.195L57.7811 203.329L57.5957 202.23Z"
    fill="#1CC8EE"
  />
  <path
    fill-rule="evenodd"
    clip-rule="evenodd"
    d="M54.1387 204.229L56.633 202.788L56.8184 203.887L54.3241 205.328L54.1387 204.229Z"
    fill="#1CC8EE"
  />
  <path
    fill-rule="evenodd"
    clip-rule="evenodd"
    d="M60.5605 203.282L65.6633 200.333L65.8488 201.43L60.746 204.381L60.5605 203.282Z"
    fill="#1CC8EE"
  />
  <path
    fill-rule="evenodd"
    clip-rule="evenodd"
    d="M55.9043 205.973L59.5947 203.84L59.7802 204.938L56.0897 207.072L55.9043 205.973Z"
    fill="#1CC8EE"
  />
  <path
    fill-rule="evenodd"
    clip-rule="evenodd"
    d="M52.4473 207.972L54.9415 206.532L55.127 207.63L52.6327 209.072L52.4473 207.972Z"
    fill="#1CC8EE"
  />
  <path
    fill-rule="evenodd"
    clip-rule="evenodd"
    d="M39.9609 198.64L41.6852 197.644L41.8706 198.744L40.1464 199.74L39.9609 198.64Z"
    fill="#1CC8EE"
  />
  <path
    fill-rule="evenodd"
    clip-rule="evenodd"
    d="M36.7129 200.516L38.991 199.2L39.1765 200.298L36.8983 201.615L36.7129 200.516Z"
    fill="#1CC8EE"
  />
  <path
    fill-rule="evenodd"
    clip-rule="evenodd"
    d="M32.3995 184.762L27.2968 187.711L27.1113 186.614L32.2141 183.664L32.3995 184.762Z"
    fill="#1CC8EE"
  />
  <path
    fill-rule="evenodd"
    clip-rule="evenodd"
    d="M37.0614 182.071L33.371 184.205L33.1855 183.105L36.876 180.972L37.0614 182.071Z"
    fill="white"
  />
  <path
    fill-rule="evenodd"
    clip-rule="evenodd"
    d="M40.5196 180.071L38.0253 181.512L37.8398 180.414L40.3341 178.972L40.5196 180.071Z"
    fill="#1CC8EE"
  />
  <path
    fill-rule="evenodd"
    clip-rule="evenodd"
    d="M29.4534 189.225L27.7304 190.222L27.5449 189.123L29.268 188.125L29.4534 189.225Z"
    fill="#1CC8EE"
  />
  <path
    fill-rule="evenodd"
    clip-rule="evenodd"
    d="M32.6921 187.35L30.4152 188.666L30.2285 187.568L32.5066 186.251L32.6921 187.35Z"
    fill="white"
  />
  <path
    fill-rule="evenodd"
    clip-rule="evenodd"
    d="M37.3296 184.671L33.6601 186.792L33.4746 185.693L37.1442 183.572L37.3296 184.671Z"
    fill="#1CC8EE"
  />
  <path
    fill-rule="evenodd"
    clip-rule="evenodd"
    d="M42.3066 205.559L44.0297 204.563L44.2151 205.663L42.4921 206.659L42.3066 205.559Z"
    fill="#1CC8EE"
  />
  <path
    fill-rule="evenodd"
    clip-rule="evenodd"
    d="M39.0605 207.435L41.3387 206.119L41.5241 207.217L39.246 208.534L39.0605 207.435Z"
    fill="#1CC8EE"
  />
  <path
    fill-rule="evenodd"
    clip-rule="evenodd"
    d="M34.4238 210.114L38.0934 207.992L38.2788 209.091L34.6093 211.214L34.4238 210.114Z"
    fill="#1CC8EE"
  />
  <path
    fill-rule="evenodd"
    clip-rule="evenodd"
    d="M44.9316 201.485L48.6012 199.364L48.7867 200.464L45.1171 202.584L44.9316 201.485Z"
    fill="#1CC8EE"
  />
  <path
    fill-rule="evenodd"
    clip-rule="evenodd"
    d="M38.9238 204.758L43.8706 201.899L44.0561 202.997L39.1093 205.857L38.9238 204.758Z"
    fill="#1CC8EE"
  />
  <path
    fill-rule="evenodd"
    clip-rule="evenodd"
    d="M36.4121 206.211L37.9595 205.317L38.145 206.415L36.5976 207.31L36.4121 206.211Z"
    fill="#1CC8EE"
  />
  <path
    fill-rule="evenodd"
    clip-rule="evenodd"
    d="M34.0039 207.605L35.5513 206.71L35.738 207.809L34.1893 208.705L34.0039 207.605Z"
    fill="#1CC8EE"
  />
  <path
    fill-rule="evenodd"
    clip-rule="evenodd"
    d="M34.3301 193.427L39.2167 190.602L39.4021 191.702L34.5155 194.526L34.3301 193.427Z"
    fill="#1CC8EE"
  />
  <path
    fill-rule="evenodd"
    clip-rule="evenodd"
    d="M31.8145 194.879L33.3619 193.984L33.5473 195.083L31.9999 195.979L31.8145 194.879Z"
    fill="#1CC8EE"
  />
  <path
    fill-rule="evenodd"
    clip-rule="evenodd"
    d="M34.6641 190.476L36.3871 189.48L36.5725 190.579L34.8495 191.575L34.6641 190.476Z"
    fill="#1CC8EE"
  />
  <path
    fill-rule="evenodd"
    clip-rule="evenodd"
    d="M40.7539 192.487L42.4769 191.49L42.6624 192.589L40.9393 193.586L40.7539 192.487Z"
    fill="#1CC8EE"
  />
  <path
    fill-rule="evenodd"
    clip-rule="evenodd"
    d="M43.2051 191.068L47.3413 188.681L47.5268 189.777L43.3905 192.167L43.2051 191.068Z"
    fill="#1CC8EE"
  />
  <path
    fill-rule="evenodd"
    clip-rule="evenodd"
    d="M48.0762 188.257L50.5361 186.836L50.7215 187.934L48.2616 189.356L48.0762 188.257Z"
    fill="#1CC8EE"
  />
  <path
    fill-rule="evenodd"
    clip-rule="evenodd"
    d="M31.4277 192.351L33.7046 191.035L33.8901 192.133L31.6132 193.45L31.4277 192.351Z"
    fill="#1CC8EE"
  />
  <path
    fill-rule="evenodd"
    clip-rule="evenodd"
    d="M31.2109 189.773L32.934 188.777L33.1194 189.875L31.3964 190.872L31.2109 189.773Z"
    fill="#1CC8EE"
  />
  <path
    fill-rule="evenodd"
    clip-rule="evenodd"
    d="M27.9609 191.649L30.2378 190.332L30.4233 191.43L28.1464 192.746L27.9609 191.649Z"
    fill="#1CC8EE"
  />
  <path
    fill-rule="evenodd"
    clip-rule="evenodd"
    d="M38.2461 193.93L39.7935 193.036L39.9802 194.133L38.4315 195.029L38.2461 193.93Z"
    fill="#1CC8EE"
  />
  <path
    fill-rule="evenodd"
    clip-rule="evenodd"
    d="M35.8418 195.324L37.3904 194.429L37.5759 195.528L36.0272 196.424L35.8418 195.324Z"
    fill="#1CC8EE"
  />
  <path
    fill-rule="evenodd"
    clip-rule="evenodd"
    d="M47.7305 207.935L53.0101 204.885L53.1955 205.983L47.9159 209.034L47.7305 207.935Z"
    fill="#1CC8EE"
  />
  <path
    fill-rule="evenodd"
    clip-rule="evenodd"
    d="M41.8125 211.353L46.7593 208.494L46.9447 209.592L41.9979 212.452L41.8125 211.353Z"
    fill="#1CC8EE"
  />
  <path
    fill-rule="evenodd"
    clip-rule="evenodd"
    d="M39.3008 212.807L40.8482 211.912L41.0336 213.01L39.4862 213.905L39.3008 212.807Z"
    fill="white"
  />
  <path
    fill-rule="evenodd"
    clip-rule="evenodd"
    d="M36.8867 214.201L38.4341 213.305L38.6208 214.404L37.0722 215.3L36.8867 214.201Z"
    fill="#FF0000"
  />
  <path
    fill-rule="evenodd"
    clip-rule="evenodd"
    d="M35.5697 214.963L32.2305 216.893L32.4159 217.992L35.7551 216.062L35.5697 214.963Z"
    fill="#FF0000"
  />
  <path
    fill-rule="evenodd"
    clip-rule="evenodd"
    d="M198.422 338.962C197.363 338.962 196.304 338.69 195.361 338.144L104.357 285.604C103.748 285.252 103.385 284.622 103.385 283.92C103.385 283.215 103.748 282.586 104.357 282.235L184.338 236.058L184.739 236.756L104.759 282.932C104.403 283.139 104.19 283.507 104.19 283.92C104.19 284.331 104.403 284.698 104.759 284.905L195.764 337.447C197.403 338.394 199.44 338.394 201.078 337.447L248.24 310.218L248.642 310.916L201.481 338.144C200.538 338.688 199.479 338.962 198.422 338.962Z"
    fill="#1CC8EE"
  />
  <path
    fill-rule="evenodd"
    clip-rule="evenodd"
    d="M167.129 320.067C165.637 320.939 165.134 322.857 166.006 324.348C166.878 325.842 168.795 326.345 170.289 325.472C171.781 324.6 172.284 322.682 171.411 321.188C170.829 320.194 169.783 319.638 168.707 319.638C168.17 319.638 167.626 319.776 167.129 320.067Z"
    fill="#1CC8EE"
  />
  <path
    d="M167.129 320.067C165.637 320.939 165.134 322.857 166.006 324.348V324.348C166.878 325.842 168.795 326.345 170.289 325.472V325.472C171.781 324.6 172.284 322.682 171.411 321.188V321.188C170.829 320.194 169.783 319.638 168.707 319.638V319.638C168.17 319.638 167.626 319.776 167.129 320.067"
    stroke="white"
    stroke-width="2"
  />
  <path
    fill-rule="evenodd"
    clip-rule="evenodd"
    d="M229.478 316.821C227.986 317.695 227.484 319.613 228.356 321.105C229.228 322.597 231.145 323.099 232.638 322.226C234.13 321.354 234.634 319.437 233.761 317.944C233.179 316.949 232.131 316.394 231.055 316.394C230.519 316.394 229.974 316.531 229.478 316.821Z"
    fill="#1CC8EE"
  />
  <path
    d="M229.478 316.821C227.986 317.695 227.484 319.613 228.356 321.105V321.105C229.228 322.597 231.145 323.099 232.638 322.226V322.226C234.13 321.354 234.634 319.437 233.761 317.944V317.944C233.179 316.949 232.131 316.394 231.055 316.394V316.394C230.519 316.394 229.974 316.531 229.478 316.821"
    stroke="white"
    stroke-width="2"
  />
  <path
    fill-rule="evenodd"
    clip-rule="evenodd"
    d="M142.592 305.604C141.1 306.478 140.596 308.395 141.47 309.888C142.342 311.38 144.259 311.881 145.752 311.01C147.244 310.137 147.748 308.22 146.875 306.727C146.292 305.732 145.245 305.176 144.169 305.176C143.632 305.176 143.09 305.313 142.592 305.604Z"
    fill="#1CC8EE"
  />
  <path
    d="M142.592 305.604C141.1 306.478 140.596 308.395 141.47 309.888V309.888C142.342 311.38 144.259 311.881 145.752 311.01V311.01C147.244 310.137 147.748 308.22 146.875 306.727V306.727C146.292 305.732 145.245 305.176 144.169 305.176V305.176C143.632 305.176 143.09 305.313 142.592 305.604"
    stroke="white"
    stroke-width="2"
  />
  <path
    fill-rule="evenodd"
    clip-rule="evenodd"
    d="M119.078 292.163C117.586 293.035 117.083 294.954 117.956 296.445C118.828 297.938 120.746 298.44 122.238 297.567C123.731 296.695 124.233 294.778 123.361 293.286C122.779 292.29 121.732 291.735 120.657 291.735C120.12 291.735 119.576 291.874 119.078 292.163Z"
    fill="#1CC8EE"
  />
  <path
    d="M119.078 292.163C117.586 293.035 117.083 294.954 117.956 296.445V296.445C118.828 297.938 120.746 298.44 122.238 297.567V297.567C123.731 296.695 124.233 294.778 123.361 293.286V293.286C122.779 292.29 121.732 291.735 120.657 291.735V291.735C120.12 291.735 119.576 291.874 119.078 292.163"
    stroke="white"
    stroke-width="2"
  />
  <path
    fill-rule="evenodd"
    clip-rule="evenodd"
    d="M146.735 253.26C145.243 254.133 144.739 256.051 145.611 257.542C146.485 259.036 148.402 259.538 149.895 258.665C151.387 257.793 151.889 255.876 151.017 254.384C150.435 253.388 149.388 252.833 148.312 252.833C147.775 252.833 147.231 252.97 146.735 253.26Z"
    fill="#28D486"
  />
  <path
    d="M146.735 253.26C145.243 254.133 144.739 256.051 145.611 257.542V257.542C146.485 259.036 148.402 259.538 149.895 258.665V258.665C151.387 257.793 151.889 255.876 151.017 254.384V254.384C150.435 253.388 149.388 252.833 148.312 252.833V252.833C147.775 252.833 147.231 252.97 146.735 253.26"
    stroke="#6BEEB3"
    stroke-opacity="0.247241"
    stroke-width="6"
  />
  <path
    d="M146.735 253.26C145.243 254.133 144.739 256.051 145.611 257.542V257.542C146.485 259.036 148.402 259.538 149.895 258.665V258.665C151.387 257.793 151.889 255.876 151.017 254.384V254.384C150.435 253.388 149.388 252.833 148.312 252.833V252.833C147.775 252.833 147.231 252.97 146.735 253.26"
    stroke="white"
    stroke-width="6"
  />
  <path
    fill-rule="evenodd"
    clip-rule="evenodd"
    d="M169.187 241.131C167.695 242.004 167.193 243.921 168.065 245.414C168.938 246.907 170.854 247.409 172.347 246.536C173.839 245.663 174.343 243.748 173.471 242.255C172.888 241.259 171.84 240.703 170.763 240.702C170.228 240.702 169.683 240.841 169.187 241.131Z"
    fill="#1CC8EE"
  />
  <path
    d="M169.187 241.131C167.695 242.004 167.193 243.921 168.065 245.414V245.414C168.938 246.907 170.854 247.409 172.347 246.536V246.536C173.839 245.663 174.343 243.748 173.471 242.255V242.255C172.888 241.259 171.84 240.703 170.763 240.702V240.702C170.228 240.702 169.683 240.841 169.187 241.131"
    stroke="white"
    stroke-width="2"
  />
  <path
    fill-rule="evenodd"
    clip-rule="evenodd"
    d="M299.054 144.618L215.178 96.1928L299.05 47.7687L382.926 96.1941L299.054 144.618Z"
    fill="url(#paint10_linear_2635_1744)"
  />
  <path
    opacity="0.22819"
    fill-rule="evenodd"
    clip-rule="evenodd"
    d="M299.05 140.257L222.729 96.1938L299.048 52.1307L375.368 96.1951L299.05 140.257Z"
    fill="#5F2EEA"
  />
  <path
    fill-rule="evenodd"
    clip-rule="evenodd"
    d="M382.923 96.1945V282.075L299.051 330.499V144.619L382.923 96.1945Z"
    fill="url(#paint11_linear_2635_1744)"
  />
  <path
    fill-rule="evenodd"
    clip-rule="evenodd"
    d="M215.178 96.1927V282.074L299.054 330.499V144.618L215.178 96.1927Z"
    fill="url(#paint12_linear_2635_1744)"
  />
  <path
    fill-rule="evenodd"
    clip-rule="evenodd"
    d="M220.865 108.525V275.602L293.376 317.466V150.39L220.865 108.525Z"
    fill="url(#paint13_linear_2635_1744)"
  />
  <path
    fill-rule="evenodd"
    clip-rule="evenodd"
    d="M370.347 146.017V141.105L311.637 175.002V179.915L370.347 146.017ZM370.347 166.792V161.878L311.637 195.775V200.689L370.347 166.792ZM370.347 182.652V187.565L311.637 221.461V216.549L370.347 182.652ZM370.347 208.339V203.426L311.637 237.323V242.237L370.347 208.339ZM370.347 224.2V229.113L311.637 263.01V258.097L370.347 224.2ZM370.347 249.887V244.973L311.637 278.87V283.784L370.347 249.887Z"
    fill="#2A00A2"
  />
  <path
    fill-rule="evenodd"
    clip-rule="evenodd"
    d="M215.178 252.698L299.052 202.057L299.054 144.619L215.178 96.1921V252.698Z"
    fill="url(#paint14_linear_2635_1744)"
  />
  <path
    fill-rule="evenodd"
    clip-rule="evenodd"
    d="M229.545 167.695L239.984 173.723L239.985 171.912L229.546 165.884L229.545 167.695Z"
    fill="#1CC8EE"
  />
  <path
    fill-rule="evenodd"
    clip-rule="evenodd"
    d="M241.658 174.685L247.346 177.969L247.348 176.158L241.659 172.874L241.658 174.685Z"
    fill="#1CC8EE"
  />
  <path
    fill-rule="evenodd"
    clip-rule="evenodd"
    d="M256.188 183.072L260.303 185.447L260.304 183.636L256.189 181.26L256.188 183.072Z"
    fill="#1CC8EE"
  />
  <path
    fill-rule="evenodd"
    clip-rule="evenodd"
    d="M253.188 181.339L254.594 182.151L254.595 180.341L253.189 179.528L253.188 181.339Z"
    fill="#1CC8EE"
  />
  <path
    fill-rule="evenodd"
    clip-rule="evenodd"
    d="M249.045 178.943L251.599 180.418L251.601 178.607L249.046 177.132L249.045 178.943Z"
    fill="#1CC8EE"
  />
  <path
    fill-rule="evenodd"
    clip-rule="evenodd"
    d="M239.184 181.548L243.299 183.924L243.301 182.113L239.185 179.736L239.184 181.548Z"
    fill="#1CC8EE"
  />
  <path
    fill-rule="evenodd"
    clip-rule="evenodd"
    d="M229.527 175.971L237.59 180.627L237.591 178.816L229.529 174.16L229.527 175.971Z"
    fill="#F3F3F3"
  />
  <path
    fill-rule="evenodd"
    clip-rule="evenodd"
    d="M244.562 205.325L252.625 209.981L252.626 208.168L244.564 203.512L244.562 205.325Z"
    fill="#F3F3F3"
  />
  <path
    fill-rule="evenodd"
    clip-rule="evenodd"
    d="M240.412 202.93L242.965 204.404L242.968 202.593L240.413 201.117L240.412 202.93Z"
    fill="#1CC8EE"
  />
  <path
    fill-rule="evenodd"
    clip-rule="evenodd"
    d="M244.516 197.037L252.578 201.693L252.581 199.882L244.517 195.226L244.516 197.037Z"
    fill="#F3F3F3"
  />
  <path
    fill-rule="evenodd"
    clip-rule="evenodd"
    d="M240.373 194.642L242.926 196.117L242.929 194.306L240.374 192.831L240.373 194.642Z"
    fill="#1CC8EE"
  />
  <path
    fill-rule="evenodd"
    clip-rule="evenodd"
    d="M244.612 241.085L229.423 232.314L229.422 234.125L244.611 242.896L244.612 241.085Z"
    fill="#1CC8EE"
  />
  <path
    fill-rule="evenodd"
    clip-rule="evenodd"
    d="M249.962 244.175L246.204 242.005L246.201 243.817L249.96 245.987L249.962 244.175Z"
    fill="#1CC8EE"
  />
  <path
    fill-rule="evenodd"
    clip-rule="evenodd"
    d="M274.562 245.931L259.374 237.161L259.371 238.973L274.56 247.743L274.562 245.931Z"
    fill="#F3F3F3"
  />
  <path
    fill-rule="evenodd"
    clip-rule="evenodd"
    d="M279.921 249.022L276.163 246.852L276.16 248.663L279.919 250.833L279.921 249.022Z"
    fill="#1CC8EE"
  />
  <path
    fill-rule="evenodd"
    clip-rule="evenodd"
    d="M233.542 230.554L229.427 228.176L229.426 229.989L233.541 232.365L233.542 230.554Z"
    fill="#1CC8EE"
  />
  <path
    fill-rule="evenodd"
    clip-rule="evenodd"
    d="M257.187 235.916L253.072 233.54L253.07 235.351L257.186 237.727L257.187 235.916Z"
    fill="#1CC8EE"
  />
  <path
    fill-rule="evenodd"
    clip-rule="evenodd"
    d="M243.202 236.129L235.139 231.474L235.137 233.286L243.2 237.941L243.202 236.129Z"
    fill="#1CC8EE"
  />
  <path
    fill-rule="evenodd"
    clip-rule="evenodd"
    d="M247.351 238.524L244.796 237.051L244.795 238.861L247.348 240.337L247.351 238.524Z"
    fill="#1CC8EE"
  />
  <path
    fill-rule="evenodd"
    clip-rule="evenodd"
    d="M257.075 244.135L249.013 239.479L249.012 241.29L257.074 245.946L257.075 244.135Z"
    fill="#1CC8EE"
  />
  <path
    fill-rule="evenodd"
    clip-rule="evenodd"
    d="M261.222 246.53L258.668 245.055L258.666 246.865L261.22 248.341L261.222 246.53Z"
    fill="#1CC8EE"
  />
  <path
    fill-rule="evenodd"
    clip-rule="evenodd"
    d="M257.179 240.056L253.064 237.678L253.062 239.491L257.178 241.867L257.179 240.056Z"
    fill="#1CC8EE"
  />
  <path
    fill-rule="evenodd"
    clip-rule="evenodd"
    d="M266.835 245.632L258.773 240.976L258.771 242.788L266.834 247.443L266.835 245.632Z"
    fill="#1CC8EE"
  />
  <path
    fill-rule="evenodd"
    clip-rule="evenodd"
    d="M270.987 248.027L268.433 246.553L268.432 248.363L270.986 249.839L270.987 248.027Z"
    fill="#1CC8EE"
  />
  <path
    fill-rule="evenodd"
    clip-rule="evenodd"
    d="M237.851 228.901L229.431 224.04L229.43 225.852L237.85 230.712L237.851 228.901Z"
    fill="#ED2E39"
  />
  <path
    fill-rule="evenodd"
    clip-rule="evenodd"
    d="M245.539 233.337L239.45 229.822L239.449 231.633L245.538 235.15L245.539 233.337Z"
    fill="#1CC8EE"
  />
  <path
    fill-rule="evenodd"
    clip-rule="evenodd"
    d="M251.239 236.634L247.124 234.258L247.121 236.069L251.238 238.447L251.239 236.634Z"
    fill="#1CC8EE"
  />
  <path
    fill-rule="evenodd"
    clip-rule="evenodd"
    d="M279.084 200.417L287.504 205.279L287.505 203.468L279.085 198.606L279.084 200.417Z"
    fill="#F3F3F3"
  />
  <path
    fill-rule="evenodd"
    clip-rule="evenodd"
    d="M271.398 195.981L277.487 199.497L277.489 197.686L271.4 194.169L271.398 195.981Z"
    fill="#1CC8EE"
  />
  <path
    fill-rule="evenodd"
    clip-rule="evenodd"
    d="M265.688 192.684L269.803 195.06L269.804 193.249L265.689 190.872L265.688 192.684Z"
    fill="#F3F3F3"
  />
  <path
    fill-rule="evenodd"
    clip-rule="evenodd"
    d="M275.588 194.245L284.008 199.108L284.009 197.296L275.589 192.434L275.588 194.245Z"
    fill="#1CC8EE"
  />
  <path
    fill-rule="evenodd"
    clip-rule="evenodd"
    d="M267.904 189.809L273.993 193.325L273.994 191.514L267.906 187.998L267.904 189.809Z"
    fill="#1CC8EE"
  />
  <path
    fill-rule="evenodd"
    clip-rule="evenodd"
    d="M262.195 186.512L266.311 188.889L266.312 187.077L262.197 184.701L262.195 186.512Z"
    fill="#1CC8EE"
  />
  <path
    fill-rule="evenodd"
    clip-rule="evenodd"
    d="M245.775 201.903L248.618 203.545L248.621 201.734L245.777 200.092L245.775 201.903Z"
    fill="#1CC8EE"
  />
  <path
    fill-rule="evenodd"
    clip-rule="evenodd"
    d="M240.416 198.812L244.174 200.982L244.176 199.171L240.417 197L240.416 198.812Z"
    fill="#1CC8EE"
  />
  <path
    fill-rule="evenodd"
    clip-rule="evenodd"
    d="M237.911 224.789L229.491 219.926L229.49 221.738L237.91 226.6L237.911 224.789Z"
    fill="#1CC8EE"
  />
  <path
    fill-rule="evenodd"
    clip-rule="evenodd"
    d="M245.59 229.225L239.501 225.709L239.5 227.52L245.589 231.036L245.59 229.225Z"
    fill="#1CC8EE"
  />
  <path
    fill-rule="evenodd"
    clip-rule="evenodd"
    d="M251.3 232.522L247.185 230.145L247.184 231.957L251.299 234.333L251.3 232.522Z"
    fill="#1CC8EE"
  />
  <path
    fill-rule="evenodd"
    clip-rule="evenodd"
    d="M232.338 217.431L229.495 215.789L229.492 217.6L232.336 219.243L232.338 217.431Z"
    fill="#1CC8EE"
  />
  <path
    fill-rule="evenodd"
    clip-rule="evenodd"
    d="M237.687 220.523L233.929 218.351L233.928 220.164L237.686 222.334L237.687 220.523Z"
    fill="#ED2E39"
  />
  <path
    fill-rule="evenodd"
    clip-rule="evenodd"
    d="M245.34 224.94L239.284 221.442L239.283 223.255L245.339 226.751L245.34 224.94Z"
    fill="#1CC8EE"
  />
  <path
    fill-rule="evenodd"
    clip-rule="evenodd"
    d="M247.551 190.494L250.394 192.136L250.396 190.325L247.552 188.683L247.551 190.494Z"
    fill="#1CC8EE"
  />
  <path
    fill-rule="evenodd"
    clip-rule="evenodd"
    d="M242.199 187.403L245.957 189.573L245.96 187.762L242.2 185.592L242.199 187.403Z"
    fill="#1CC8EE"
  />
  <path
    fill-rule="evenodd"
    clip-rule="evenodd"
    d="M234.545 182.986L240.601 186.483L240.602 184.671L234.546 181.175L234.545 182.986Z"
    fill="#1CC8EE"
  />
  <path
    fill-rule="evenodd"
    clip-rule="evenodd"
    d="M252.523 197.21L258.578 200.707L258.58 198.895L252.525 195.399L252.523 197.21Z"
    fill="#1CC8EE"
  />
  <path
    fill-rule="evenodd"
    clip-rule="evenodd"
    d="M242.674 191.817L250.836 196.529L250.837 194.718L242.675 190.005L242.674 191.817Z"
    fill="#1CC8EE"
  />
  <path
    fill-rule="evenodd"
    clip-rule="evenodd"
    d="M238.529 189.422L241.084 190.896L241.085 189.085L238.531 187.61L238.529 189.422Z"
    fill="#1CC8EE"
  />
  <path
    fill-rule="evenodd"
    clip-rule="evenodd"
    d="M234.541 187.123L237.095 188.596L237.097 186.786L234.542 185.311L234.541 187.123Z"
    fill="#1CC8EE"
  />
  <path
    fill-rule="evenodd"
    clip-rule="evenodd"
    d="M238.623 210.502L246.686 215.157L246.688 213.345L238.624 208.69L238.623 210.502Z"
    fill="#1CC8EE"
  />
  <path
    fill-rule="evenodd"
    clip-rule="evenodd"
    d="M234.471 208.106L237.024 209.581L237.026 207.771L234.472 206.295L234.471 208.106Z"
    fill="#1CC8EE"
  />
  <path
    fill-rule="evenodd"
    clip-rule="evenodd"
    d="M239.871 215.367L242.714 217.009L242.717 215.197L239.872 213.555L239.871 215.367Z"
    fill="#1CC8EE"
  />
  <path
    fill-rule="evenodd"
    clip-rule="evenodd"
    d="M248.52 212.051L251.364 213.693L251.365 211.881L248.521 210.238L248.52 212.051Z"
    fill="#1CC8EE"
  />
  <path
    fill-rule="evenodd"
    clip-rule="evenodd"
    d="M252.574 214.388L259.398 218.325L259.4 216.514L252.575 212.577L252.574 214.388Z"
    fill="#1CC8EE"
  />
  <path
    fill-rule="evenodd"
    clip-rule="evenodd"
    d="M260.605 219.022L264.664 221.364L264.666 219.554L260.607 217.209L260.605 219.022Z"
    fill="#1CC8EE"
  />
  <path
    fill-rule="evenodd"
    clip-rule="evenodd"
    d="M234.52 212.276L238.278 214.446L238.28 212.635L234.521 210.465L234.52 212.276Z"
    fill="#1CC8EE"
  />
  <path
    fill-rule="evenodd"
    clip-rule="evenodd"
    d="M234.844 216.528L237.687 218.17L237.689 216.358L234.845 214.715L234.844 216.528Z"
    fill="#1CC8EE"
  />
  <path
    fill-rule="evenodd"
    clip-rule="evenodd"
    d="M229.498 213.436L233.256 215.607L233.259 213.794L229.499 211.624L229.498 213.436Z"
    fill="#1CC8EE"
  />
  <path
    fill-rule="evenodd"
    clip-rule="evenodd"
    d="M244.396 209.671L246.951 211.145L246.952 209.335L244.398 207.858L244.396 209.671Z"
    fill="#1CC8EE"
  />
  <path
    fill-rule="evenodd"
    clip-rule="evenodd"
    d="M240.406 207.372L242.961 208.846L242.962 207.036L240.407 205.561L240.406 207.372Z"
    fill="#1CC8EE"
  />
  <path
    fill-rule="evenodd"
    clip-rule="evenodd"
    d="M255.105 186.575L263.816 191.605L263.819 189.793L255.107 184.763L255.105 186.575Z"
    fill="#1CC8EE"
  />
  <path
    fill-rule="evenodd"
    clip-rule="evenodd"
    d="M245.348 180.941L253.51 185.655L253.511 183.843L245.349 179.13L245.348 180.941Z"
    fill="#1CC8EE"
  />
  <path
    fill-rule="evenodd"
    clip-rule="evenodd"
    d="M241.205 178.546L243.758 180.02L243.761 178.21L241.206 176.735L241.205 178.546Z"
    fill="#1CC8EE"
  />
  <path
    fill-rule="evenodd"
    clip-rule="evenodd"
    d="M237.221 176.247L239.775 177.722L239.776 175.911L237.222 174.436L237.221 176.247Z"
    fill="#1CC8EE"
  />
  <path
    fill-rule="evenodd"
    clip-rule="evenodd"
    d="M235.039 174.99L229.529 171.81L229.531 169.998L235.04 173.179L235.039 174.99Z"
    fill="#1CC8EE"
  />
  <path
    fill-rule="evenodd"
    clip-rule="evenodd"
    d="M299.054 108.439L215.178 60.0141L299.05 11.5912L382.926 60.0154L299.054 108.439Z"
    fill="url(#paint15_linear_2635_1744)"
  />
  <path
    fill-rule="evenodd"
    clip-rule="evenodd"
    d="M299.054 95.217L238.082 60.0146L299.052 24.8135L360.024 60.0159L299.054 95.217Z"
    fill="white"
  />
  <path
    fill-rule="evenodd"
    clip-rule="evenodd"
    d="M299.052 27.197L357.961 61.2081L360.024 60.0156L299.052 24.8132L238.082 60.0144L240.146 61.2069L299.052 27.197Z"
    fill="#2A00A2"
  />
  <path
    fill-rule="evenodd"
    clip-rule="evenodd"
    d="M382.923 60.0157V87.4651L299.051 135.888V108.44L382.923 60.0157Z"
    fill="url(#paint16_linear_2635_1744)"
  />
  <path
    fill-rule="evenodd"
    clip-rule="evenodd"
    d="M370.344 79.2505V84.1642L311.633 118.061V113.147L370.344 79.2505Z"
    fill="#2A00A2"
  />
  <path
    fill-rule="evenodd"
    clip-rule="evenodd"
    d="M215.178 60.0146V87.464L299.054 135.888V108.44L215.178 60.0146Z"
    fill="url(#paint17_linear_2635_1744)"
  />
  <path
    fill-rule="evenodd"
    clip-rule="evenodd"
    d="M229.49 80.9775L237.909 85.8384L237.908 87.6498L229.488 82.7877L229.49 80.9775ZM257.189 96.9663L253.073 94.5899L253.072 96.4014L257.188 98.7778L257.189 96.9663ZM274.56 106.982L259.372 98.2119L259.369 100.022L274.558 108.793L274.56 106.982ZM245.59 90.2752L239.501 86.7592L239.5 88.5706L245.589 92.0867L245.59 90.2752ZM247.185 91.1952L251.3 93.5716L251.299 95.383L247.184 93.0079L247.185 91.1952Z"
    fill="#1CC8EE"
  />
  <path
    fill-rule="evenodd"
    clip-rule="evenodd"
    d="M299.136 36.9001L296.473 35.3625L299.135 33.8249L301.799 35.3625L299.136 36.9001ZM304.463 39.9752L301.799 38.4376L304.463 36.9L307.126 38.4376L304.463 39.9752ZM307.129 41.5132L309.791 43.0508L312.455 41.5132L309.791 39.9756L307.129 41.5132ZM315.119 46.1259L312.455 44.5883L315.119 43.0507L317.781 44.5883L315.119 46.1259ZM317.777 47.6639L320.44 49.2015L323.104 47.6639L320.44 46.1264L317.777 47.6639ZM325.767 52.2772L323.104 50.7396L325.767 49.202L328.43 50.7396L325.767 52.2772ZM328.43 53.8147L331.093 55.3522L333.757 53.8147L331.093 52.2771L328.43 53.8147ZM336.422 58.4279L333.758 56.8903L336.42 55.3527L339.084 56.8903L336.422 58.4279ZM339.082 59.9654L341.746 61.503L344.41 59.9654L341.746 58.4278L339.082 59.9654ZM293.782 39.9877L291.119 38.4501L293.782 36.9125L296.444 38.4501L293.782 39.9877ZM296.447 41.5258L299.111 43.0633L301.774 41.5258L299.11 39.9882L296.447 41.5258ZM304.439 46.1384L301.775 44.6008L304.439 43.0632L307.103 44.6008L304.439 46.1384ZM307.102 47.6765L309.764 49.2141L312.428 47.6765L309.764 46.1389L307.102 47.6765ZM315.091 52.2891L312.428 50.7515L315.091 49.2139L317.755 50.7515L315.091 52.2891ZM317.756 53.8272L320.418 55.3648L323.082 53.8272L320.418 52.2896L317.756 53.8272ZM325.746 58.4398L323.082 56.9022L325.746 55.3646L328.408 56.9022L325.746 58.4398ZM328.408 59.9779L331.072 61.5155L333.736 59.9779L331.072 58.4403L328.408 59.9779ZM336.4 64.5911L333.736 63.0536L336.4 61.516L339.063 63.0536L336.4 64.5911ZM285.773 41.5378L288.436 43.0754L291.1 41.5378L288.436 40.0002L285.773 41.5378ZM293.762 46.151L291.1 44.6135L293.762 43.0759L296.426 44.6135L293.762 46.151ZM296.426 47.6891L299.09 49.2267L301.752 47.6891L299.088 46.1515L296.426 47.6891ZM304.418 52.3018L301.754 50.7642L304.418 49.2266L307.081 50.7642L304.418 52.3018ZM307.08 53.8398L309.743 55.3774L312.406 53.8398L309.743 52.3022L307.08 53.8398ZM315.072 58.4525L312.408 56.9149L315.072 55.3773L317.736 56.9149L315.072 58.4525ZM317.738 59.9905L320.401 61.5281L323.065 59.9905L320.401 58.453L317.738 59.9905ZM325.728 64.6032L323.064 63.0656L325.728 61.528L328.391 63.0656L325.728 64.6032ZM328.389 66.1413L331.052 67.6788L333.716 66.1413L331.052 64.6037L328.389 66.1413ZM283.088 46.1637L280.424 44.6261L283.088 43.0885L285.75 44.6261L283.088 46.1637ZM285.754 47.7012L288.418 49.2387L291.08 47.7012L288.418 46.1636L285.754 47.7012ZM293.743 52.3144L291.08 50.7768L293.743 49.2392L296.406 50.7768L293.743 52.3144ZM296.406 53.8519L299.07 55.3895L301.733 53.8519L299.07 52.3143L296.406 53.8519ZM304.4 58.4651L301.736 56.9275L304.4 55.3899L307.064 56.9275L304.4 58.4651ZM307.061 60.0026L309.723 61.5402L312.387 60.0026L309.723 58.465L307.061 60.0026ZM315.052 64.6158L312.389 63.0782L315.052 61.5407L317.716 63.0782L315.052 64.6158ZM317.719 66.1533L320.381 67.6909L323.045 66.1533L320.381 64.6157L317.719 66.1533ZM325.709 70.7665L323.045 69.229L325.709 67.6914L328.371 69.229L325.709 70.7665ZM275.078 47.7137L277.742 49.2513L280.404 47.7137L277.742 46.1761L275.078 47.7137ZM283.07 52.3269L280.406 50.7893L283.07 49.2518L285.733 50.7893L283.07 52.3269ZM285.734 53.8644L288.397 55.402L291.061 53.8644L288.397 52.3268L285.734 53.8644ZM293.727 58.4776L291.064 56.9401L293.727 55.4025L296.391 56.9401L293.727 58.4776ZM296.387 60.0151L299.05 61.5527L301.713 60.0151L299.05 58.4775L296.387 60.0151ZM304.381 64.6284L301.717 63.0908L304.381 61.5532L307.044 63.0908L304.381 64.6284ZM307.035 66.1658L309.699 67.7034L312.361 66.1658L309.698 64.6282L307.035 66.1658ZM315.029 70.7791L312.365 69.2415L315.029 67.7039L317.693 69.2415L315.029 70.7791ZM317.691 72.3165L320.354 73.8541L323.018 72.3165L320.354 70.7789L317.691 72.3165ZM272.396 52.339L269.732 50.8014L272.396 49.2638L275.059 50.8014L272.396 52.339ZM275.059 53.877L277.722 55.4146L280.385 53.877L277.722 52.3395L275.059 53.877ZM283.052 58.4897L280.389 56.9521L283.052 55.4145L285.715 56.9521L283.052 58.4897ZM285.709 60.0278L288.372 61.5653L291.035 60.0278L288.372 58.4902L285.709 60.0278ZM293.7 64.6404L291.037 63.1028L293.7 61.5652L296.363 63.1028L293.7 64.6404ZM296.363 66.1785L299.027 67.716L301.69 66.1785L299.027 64.6409L296.363 66.1785ZM304.349 70.7911L301.686 69.2535L304.349 67.7159L307.013 69.2535L304.349 70.7911ZM307.014 72.3292L309.676 73.8668L312.34 72.3292L309.676 70.7916L307.014 72.3292ZM315.008 76.9424L312.344 75.4048L315.008 73.8673L317.671 75.4048L315.008 76.9424ZM264.379 53.8896L267.041 55.4271L269.704 53.8896L267.041 52.352L264.379 53.8896ZM272.37 58.5022L269.707 56.9646L272.37 55.427L275.032 56.9646L272.37 58.5022ZM275.031 60.0403L277.695 61.5779L280.358 60.0403L277.695 58.5027L275.031 60.0403ZM283.023 64.6529L280.359 63.1153L283.023 61.5777L285.686 63.1153L283.023 64.6529ZM285.688 66.191L288.351 67.7286L291.014 66.191L288.351 64.6534L285.688 66.191ZM293.676 70.8036L291.014 69.266L293.676 67.7285L296.34 69.266L293.676 70.8036ZM296.344 72.3417L299.008 73.8793L301.67 72.3417L299.008 70.8041L296.344 72.3417ZM304.336 76.9543L301.672 75.4168L304.336 73.8792L306.999 75.4168L304.336 76.9543ZM306.994 78.4924L309.657 80.03L312.32 78.4924L309.657 76.9548L306.994 78.4924ZM261.696 58.5149L259.033 56.9773L261.696 55.4397L264.358 56.9773L261.696 58.5149ZM264.359 60.0523L267.022 61.5899L269.684 60.0523L267.022 58.5147L264.359 60.0523ZM272.349 64.6656L269.686 63.128L272.349 61.5904L275.012 63.128L272.349 64.6656ZM275.012 66.203L277.675 67.7406L280.338 66.203L277.675 64.6654L275.012 66.203ZM283.006 70.8163L280.342 69.2787L283.006 67.7411L285.668 69.2787L283.006 70.8163ZM285.67 72.3544L288.334 73.8919L290.996 72.3544L288.334 70.8168L285.67 72.3544ZM293.658 76.967L290.994 75.4294L293.658 73.8918L296.32 75.4294L293.658 76.967ZM296.322 78.5051L298.986 80.0427L301.649 78.5051L298.986 76.9675L296.322 78.5051ZM304.314 83.1177L301.65 81.5801L304.314 80.0425L306.978 81.5801L304.314 83.1177ZM253.686 60.0648L256.348 61.6024L259.012 60.0648L256.348 58.5273L253.686 60.0648ZM261.674 64.6781L259.012 63.1405L261.674 61.6029L264.338 63.1405L261.674 64.6781ZM264.342 66.2155L267.004 67.7531L269.667 66.2155L267.004 64.678L264.342 66.2155ZM272.329 70.8288L269.666 69.2912L272.329 67.7536L274.991 69.2912L272.329 70.8288ZM274.992 72.3663L277.656 73.9039L280.318 72.3663L277.656 70.8287L274.992 72.3663ZM282.984 76.9795L280.32 75.4419L282.984 73.9043L285.647 75.4419L282.984 76.9795ZM285.648 78.517L288.312 80.0546L290.975 78.517L288.312 76.9794L285.648 78.517ZM293.639 83.1302L290.977 81.5926L293.639 80.0551L296.303 81.5926L293.639 83.1302ZM296.297 84.6683L298.961 86.2059L301.623 84.6683L298.961 83.1307L296.297 84.6683Z"
    fill="url(#paint18_linear_2635_1744)"
  />
  <path
    opacity="0.252418"
    fill-rule="evenodd"
    clip-rule="evenodd"
    d="M299.136 38.9414L296.473 37.4038L299.135 35.8662L301.799 37.4038L299.136 38.9414ZM304.463 42.0165L301.799 40.4789L304.463 38.9413L307.126 40.4789L304.463 42.0165ZM307.129 43.5545L309.791 45.0921L312.455 43.5545L309.791 42.017L307.129 43.5545ZM315.119 48.1672L312.455 46.6296L315.119 45.092L317.781 46.6296L315.119 48.1672ZM317.777 49.7053L320.44 51.2428L323.104 49.7053L320.44 48.1677L317.777 49.7053ZM325.767 54.3185L323.104 52.7809L325.767 51.2433L328.43 52.7809L325.767 54.3185ZM328.43 55.856L331.093 57.3935L333.757 55.856L331.093 54.3184L328.43 55.856ZM336.422 60.4692L333.758 58.9316L336.42 57.394L339.084 58.9316L336.422 60.4692ZM339.082 62.0067L341.746 63.5443L344.41 62.0067L341.746 60.4691L339.082 62.0067ZM293.782 42.029L291.119 40.4914L293.782 38.9538L296.444 40.4914L293.782 42.029ZM296.447 43.5671L299.111 45.1047L301.774 43.5671L299.11 42.0295L296.447 43.5671ZM304.439 48.1797L301.775 46.6421L304.439 45.1045L307.103 46.6421L304.439 48.1797ZM307.102 49.7178L309.764 51.2554L312.428 49.7178L309.764 48.1802L307.102 49.7178ZM315.091 54.3304L312.428 52.7928L315.091 51.2552L317.755 52.7928L315.091 54.3304ZM317.756 55.8685L320.418 57.4061L323.082 55.8685L320.418 54.3309L317.756 55.8685ZM325.746 60.4811L323.082 58.9435L325.746 57.4059L328.408 58.9435L325.746 60.4811ZM328.408 62.0192L331.072 63.5568L333.736 62.0192L331.072 60.4816L328.408 62.0192ZM336.4 66.6324L333.736 65.0949L336.4 63.5573L339.063 65.0949L336.4 66.6324ZM285.773 43.5791L288.436 45.1167L291.1 43.5791L288.436 42.0415L285.773 43.5791ZM293.762 48.1923L291.1 46.6548L293.762 45.1172L296.426 46.6548L293.762 48.1923ZM296.426 49.7304L299.09 51.268L301.752 49.7304L299.088 48.1928L296.426 49.7304ZM304.418 54.3431L301.754 52.8055L304.418 51.2679L307.081 52.8055L304.418 54.3431ZM307.08 55.8811L309.743 57.4187L312.406 55.8811L309.743 54.3436L307.08 55.8811ZM315.072 60.4938L312.408 58.9562L315.072 57.4186L317.736 58.9562L315.072 60.4938ZM317.738 62.0318L320.401 63.5694L323.065 62.0318L320.401 60.4943L317.738 62.0318ZM325.728 66.6445L323.064 65.1069L325.728 63.5693L328.391 65.1069L325.728 66.6445ZM328.389 68.1826L331.052 69.7201L333.716 68.1826L331.052 66.645L328.389 68.1826ZM283.088 48.205L280.424 46.6674L283.088 45.1298L285.75 46.6674L283.088 48.205ZM285.754 49.7425L288.418 51.28L291.08 49.7425L288.418 48.2049L285.754 49.7425ZM293.743 54.3557L291.08 52.8181L293.743 51.2805L296.406 52.8181L293.743 54.3557ZM296.406 55.8932L299.07 57.4308L301.733 55.8932L299.07 54.3556L296.406 55.8932ZM304.4 60.5064L301.736 58.9688L304.4 57.4312L307.064 58.9688L304.4 60.5064ZM307.061 62.0439L309.723 63.5815L312.387 62.0439L309.723 60.5063L307.061 62.0439ZM315.052 66.6571L312.389 65.1195L315.052 63.582L317.716 65.1195L315.052 66.6571ZM317.719 68.1946L320.381 69.7322L323.045 68.1946L320.381 66.657L317.719 68.1946ZM325.709 72.8078L323.045 71.2703L325.709 69.7327L328.371 71.2703L325.709 72.8078ZM275.078 49.755L277.742 51.2926L280.404 49.755L277.742 48.2174L275.078 49.755ZM283.07 54.3682L280.406 52.8307L283.07 51.2931L285.733 52.8307L283.07 54.3682ZM285.734 55.9057L288.397 57.4433L291.061 55.9057L288.397 54.3681L285.734 55.9057ZM293.727 60.5189L291.064 58.9814L293.727 57.4438L296.391 58.9814L293.727 60.5189ZM296.387 62.0564L299.05 63.594L301.713 62.0564L299.05 60.5188L296.387 62.0564ZM304.381 66.6697L301.717 65.1321L304.381 63.5945L307.044 65.1321L304.381 66.6697ZM307.035 68.2071L309.699 69.7447L312.361 68.2071L309.698 66.6695L307.035 68.2071ZM315.029 72.8204L312.365 71.2828L315.029 69.7452L317.693 71.2828L315.029 72.8204ZM317.691 74.3578L320.354 75.8954L323.018 74.3578L320.354 72.8202L317.691 74.3578ZM272.396 54.3803L269.732 52.8427L272.396 51.3051L275.059 52.8427L272.396 54.3803ZM275.059 55.9183L277.722 57.4559L280.385 55.9183L277.722 54.3808L275.059 55.9183ZM283.052 60.531L280.389 58.9934L283.052 57.4558L285.715 58.9934L283.052 60.531ZM285.709 62.0691L288.372 63.6066L291.035 62.0691L288.372 60.5315L285.709 62.0691ZM293.7 66.6817L291.037 65.1441L293.7 63.6065L296.363 65.1441L293.7 66.6817ZM296.363 68.2198L299.027 69.7574L301.69 68.2198L299.027 66.6822L296.363 68.2198ZM304.349 72.8324L301.686 71.2948L304.349 69.7572L307.013 71.2948L304.349 72.8324ZM307.014 74.3705L309.676 75.9081L312.34 74.3705L309.676 72.8329L307.014 74.3705ZM315.008 78.9837L312.344 77.4461L315.008 75.9086L317.671 77.4461L315.008 78.9837ZM264.379 55.9309L267.041 57.4685L269.704 55.9309L267.041 54.3933L264.379 55.9309ZM272.37 60.5435L269.707 59.0059L272.37 57.4683L275.032 59.0059L272.37 60.5435ZM275.031 62.0816L277.695 63.6192L280.358 62.0816L277.695 60.544L275.031 62.0816ZM283.023 66.6942L280.359 65.1566L283.023 63.6191L285.686 65.1566L283.023 66.6942ZM285.688 68.2323L288.351 69.7699L291.014 68.2323L288.351 66.6947L285.688 68.2323ZM293.676 72.8449L291.014 71.3073L293.676 69.7698L296.34 71.3073L293.676 72.8449ZM296.344 74.383L299.008 75.9206L301.67 74.383L299.008 72.8454L296.344 74.383ZM304.336 78.9956L301.672 77.4581L304.336 75.9205L306.999 77.4581L304.336 78.9956ZM306.994 80.5337L309.657 82.0713L312.32 80.5337L309.657 78.9961L306.994 80.5337ZM261.696 60.5562L259.033 59.0186L261.696 57.481L264.358 59.0186L261.696 60.5562ZM264.359 62.0936L267.022 63.6312L269.684 62.0936L267.022 60.556L264.359 62.0936ZM272.349 66.7069L269.686 65.1693L272.349 63.6317L275.012 65.1693L272.349 66.7069ZM275.012 68.2443L277.675 69.7819L280.338 68.2443L277.675 66.7067L275.012 68.2443ZM283.006 72.8576L280.342 71.32L283.006 69.7824L285.668 71.32L283.006 72.8576ZM285.67 74.3956L288.334 75.9332L290.996 74.3956L288.334 72.8581L285.67 74.3956ZM293.658 79.0083L290.994 77.4707L293.658 75.9331L296.32 77.4707L293.658 79.0083ZM296.322 80.5464L298.986 82.084L301.649 80.5464L298.986 79.0088L296.322 80.5464ZM304.314 85.159L301.65 83.6214L304.314 82.0838L306.978 83.6214L304.314 85.159ZM253.686 62.1061L256.348 63.6437L259.012 62.1061L256.348 60.5686L253.686 62.1061ZM261.674 66.7194L259.012 65.1818L261.674 63.6442L264.338 65.1818L261.674 66.7194ZM264.342 68.2569L267.004 69.7945L269.667 68.2569L267.004 66.7193L264.342 68.2569ZM272.329 72.8701L269.666 71.3325L272.329 69.7949L274.991 71.3325L272.329 72.8701ZM274.992 74.4076L277.656 75.9452L280.318 74.4076L277.656 72.87L274.992 74.4076ZM282.984 79.0208L280.32 77.4832L282.984 75.9456L285.647 77.4832L282.984 79.0208ZM285.648 80.5583L288.312 82.0959L290.975 80.5583L288.312 79.0207L285.648 80.5583ZM293.639 85.1715L290.977 83.6339L293.639 82.0963L296.303 83.6339L293.639 85.1715ZM296.297 86.7096L298.961 88.2472L301.623 86.7096L298.961 85.172L296.297 86.7096Z"
    fill="url(#paint19_linear_2635_1744)"
  />
  <path
    opacity="0.420038"
    fill-rule="evenodd"
    clip-rule="evenodd"
    d="M299.054 76.0557L243.186 43.7998L299.053 11.545L354.921 43.8009L299.054 76.0557Z"
    fill="white"
  />
  <path
    opacity="0.420038"
    fill-rule="evenodd"
    clip-rule="evenodd"
    d="M299.054 65.8492L243.186 33.5933L299.053 1.33844L354.921 33.5944L299.054 65.8492Z"
    stroke="white"
  />
  <path
    opacity="0.420038"
    fill-rule="evenodd"
    clip-rule="evenodd"
    d="M299.054 86.2623L243.186 54.0063L299.053 21.7515L354.921 54.0075L299.054 86.2623Z"
    fill="white"
  />
  <g style="mix-blend-mode: multiply">
    <path
      d="M96.109 384.171C96.109 399.174 120.624 411.334 150.63 411.334C180.636 411.334 205.15 399.174 205.15 384.171C205.15 369.168 180.636 357.009 150.63 357.009C120.624 357.009 96.109 369.168 96.109 384.171Z"
      fill="url(#paint20_linear_2635_1744)"
    />
  </g>
  <path
    d="M231.988 128.532L231.497 127.6C232.037 126.081 236.4 122.109 235.763 121.227C233.704 118.579 224.927 128.581 224.927 128.581C224.927 128.581 225.859 125.933 226.251 125.051C226.442 124.643 226.497 124.186 226.409 123.745C226.32 123.304 226.093 122.902 225.761 122.599C224.682 121.815 223.505 123.139 223.309 123.874L220.024 129.709C219.592 130.491 219.278 131.334 219.093 132.209L218.799 133.974C218.083 136.272 217.249 138.53 216.298 140.74L218.357 148.683C220.408 145.641 222.704 142.772 225.221 140.103C226.652 139.015 227.996 137.819 229.242 136.524C229.242 136.524 232.233 133.386 232.429 131.621C232.663 130.572 232.506 129.473 231.988 128.532Z"
    fill="#F5DFFF"
  />
  <path
    d="M146.568 368.531C146.411 369.817 145.963 371.051 145.258 372.139C144.553 373.226 143.609 374.138 142.499 374.807L140.342 376.327C137.702 378.098 135.225 380.1 132.938 382.308C131.867 383.394 130.439 384.055 128.918 384.171C126.417 384.171 124.26 383.485 124.554 379.759C124.554 379.759 124.554 379.072 124.554 378.631V377.994C124.554 377.994 124.554 370.786 124.554 370.639C124.848 371.914 126.613 367.011 127.692 366.962C128.771 366.913 129.065 370.786 130.193 369.757C132.154 367.894 134.262 368.727 139.704 365.981H140.734C144.95 365.491 145.637 366.864 146.029 368.188L146.568 368.531Z"
    fill="#7F818C"
  />
  <path
    d="M178.343 385.642C178.343 385.642 174.519 385.25 173.44 385.201C170.401 385.201 163.634 383.24 161.771 384.661C159.908 386.083 154.27 387.603 154.221 383.24L151.23 384.22C151.23 385.152 150.936 390.545 150.887 390.888C150.77 392.483 151.147 394.075 151.965 395.448C153.976 398.537 160.055 396.772 163.536 396.036L173.784 394.712C175.351 394.447 176.82 393.772 178.043 392.756C179.265 391.74 180.198 390.419 180.746 388.927C180.846 388.175 180.652 387.414 180.204 386.802C179.757 386.19 179.09 385.774 178.343 385.642Z"
    fill="#7F818C"
  />
  <path
    d="M122.992 235.857L121.767 240.368C121.483 241.498 121.27 242.644 121.129 243.8C120.663 249.232 120.663 254.695 121.129 260.127L121.816 272.139L124.512 369.708C124.512 373.63 137.358 374.022 137.309 369.315L139.957 268.168L143.634 269.59L150.694 383.828C150.694 387.897 163.785 388.241 163.883 383.387C163.883 383.387 167.756 267.285 168.197 249.095C168.541 236.25 145.203 239.682 145.203 239.289L157.313 229.827L122.992 235.857Z"
    fill="#0B0D11"
  />
  <path
    d="M155.588 216.344C155.588 216.344 112.785 223.992 106.804 214.579C104.107 210.411 119.992 167.363 119.992 167.363L123.768 162.46L134.505 165.5C135.927 165.892 137.986 163.735 137.986 163.735C136.221 169.521 127.004 197.516 124.797 204.086C124.454 205.116 156.078 207.273 156.078 207.273C153.676 208.401 153.333 215.363 155.588 216.344Z"
    fill="url(#paint21_linear_2635_1744)"
  />
  <path
    d="M122.792 216.981L121.517 238.799C122.106 249.831 166.575 251.89 170.154 244.487C170.529 234.678 170.349 224.857 169.615 215.069C169.295 208.595 169.889 202.108 171.38 195.8C171.433 195.483 171.515 195.171 171.625 194.869C172.068 192.779 172.971 190.815 174.269 189.119C175.567 187.423 177.226 186.037 179.127 185.063C184.569 182.219 196.042 177.463 199.67 175.747C201.934 174.753 203.884 173.159 205.308 171.139L223.596 147.408C225.607 144.957 216.879 137.602 214.526 139.318L193.59 161.48L181.382 165.5C178.716 166.403 175.863 166.606 173.096 166.089C169.413 165.532 165.679 165.4 161.966 165.696C160.106 165.149 158.313 164.392 156.622 163.441L154.122 162.068L146.669 158.097L146.081 157.753C145.787 157.753 144.561 158.195 143.335 158.783C142.383 159.294 141.381 159.704 140.345 160.009C138.771 159.406 137.121 159.026 135.442 158.881C134.804 158.881 134.118 158.881 133.48 158.881C131.584 158.871 129.705 159.25 127.962 159.997C126.218 160.743 124.647 161.84 123.346 163.22C122.044 164.599 121.041 166.232 120.397 168.016C119.754 169.8 119.484 171.697 119.605 173.59L123.282 211.637C123.238 213.427 123.074 215.212 122.792 216.981Z"
    fill="url(#paint22_linear_2635_1744)"
  />
  <path
    d="M136.668 164.274C136.668 167.755 142.405 170.599 149.416 170.599C151.719 170.846 154.047 170.529 156.2 169.675C158.352 168.82 160.265 167.455 161.771 165.696C159.918 165.127 158.128 164.372 156.427 163.441L153.927 162.068L146.474 158.097C145.343 158.211 144.225 158.441 143.14 158.783C142.092 159.054 141.086 159.466 140.149 160.009C139.231 160.327 138.419 160.895 137.804 161.648C137.19 162.401 136.796 163.311 136.668 164.274Z"
    fill="#F5DFFF"
  />
  <path
    d="M163.825 148.438C161.668 158.979 154.657 160.009 148.087 156.822C144.689 154.971 141.793 152.322 139.649 149.101C137.505 145.881 136.177 142.186 135.781 138.338C135.492 136.366 135.616 134.356 136.146 132.435C136.676 130.514 137.599 128.724 138.858 127.18C140.117 125.635 141.684 124.369 143.458 123.462C145.233 122.556 147.176 122.028 149.166 121.913C167.307 120.638 164.757 144.663 163.825 148.438Z"
    fill="#F5DFFF"
  />
  <path
    d="M140.254 143.486L141.039 164.274C141.039 165.255 141.97 166.187 143.686 166.726C145.175 167.189 146.742 167.345 148.293 167.185C149.843 167.025 151.345 166.552 152.708 165.794C153.058 165.594 153.353 165.31 153.567 164.967C153.78 164.625 153.906 164.236 153.934 163.833L153.198 142.849L140.254 143.486Z"
    fill="#F5DFFF"
  />
  <path
    d="M148.641 135.298C149.67 136.703 151.023 137.838 152.585 138.607C154.148 139.375 155.873 139.754 157.614 139.711C158.692 139.711 159.673 137.112 161.046 135.592C162.419 134.072 163.252 134.661 163.792 134.17C164.488 133.177 164.974 132.052 165.22 130.864C165.467 129.676 165.468 128.45 165.225 127.262C164.982 126.073 164.499 124.947 163.806 123.951C163.112 122.956 162.223 122.112 161.193 121.472C156.987 119.033 152.042 118.198 147.269 119.118C146.729 119.118 150.112 120.834 149.671 121.178C147.671 122.919 146.441 125.381 146.248 128.026C146.055 130.671 146.916 133.285 148.641 135.298Z"
    fill="#24272E"
  />
  <path
    d="M146.47 151.036L148.038 144.663C148.442 143.008 149.27 141.487 150.441 140.25C151.615 138.964 153.101 138.001 154.755 137.455L161.031 135.445C160.411 141.1 157.743 146.332 153.53 150.154C151.597 152.351 149.054 153.921 146.224 154.665V153.684C146.22 152.796 146.302 151.909 146.47 151.036Z"
    fill="#24272E"
  />
  <path
    d="M147.26 119.118C154.859 118.432 161.086 124.708 161.086 133.827C161.086 134.415 161.086 134.955 161.086 135.494L154.81 137.504C153.156 138.05 151.67 139.013 150.496 140.299C149.325 141.536 148.497 143.057 148.093 144.712L146.524 150.938C146.327 151.873 146.228 152.826 146.23 153.782V154.763C143.484 155.075 140.724 154.317 138.523 152.645C136.322 150.974 134.85 148.519 134.414 145.79C133.433 142.456 125.098 121.129 147.26 119.118Z"
    fill="#24272E"
  />
  <path
    d="M158.63 146.232C160.395 148.389 160.64 151.135 159.267 152.213C157.894 153.292 155.296 152.507 153.531 150.35C151.766 148.193 151.521 145.447 152.893 144.368C154.266 143.29 156.865 144.074 158.63 146.232Z"
    fill="#F5DFFF"
  />
  <defs>
    <linearGradient
      id="paint0_linear_2635_1744"
      x1="264.509"
      y1="208.877"
      x2="279.038"
      y2="172.609"
      gradientUnits="userSpaceOnUse"
    >
      <stop stop-color="#121212" />
      <stop offset="1" stop-color="#2662F0" stop-opacity="0.01" />
    </linearGradient>
    <linearGradient
      id="paint1_linear_2635_1744"
      x1="136.464"
      y1="193.126"
      x2="152.944"
      y2="223.547"
      gradientUnits="userSpaceOnUse"
    >
      <stop stop-opacity="0.01" />
      <stop offset="1" stop-color="#121212" />
    </linearGradient>
    <linearGradient
      id="paint2_linear_2635_1744"
      x1="173.662"
      y1="266.994"
      x2="195.35"
      y2="216.057"
      gradientUnits="userSpaceOnUse"
    >
      <stop stop-opacity="0.01" />
      <stop offset="1" stop-color="#121314" stop-opacity="0.989437" />
    </linearGradient>
    <linearGradient
      id="paint3_linear_2635_1744"
      x1="194.004"
      y1="234.482"
      x2="218.214"
      y2="279.276"
      gradientUnits="userSpaceOnUse"
    >
      <stop stop-color="#121212" />
      <stop offset="1" stop-opacity="0.01" />
    </linearGradient>
    <linearGradient
      id="paint4_linear_2635_1744"
      x1="215.318"
      y1="173.088"
      x2="217.029"
      y2="230.948"
      gradientUnits="userSpaceOnUse"
    >
      <stop stop-color="#7433FF" />
      <stop offset="1" stop-color="#9155FC" />
    </linearGradient>
    <linearGradient
      id="paint5_linear_2635_1744"
      x1="47.1272"
      y1="134.825"
      x2="47.1272"
      y2="245.264"
      gradientUnits="userSpaceOnUse"
    >
      <stop stop-color="white" />
      <stop offset="1" stop-color="#7F9FE8" stop-opacity="0" />
    </linearGradient>
    <linearGradient
      id="paint6_linear_2635_1744"
      x1="88.8041"
      y1="194.88"
      x2="91.2052"
      y2="276.054"
      gradientUnits="userSpaceOnUse"
    >
      <stop stop-color="#7433FF" />
      <stop offset="1" stop-color="#9155FC" />
    </linearGradient>
    <linearGradient
      id="paint7_linear_2635_1744"
      x1="78.2227"
      y1="203.013"
      x2="79.9087"
      y2="259.844"
      gradientUnits="userSpaceOnUse"
    >
      <stop stop-color="#4515AA" />
      <stop offset="1" stop-color="#9155FC" />
    </linearGradient>
    <linearGradient
      id="paint8_linear_2635_1744"
      x1="27.8672"
      y1="207.415"
      x2="104.427"
      y2="267.701"
      gradientUnits="userSpaceOnUse"
    >
      <stop stop-color="#7433FF" />
      <stop offset="1" stop-color="#FFA3FD" />
    </linearGradient>
    <linearGradient
      id="paint9_linear_2635_1744"
      x1="78.4453"
      y1="234.001"
      x2="108.883"
      y2="257.961"
      gradientUnits="userSpaceOnUse"
    >
      <stop stop-color="#7433FF" />
      <stop offset="1" stop-color="#FFA3FD" />
    </linearGradient>
    <linearGradient
      id="paint10_linear_2635_1744"
      x1="313.078"
      y1="43.7615"
      x2="316.12"
      y2="146.594"
      gradientUnits="userSpaceOnUse"
    >
      <stop stop-color="#7433FF" />
      <stop offset="1" stop-color="#9155FC" />
    </linearGradient>
    <linearGradient
      id="paint11_linear_2635_1744"
      x1="348"
      y1="86.5"
      x2="382.923"
      y2="330.499"
      gradientUnits="userSpaceOnUse"
    >
      <stop offset="0.124802" stop-color="#7433FF" />
      <stop offset="1" stop-color="#FFA3FD" stop-opacity="0" />
    </linearGradient>
    <linearGradient
      id="paint12_linear_2635_1744"
      x1="264.129"
      y1="86.4982"
      x2="299.051"
      y2="330.499"
      gradientUnits="userSpaceOnUse"
    >
      <stop stop-color="#7433FF" />
      <stop offset="1" stop-color="#FFA3FD" stop-opacity="0" />
    </linearGradient>
    <linearGradient
      id="paint13_linear_2635_1744"
      x1="263.184"
      y1="99.8803"
      x2="295.265"
      y2="317.187"
      gradientUnits="userSpaceOnUse"
    >
      <stop stop-color="#7433FF" />
      <stop offset="1" stop-color="#9155FC" stop-opacity="0.64" />
    </linearGradient>
    <linearGradient
      id="paint14_linear_2635_1744"
      x1="264.129"
      y1="89.7166"
      x2="279.885"
      y2="254.53"
      gradientUnits="userSpaceOnUse"
    >
      <stop stop-color="#7433FF" />
      <stop offset="1" stop-color="#FFA3FD" stop-opacity="0" />
    </linearGradient>
    <linearGradient
      id="paint15_linear_2635_1744"
      x1="313.078"
      y1="7.5841"
      x2="316.12"
      y2="110.416"
      gradientUnits="userSpaceOnUse"
    >
      <stop stop-color="#7433FF" />
      <stop offset="1" stop-color="#9155FC" />
    </linearGradient>
    <linearGradient
      id="paint16_linear_2635_1744"
      x1="348"
      y1="56.8765"
      x2="351.729"
      y2="137.334"
      gradientUnits="userSpaceOnUse"
    >
      <stop offset="0.124802" stop-color="#7433FF" />
      <stop offset="1" stop-color="#FFA3FD" stop-opacity="0" />
    </linearGradient>
    <linearGradient
      id="paint17_linear_2635_1744"
      x1="264.129"
      y1="56.8753"
      x2="267.858"
      y2="137.334"
      gradientUnits="userSpaceOnUse"
    >
      <stop stop-color="#7433FF" />
      <stop offset="1" stop-color="#9155FC" stop-opacity="0.5" />
    </linearGradient>
    <linearGradient
      id="paint18_linear_2635_1744"
      x1="253.686"
      y1="33.8249"
      x2="335.158"
      y2="97.9583"
      gradientUnits="userSpaceOnUse"
    >
      <stop stop-color="#7433FF" />
      <stop offset="1" stop-color="#FFA3FD" />
    </linearGradient>
    <linearGradient
      id="paint19_linear_2635_1744"
      x1="253.686"
      y1="35.8662"
      x2="335.158"
      y2="99.9996"
      gradientUnits="userSpaceOnUse"
    >
      <stop stop-color="#7433FF" />
      <stop offset="1" stop-color="#FFA3FD" />
    </linearGradient>
    <linearGradient
      id="paint20_linear_2635_1744"
      x1="150.63"
      y1="357.009"
      x2="150.63"
      y2="411.334"
      gradientUnits="userSpaceOnUse"
    >
      <stop stop-color="#E2E9FB" />
      <stop offset="1" stop-color="#E2E9FB" stop-opacity="0" />
    </linearGradient>
    <linearGradient
      id="paint21_linear_2635_1744"
      x1="161.665"
      y1="160.448"
      x2="77.0443"
      y2="234.729"
      gradientUnits="userSpaceOnUse"
    >
      <stop stop-color="#47DEFF" />
      <stop offset="1" stop-color="#9847FF" />
    </linearGradient>
    <linearGradient
      id="paint22_linear_2635_1744"
      x1="235.649"
      y1="135.173"
      x2="70.8906"
      y2="292.621"
      gradientUnits="userSpaceOnUse"
    >
      <stop stop-color="#47DEFF" />
      <stop offset="1" stop-color="#9847FF" />
    </linearGradient>
  </defs>
</svg>
