<svg width="110" height="117" viewBox="0 0 110 117" fill="none" xmlns="http://www.w3.org/2000/svg">
<path d="M9.48276 21.584C10.8633 21.584 12.1749 21.8798 13.358 22.4116L49.5832 1.52142C51.2901 0.570589 53.3763 0 55.2728 0C57.359 0 59.2556 0.570589 60.9625 1.52142L92.066 19.5871C89.7901 21.1085 88.0832 23.3903 86.9453 26.0526L56.7901 8.55744C56.2212 8.17721 55.6525 8.17721 55.0836 8.17721C54.5147 8.17721 53.9453 8.36728 53.3763 8.55744L18.629 28.5725C18.8484 29.375 18.9655 30.2199 18.9655 31.0922C18.9655 36.3435 14.7199 40.6005 9.48276 40.6005C4.24558 40.6005 0 36.3435 0 31.0922C0 25.841 4.24558 21.584 9.48276 21.584Z" fill="url(#paint0_linear_2_28)"/>
<path d="M97.3863 22.1144C98.3665 21.7708 99.4201 21.584 100.517 21.584C105.754 21.584 110 25.841 110 31.0922C110 34.5771 108.13 37.624 105.342 39.2796V78.3481C105.342 82.5317 103.066 86.3351 99.6522 88.4269L68.5487 106.303C68.5487 103.45 67.6004 100.598 65.8935 98.5058L95.4798 81.3909C96.6177 80.8204 97.1866 79.6792 97.1866 78.3481V39.9975C94.0398 38.8137 91.6873 36.001 91.1504 32.5836C91.005 31.9543 90.928 31.2965 90.928 30.6166C90.928 28.7149 91.497 27.0035 92.6349 25.4822C92.7298 25.3871 92.8246 25.2445 92.9194 25.1019C93.0142 24.9592 93.109 24.8166 93.2039 24.7215C93.7728 24.151 94.1521 23.7708 94.7211 23.3904C94.7211 23.3904 94.9108 23.3903 94.9108 23.2001C95.028 23.0826 95.1452 23.0377 95.3071 22.9757C95.4072 22.9374 95.5244 22.8925 95.6694 22.8198C95.6694 22.8198 95.8591 22.8199 95.8591 22.6297C96.0487 22.5346 96.191 22.4871 96.3332 22.4395C96.4755 22.3919 96.6177 22.3443 96.8074 22.2493C96.9902 22.2034 97.1841 22.1576 97.3863 22.1144Z" fill="url(#paint1_linear_2_28)"/>
<path d="M64.1867 104.792C64.38 105.548 64.4828 106.341 64.4828 107.158C64.4828 112.41 60.2372 116.667 55 116.667C50.2779 116.667 46.362 113.206 45.6374 108.676L11.0832 88.617C7.47976 86.5252 5.39355 82.722 5.39355 78.5384V43.3578C6.72114 43.7381 8.2384 44.1183 9.56599 44.1183C10.8936 44.1183 12.2212 43.9283 13.3591 43.5479V78.5384C13.3591 79.8696 14.1176 81.0105 15.0659 81.581L48.0326 100.708C49.7651 98.8278 52.2454 97.6501 55 97.6501C59.4172 97.6501 63.129 100.678 64.183 104.777L64.1862 104.781L64.1867 104.792Z" fill="url(#paint2_linear_2_28)"/>
<path d="M86.115 67.2145C86.115 65.6566 85.5083 64.1911 84.4061 63.09L64.9861 43.6689C68.0182 41.2233 70.0005 37.5233 70.0005 33.3333C70.0005 25.9811 64.0194 20 56.6672 20C49.315 20 43.3339 25.9811 43.3339 33.3333C43.3339 37.5233 45.316 41.2223 48.3483 43.6689L28.9272 63.09C27.825 64.1922 27.2184 65.6566 27.2184 67.2145C27.2184 68.7723 27.825 70.2378 28.9272 71.3389C29.8238 72.2355 30.965 72.7823 32.1961 72.9634C32.0917 73.3001 31.9816 73.6357 31.9194 73.9901C31.5327 76.1823 32.0228 78.3935 33.2993 80.2168C34.5759 82.0401 36.4861 83.2568 38.6783 83.6435L55.0915 86.5379C55.5727 86.6234 56.0616 86.6668 56.546 86.6668C56.5805 86.6668 56.6115 86.6546 56.646 86.6546C56.6948 86.6546 56.7393 86.6668 56.7881 86.6668C57.2727 86.6668 57.7615 86.6234 58.2415 86.5391L74.6548 83.6447C76.847 83.2579 78.757 82.0413 80.0337 80.218C81.3104 78.3947 81.8004 76.1836 81.4137 73.9913C81.3514 73.6357 81.2414 73.3013 81.137 72.9646C82.3691 72.7835 83.5103 72.2357 84.4059 71.3401C85.5083 70.2378 86.115 68.7723 86.115 67.2145ZM46.6672 33.3333C46.6672 27.81 51.1439 23.3333 56.6672 23.3333C62.1905 23.3333 66.6672 27.81 66.6672 33.3333C66.6672 38.8566 62.1905 43.3333 56.6672 43.3333C51.1439 43.3333 46.6672 38.8566 46.6672 33.3333ZM48.5872 79.78C48.7372 80.631 49.035 81.4189 49.4139 82.1533L39.2583 80.3621C36.5383 79.8822 34.7228 77.2898 35.2027 74.5699C35.6305 72.1444 37.7405 70.4378 40.1206 70.4378C40.4083 70.4378 40.7005 70.4633 40.995 70.5145L51.0684 72.2912C49.1095 74.1522 48.0838 76.9245 48.5872 79.78ZM74.075 80.3622L57.6617 83.2566C57.3684 83.3078 57.0762 83.3333 56.7884 83.3333C54.4073 83.3333 52.2973 81.6267 51.8706 79.2012C51.3906 76.4811 53.2073 73.8889 55.9262 73.409L72.3394 70.5146C72.6328 70.4624 72.925 70.4379 73.2139 70.4379C75.595 70.4379 77.7039 72.1445 78.1316 74.5701C78.6105 77.2889 76.795 79.8833 74.075 80.3622ZM82.0495 68.9822C81.5617 69.4699 80.9217 69.7143 80.2816 69.7143C79.6417 69.7143 79.0017 69.4699 78.5139 68.9822L64.9917 55.4878C64.3406 54.8366 63.285 54.8366 62.635 55.4878C61.985 56.1389 61.984 57.1944 62.635 57.8444L72.0184 67.2089C71.9328 67.2211 71.845 67.2167 71.7605 67.2311L56.6672 69.8934L41.5738 67.2323C41.4883 67.2168 41.4016 67.2223 41.316 67.21L50.6993 57.8456C51.3505 57.1944 51.3505 56.1389 50.6993 55.4889C50.0482 54.8389 48.9927 54.8379 48.3427 55.4889L34.8206 68.9833C34.3328 69.4711 33.6928 69.7155 33.0527 69.7155C32.4128 69.7155 31.7728 69.4711 31.2849 68.9833C30.3082 68.0066 30.3082 66.4245 31.2849 65.4478L51.2437 45.4889C52.9048 46.2323 54.7327 46.6667 56.6671 46.6667C58.6016 46.6667 60.4293 46.2323 62.0904 45.4878L82.0495 65.4466C83.0262 66.4233 83.0262 68.0056 82.0495 68.9822Z" fill="url(#paint3_linear_2_28)"/>
<defs>
<linearGradient id="paint0_linear_2_28" x1="55" y1="0" x2="55" y2="116.667" gradientUnits="userSpaceOnUse">
<stop offset="0.411458" stop-color="#59BDEF"/>
<stop offset="0.854167" stop-color="#ED2E7E"/>
<stop offset="0.880208" stop-color="#ED2E7E"/>
</linearGradient>
<linearGradient id="paint1_linear_2_28" x1="55" y1="0" x2="55" y2="116.667" gradientUnits="userSpaceOnUse">
<stop offset="0.411458" stop-color="#59BDEF"/>
<stop offset="0.854167" stop-color="#ED2E7E"/>
<stop offset="0.880208" stop-color="#ED2E7E"/>
</linearGradient>
<linearGradient id="paint2_linear_2_28" x1="55" y1="0" x2="55" y2="116.667" gradientUnits="userSpaceOnUse">
<stop offset="0.411458" stop-color="#59BDEF"/>
<stop offset="0.854167" stop-color="#ED2E7E"/>
<stop offset="0.880208" stop-color="#ED2E7E"/>
</linearGradient>
<linearGradient id="paint3_linear_2_28" x1="56.6667" y1="20" x2="56.6667" y2="86.6668" gradientUnits="userSpaceOnUse">
<stop offset="0.411458" stop-color="#59BDEF"/>
<stop offset="0.854167" stop-color="#ED2E7E"/>
<stop offset="0.880208" stop-color="#ED2E7E"/>
</linearGradient>
</defs>
</svg>
