<svg width="483" height="430" viewBox="0 0 483 430" fill="none" xmlns="http://www.w3.org/2000/svg">
<path fill-rule="evenodd" clip-rule="evenodd" d="M423.246 229.52C422.682 229.52 422.141 229.403 421.728 229.165L375.663 202.568C375.205 202.304 374.952 201.92 374.951 201.487C374.951 200.993 375.291 200.515 375.883 200.172L421.506 173.832C422.53 173.242 424.038 173.186 424.939 173.705L471.005 200.301C471.465 200.566 471.717 200.949 471.717 201.383C471.716 201.876 471.376 202.355 470.784 202.696L425.161 229.037C424.607 229.357 423.911 229.52 423.246 229.52V229.52Z" stroke="#1CC8EE"/>
<path opacity="0.4" fill-rule="evenodd" clip-rule="evenodd" d="M422.318 220.998L389.452 202.023C388.889 201.698 388.96 201.131 389.61 200.756L422.16 181.963C422.81 181.588 423.791 181.548 424.354 181.872L457.22 200.848C457.782 201.172 457.712 201.739 457.062 202.114L424.512 220.907C423.862 221.282 422.881 221.323 422.318 220.998Z" fill="#4DCAFF"/>
<path fill-rule="evenodd" clip-rule="evenodd" d="M422.16 169.373L399.348 182.544L389.072 182.551L389.075 188.906H389.079C389.089 189.104 389.207 189.292 389.452 189.433L422.318 208.409C422.88 208.733 423.863 208.692 424.512 208.317L457.062 189.525C457.4 189.329 457.577 189.082 457.594 188.845V182.505L447.266 182.512L424.353 169.283C424.098 169.136 423.758 169.064 423.401 169.064C422.969 169.064 422.515 169.169 422.16 169.373Z" fill="url(#paint0_linear_2455_22681)"/>
<path fill-rule="evenodd" clip-rule="evenodd" d="M422.16 163.033L389.61 181.827C388.96 182.201 388.89 182.768 389.452 183.093L422.318 202.068C422.88 202.393 423.863 202.352 424.512 201.977L457.062 183.184C457.712 182.809 457.782 182.242 457.219 181.918L424.353 162.942C424.099 162.795 423.758 162.723 423.401 162.723C422.97 162.723 422.515 162.828 422.16 163.033Z" fill="#5F2EEA"/>
<path fill-rule="evenodd" clip-rule="evenodd" d="M422.431 199.846L393.297 183.026C392.799 182.738 392.861 182.235 393.437 181.903L422.29 165.245C422.865 164.913 423.736 164.877 424.234 165.164L453.367 181.985C453.865 182.272 453.803 182.775 453.228 183.107L424.375 199.766C423.799 200.097 422.928 200.134 422.431 199.846Z" fill="#5F2EEA"/>
<path fill-rule="evenodd" clip-rule="evenodd" d="M422.506 198.437L395.74 182.983C395.283 182.719 395.34 182.258 395.868 181.952L422.377 166.647C422.905 166.342 423.705 166.31 424.164 166.574L450.928 182.027C451.386 182.291 451.329 182.753 450.801 183.058L424.292 198.362C423.764 198.668 422.965 198.702 422.506 198.437Z" fill="white"/>
<path opacity="0.399879" fill-rule="evenodd" clip-rule="evenodd" d="M457.599 173.982L443.618 174.065L424.354 162.942C423.791 162.617 422.809 162.658 422.16 163.033L402.632 174.308L389.074 174.389V182.625L389.083 182.63C389.113 182.803 389.233 182.966 389.452 183.093L422.318 202.068C422.881 202.393 423.862 202.352 424.512 201.978L457.062 183.184C457.359 183.013 457.528 182.802 457.578 182.592L457.599 182.581V173.982Z" fill="white"/>
<path fill-rule="evenodd" clip-rule="evenodd" d="M422.16 155.325L399.348 168.496L389.072 168.503L389.075 174.859H389.079C389.089 175.056 389.207 175.244 389.452 175.385L422.318 194.361C422.88 194.685 423.863 194.644 424.512 194.269L457.062 175.476C457.4 175.282 457.577 175.035 457.594 174.797V168.457L447.266 168.463L424.353 155.234C424.098 155.087 423.758 155.016 423.401 155.016C422.969 155.016 422.515 155.121 422.16 155.325Z" fill="url(#paint1_linear_2455_22681)"/>
<path fill-rule="evenodd" clip-rule="evenodd" d="M422.16 148.985L389.61 167.778C388.96 168.153 388.89 168.72 389.452 169.044L422.318 188.02C422.88 188.344 423.863 188.304 424.512 187.929L457.062 169.135C457.712 168.762 457.782 168.195 457.219 167.87L424.353 148.894C424.099 148.747 423.758 148.674 423.4 148.674C422.969 148.674 422.515 148.78 422.16 148.985Z" fill="url(#paint2_linear_2455_22681)"/>
<path fill-rule="evenodd" clip-rule="evenodd" d="M422.431 185.798L393.297 168.978C392.799 168.69 392.861 168.187 393.437 167.855L422.29 151.197C422.865 150.864 423.736 150.829 424.234 151.116L453.367 167.936C453.865 168.224 453.803 168.727 453.228 169.058L424.375 185.717C423.799 186.049 422.928 186.085 422.431 185.798Z" fill="#5F2EEA"/>
<path fill-rule="evenodd" clip-rule="evenodd" d="M422.506 184.389L395.74 168.935C395.283 168.671 395.34 168.209 395.868 167.904L422.377 152.599C422.905 152.294 423.705 152.261 424.164 152.525L450.928 167.979C451.386 168.243 451.329 168.705 450.801 169.01L424.292 184.314C423.764 184.62 422.965 184.653 422.506 184.389Z" fill="white"/>
<path fill-rule="evenodd" clip-rule="evenodd" d="M362.122 295.091C361.651 295.091 361.181 294.97 360.762 294.728L336.43 280.68L336.752 280.12L361.085 294.167C361.724 294.537 362.519 294.537 363.158 294.167L471.846 231.416C471.998 231.329 472.089 231.173 472.089 230.998C472.089 230.823 471.998 230.666 471.846 230.579L446.978 216.221L447.301 215.661L472.17 230.019C472.523 230.224 472.734 230.589 472.734 230.998C472.734 231.407 472.523 231.772 472.17 231.977L363.481 294.728C363.062 294.97 362.592 295.091 362.122 295.091Z" fill="#1CC8EE"/>
<path d="M362.122 295.091C361.651 295.091 361.181 294.97 360.762 294.728L336.43 280.68L336.752 280.12L361.085 294.167C361.724 294.537 362.519 294.537 363.158 294.167L471.846 231.416C471.998 231.329 472.089 231.173 472.089 230.998C472.089 230.823 471.998 230.666 471.846 230.579L446.978 216.221L447.301 215.661L472.17 230.019C472.523 230.224 472.734 230.589 472.734 230.998C472.734 231.407 472.523 231.772 472.17 231.977L363.481 294.728C363.062 294.97 362.592 295.091 362.122 295.091" stroke="#1CC8EE" stroke-width="0.4"/>
<path fill-rule="evenodd" clip-rule="evenodd" d="M156.421 241.684C155.821 241.684 155.221 241.524 154.685 241.204L95.5112 205.802C95.1921 205.61 95.0007 205.267 95 204.885C95 204.502 95.1914 204.159 95.5105 203.967L134.506 180.616L134.829 181.197L95.8337 204.548C95.6649 204.649 95.647 204.817 95.647 204.885C95.647 204.952 95.6649 205.119 95.8344 205.221L155.008 240.623C155.881 241.146 156.965 241.144 157.837 240.622L169.775 233.473L170.099 234.054L158.16 241.203C157.624 241.524 157.023 241.684 156.421 241.684Z" fill="#1CC8EE"/>
<path d="M156.421 241.684C155.821 241.684 155.221 241.524 154.685 241.204L95.5112 205.802C95.1921 205.61 95.0007 205.267 95 204.885C95 204.502 95.1914 204.159 95.5105 203.967L134.506 180.616L134.829 181.197L95.8337 204.548C95.6649 204.649 95.647 204.817 95.647 204.885C95.647 204.952 95.6649 205.119 95.8344 205.221L155.008 240.623C155.881 241.146 156.965 241.144 157.837 240.622L169.775 233.473L170.099 234.054L158.16 241.203C157.624 241.524 157.023 241.684 156.421 241.684" stroke="#1CC8EE" stroke-width="0.4"/>
<path fill-rule="evenodd" clip-rule="evenodd" d="M243.646 158.314L372.089 232.47C373.08 233.043 373.93 232.713 374.103 231.686L390.303 135.579C390.487 134.487 389.689 132.925 388.635 132.317L260.192 58.1601C259.201 57.5878 258.352 57.9186 258.177 58.945L241.978 155.052C241.793 156.143 242.591 157.705 243.646 158.314Z" fill="url(#paint3_linear_2455_22681)"/>
<path fill-rule="evenodd" clip-rule="evenodd" d="M241.926 171.768C241.113 171.768 240.341 171.93 239.766 172.263L153.492 222.073C152.993 222.361 152.729 222.728 152.729 223.133C152.729 223.644 153.146 224.179 153.876 224.6L290.561 303.545C292.052 304.405 294.305 304.506 295.585 303.767L381.859 253.956C382.358 253.668 382.622 253.302 382.622 252.896C382.622 252.385 382.203 251.851 381.475 251.43L244.789 172.485C243.969 172.011 242.918 171.768 241.926 171.768ZM293.416 304.909C292.314 304.909 291.158 304.638 290.236 304.105L153.551 225.16C152.617 224.62 152.08 223.881 152.08 223.133C152.08 222.493 152.466 221.918 153.167 221.513L239.44 171.702C240.923 170.848 243.413 170.944 245.11 171.925L381.796 250.869C382.73 251.409 383.266 252.148 383.266 252.896C383.266 253.536 382.88 254.112 382.179 254.517L295.906 304.327C295.229 304.718 294.343 304.909 293.416 304.909Z" fill="#1CC8EE"/>
<path d="M239.766 172.263L239.866 172.436L239.866 172.436L239.766 172.263ZM153.492 222.073L153.592 222.246L153.592 222.246L153.492 222.073ZM153.876 224.6L153.976 224.427L153.976 224.426L153.876 224.6ZM290.561 303.545L290.461 303.718L290.461 303.718L290.561 303.545ZM295.585 303.767L295.485 303.593L295.485 303.593L295.585 303.767ZM381.859 253.956L381.959 254.13L381.959 254.13L381.859 253.956ZM381.475 251.43L381.374 251.603L381.375 251.603L381.475 251.43ZM244.789 172.485L244.689 172.658L244.689 172.658L244.789 172.485ZM290.236 304.105L290.336 303.932L290.336 303.932L290.236 304.105ZM153.551 225.16L153.451 225.333L153.451 225.333L153.551 225.16ZM153.167 221.513L153.067 221.34L153.067 221.34L153.167 221.513ZM239.44 171.702L239.34 171.529L239.34 171.529L239.44 171.702ZM245.11 171.925L245.01 172.098L245.01 172.098L245.11 171.925ZM381.796 250.869L381.896 250.696L381.896 250.696L381.796 250.869ZM382.179 254.517L382.079 254.344V254.344L382.179 254.517ZM295.906 304.327L295.806 304.153L295.806 304.153L295.906 304.327ZM241.926 171.568C241.091 171.568 240.28 171.733 239.665 172.09L239.866 172.436C240.401 172.126 241.136 171.968 241.926 171.968V171.568ZM239.666 172.09L153.392 221.899L153.592 222.246L239.866 172.436L239.666 172.09ZM153.392 221.899C152.86 222.207 152.529 222.628 152.529 223.133H152.929C152.929 222.828 153.126 222.515 153.592 222.246L153.392 221.899ZM152.529 223.133C152.529 223.753 153.026 224.341 153.777 224.773L153.976 224.426C153.267 224.018 152.929 223.535 152.929 223.133H152.529ZM153.776 224.773L290.461 303.718L290.661 303.372L153.976 224.427L153.776 224.773ZM290.461 303.718C291.239 304.167 292.207 304.414 293.143 304.455C294.077 304.497 295.001 304.334 295.685 303.94L295.485 303.593C294.888 303.938 294.046 304.095 293.161 304.056C292.277 304.017 291.374 303.783 290.661 303.372L290.461 303.718ZM295.685 303.94L381.959 254.13L381.759 253.783L295.485 303.593L295.685 303.94ZM381.959 254.13C382.49 253.822 382.822 253.401 382.822 252.896H382.422C382.422 253.202 382.225 253.514 381.759 253.783L381.959 254.13ZM382.822 252.896C382.822 252.276 382.323 251.689 381.574 251.257L381.375 251.603C382.083 252.012 382.422 252.494 382.422 252.896H382.822ZM381.575 251.257L244.889 172.311L244.689 172.658L381.374 251.603L381.575 251.257ZM244.889 172.312C244.034 171.817 242.947 171.568 241.926 171.568V171.968C242.889 171.968 243.904 172.204 244.689 172.658L244.889 172.312ZM293.416 304.709C292.344 304.709 291.223 304.445 290.336 303.932L290.136 304.278C291.093 304.831 292.285 305.109 293.416 305.109V304.709ZM290.336 303.932L153.651 224.986L153.451 225.333L290.136 304.278L290.336 303.932ZM153.651 224.987C152.748 224.465 152.28 223.781 152.28 223.133H151.88C151.88 223.982 152.485 224.775 153.451 225.333L153.651 224.987ZM152.28 223.133C152.28 222.584 152.609 222.066 153.267 221.686L153.067 221.34C152.324 221.769 151.88 222.402 151.88 223.133H152.28ZM153.267 221.686L239.54 171.876L239.34 171.529L153.067 221.34L153.267 221.686ZM239.54 171.876C240.24 171.472 241.193 171.286 242.187 171.325C243.18 171.364 244.194 171.626 245.01 172.098L245.21 171.752C244.329 171.243 243.25 170.966 242.203 170.925C241.157 170.885 240.124 171.078 239.34 171.529L239.54 171.876ZM245.01 172.098L381.696 251.043L381.896 250.696L245.21 171.752L245.01 172.098ZM381.696 251.043C382.598 251.564 383.066 252.249 383.066 252.896H383.466C383.466 252.048 382.862 251.254 381.896 250.696L381.696 251.043ZM383.066 252.896C383.066 253.446 382.737 253.964 382.079 254.344L382.279 254.69C383.023 254.261 383.466 253.627 383.466 252.896H383.066ZM382.079 254.344L295.806 304.153L296.006 304.5L382.279 254.69L382.079 254.344ZM295.806 304.153C295.168 304.522 294.318 304.709 293.416 304.709V305.109C294.367 305.109 295.291 304.913 296.006 304.5L295.806 304.153Z" fill="#1CC8EE"/>
<path opacity="0.4" fill-rule="evenodd" clip-rule="evenodd" d="M163.989 224.074L291.126 297.476C292.517 298.279 294.622 298.366 295.827 297.671L371.695 253.87C372.899 253.173 372.749 251.958 371.356 251.154L244.22 177.753C242.829 176.949 240.724 176.861 239.519 177.558L163.651 221.359C162.446 222.055 162.597 223.27 163.989 224.074Z" fill="#4DCAFF"/>
<path fill-rule="evenodd" clip-rule="evenodd" d="M239.518 157.765L163.652 201.566C162.446 202.262 162.598 203.478 163.989 204.281L291.126 277.683C292.517 278.487 294.622 278.574 295.826 277.878L371.694 234.076C372.899 233.381 372.747 232.165 371.357 231.362L244.22 157.96C243.459 157.52 242.484 157.295 241.561 157.295C240.795 157.295 240.064 157.45 239.518 157.765Z" fill="url(#paint4_linear_2455_22681)"/>
<path fill-rule="evenodd" clip-rule="evenodd" d="M241.15 175.177L332.922 228.161L337.003 225.805L245.231 172.821L241.15 175.177ZM231.148 180.952L317.228 230.65L321.308 228.294L235.229 178.596L231.148 180.952ZM325.98 243.228L224.631 184.714L228.711 182.358L330.06 240.872L325.98 243.228ZM218.119 188.476L319.467 246.989L323.547 244.634L222.2 186.12L218.119 188.476ZM312.948 250.751L211.6 192.238L215.68 189.882L317.029 248.396L312.948 250.751ZM338.469 231.363L342.549 233.719L346.63 231.363L342.549 229.007L338.469 231.363ZM332.546 239.494L324.076 234.605L328.157 232.248L336.627 237.138L332.546 239.494Z" fill="url(#paint5_linear_2455_22681)"/>
<path fill-rule="evenodd" clip-rule="evenodd" d="M233.19 215.399L213.71 226.646C212.597 227.29 212.597 228.331 213.711 228.973L242.197 245.421C243.311 246.064 245.116 246.064 246.23 245.421L265.71 234.174C266.823 233.531 266.823 232.489 265.71 231.846L237.223 215.399C236.666 215.078 235.936 214.917 235.207 214.917C234.477 214.917 233.747 215.078 233.19 215.399Z" fill="url(#paint6_linear_2455_22681)"/>
<path fill-rule="evenodd" clip-rule="evenodd" d="M265.712 232.799L237.225 216.351C236.112 215.709 234.306 215.709 233.193 216.351L213.713 227.599C213.369 227.797 213.144 228.035 213.013 228.286C212.719 227.724 212.943 227.09 213.713 226.646L233.193 215.4C234.306 214.756 236.112 214.756 237.225 215.4L265.712 231.846C266.482 232.291 266.707 232.924 266.412 233.487C266.281 233.236 266.056 232.997 265.712 232.799Z" fill="#91AFFF"/>
<mask id="mask0_2455_22681" style="mask-type:alpha" maskUnits="userSpaceOnUse" x="239" y="172" width="92" height="54">
<path fill-rule="evenodd" clip-rule="evenodd" d="M268.774 172.821L330.352 208.373L302.964 225.227L239.713 192.355L268.774 172.821Z" fill="white"/>
</mask>
<g mask="url(#mask0_2455_22681)">
<path fill-rule="evenodd" clip-rule="evenodd" d="M302.964 225.227L330.352 208.373L268.774 172.821L239.713 192.355L302.964 225.227Z" fill="black" fill-opacity="0.304824"/>
</g>
<mask id="mask1_2455_22681" style="mask-type:alpha" maskUnits="userSpaceOnUse" x="278" y="135" width="59" height="74">
<path fill-rule="evenodd" clip-rule="evenodd" d="M278.84 135.594L336.627 168.742L330.353 208.373L278.84 178.552V135.594Z" fill="white"/>
</mask>
<g mask="url(#mask1_2455_22681)">
<path fill-rule="evenodd" clip-rule="evenodd" d="M330.353 208.373L336.627 168.742L278.84 135.594V178.552L330.353 208.373Z" fill="black" fill-opacity="0.304824"/>
</g>
<path fill-rule="evenodd" clip-rule="evenodd" d="M334.853 119.738L328.307 116.015L328.529 114.6L335.074 118.322L334.853 119.738Z" fill="#7087BE"/>
<path fill-rule="evenodd" clip-rule="evenodd" d="M338.207 121.647L335.85 120.307L336.073 118.89L338.429 120.231L338.207 121.647Z" fill="#7087BE"/>
<path fill-rule="evenodd" clip-rule="evenodd" d="M340.81 123.126L339.209 122.215L339.431 120.799L341.033 121.71L340.81 123.126Z" fill="#7087BE"/>
<path fill-rule="evenodd" clip-rule="evenodd" d="M331.362 121.278L327.795 119.249L328.017 117.834L331.584 119.862L331.362 121.278Z" fill="#7087BE"/>
<path fill-rule="evenodd" clip-rule="evenodd" d="M336.735 124.332L332.365 121.847L332.588 120.43L336.958 122.916L336.735 124.332Z" fill="#7087BE"/>
<path fill-rule="evenodd" clip-rule="evenodd" d="M339.336 125.812L337.734 124.901L337.957 123.485L339.557 124.396L339.336 125.812Z" fill="#7087BE"/>
<path fill-rule="evenodd" clip-rule="evenodd" d="M341.81 127.219L340.209 126.309L340.431 124.893L342.033 125.804L341.81 127.219Z" fill="#7087BE"/>
<path fill-rule="evenodd" clip-rule="evenodd" d="M329.872 123.951L327.291 122.484L327.513 121.068L330.094 122.536L329.872 123.951Z" fill="#7087BE"/>
<path fill-rule="evenodd" clip-rule="evenodd" d="M331.753 125.022L330.871 124.52L331.093 123.105L331.975 123.606L331.753 125.022Z" fill="#7087BE"/>
<path fill-rule="evenodd" clip-rule="evenodd" d="M334.353 126.501L332.752 125.591L332.974 124.174L334.575 125.086L334.353 126.501Z" fill="#7087BE"/>
<path fill-rule="evenodd" clip-rule="evenodd" d="M336.303 131.135L326.779 125.718L327.002 124.302L336.525 129.719L336.303 131.135Z" fill="#7087BE"/>
<path fill-rule="evenodd" clip-rule="evenodd" d="M339.664 133.044L337.307 131.704L337.53 130.287L339.886 131.628L339.664 133.044Z" fill="#7087BE"/>
<path fill-rule="evenodd" clip-rule="evenodd" d="M328.852 130.42L326.271 128.953L326.494 127.537L329.074 129.005L328.852 130.42Z" fill="#7087BE"/>
<path fill-rule="evenodd" clip-rule="evenodd" d="M334.911 133.864L329.855 130.989L330.078 129.573L335.133 132.449L334.911 133.864Z" fill="#7087BE"/>
<path fill-rule="evenodd" clip-rule="evenodd" d="M337.514 135.343L335.912 134.433L336.134 133.017L337.736 133.928L337.514 135.343Z" fill="#7087BE"/>
<path fill-rule="evenodd" clip-rule="evenodd" d="M331.047 135.19L325.768 132.187L325.99 130.771L331.269 133.774L331.047 135.19Z" fill="#8648FE"/>
<path fill-rule="evenodd" clip-rule="evenodd" d="M335.865 137.93L332.047 135.758L332.269 134.342L336.087 136.514L335.865 137.93Z" fill="#7087BE"/>
<path fill-rule="evenodd" clip-rule="evenodd" d="M339.444 139.966L336.863 138.498L337.086 137.083L339.666 138.55L339.444 139.966Z" fill="#7087BE"/>
<path fill-rule="evenodd" clip-rule="evenodd" d="M327.043 136.436L325.26 135.422L325.483 134.005L327.265 135.02L327.043 136.436Z" fill="#7087BE"/>
<path fill-rule="evenodd" clip-rule="evenodd" d="M330.398 138.344L328.041 137.004L328.264 135.588L330.62 136.929L330.398 138.344Z" fill="#7087BE"/>
<path fill-rule="evenodd" clip-rule="evenodd" d="M335.195 141.073L331.398 138.913L331.621 137.498L335.417 139.657L335.195 141.073Z" fill="#7087BE"/>
<path fill-rule="evenodd" clip-rule="evenodd" d="M327.517 143.751L324.244 141.89L324.467 140.474L327.739 142.336L327.517 143.751Z" fill="#7087BE"/>
<path fill-rule="evenodd" clip-rule="evenodd" d="M345.264 125.66L349.802 128.241L350.024 126.826L345.485 124.245L345.264 125.66Z" fill="#7087BE"/>
<path fill-rule="evenodd" clip-rule="evenodd" d="M345.729 129.447L349.294 131.476L349.517 130.06L345.951 128.032L345.729 129.447Z" fill="#7087BE"/>
<path fill-rule="evenodd" clip-rule="evenodd" d="M346.207 133.242L348.788 134.71L349.01 133.294L346.429 131.827L346.207 133.242Z" fill="#7087BE"/>
<path fill-rule="evenodd" clip-rule="evenodd" d="M344.525 135.81L348.279 137.944L348.502 136.528L344.748 134.394L344.525 135.81Z" fill="#7087BE"/>
<path fill-rule="evenodd" clip-rule="evenodd" d="M345.191 139.711L347.771 141.179L347.994 139.763L345.414 138.296L345.191 139.711Z" fill="#7087BE"/>
<path fill-rule="evenodd" clip-rule="evenodd" d="M343.99 142.552L347.263 144.413L347.486 142.997L344.213 141.136L343.99 142.552Z" fill="#7087BE"/>
<path fill-rule="evenodd" clip-rule="evenodd" d="M344.973 146.633L346.756 147.647L346.978 146.232L345.195 145.218L344.973 146.633Z" fill="#7087BE"/>
<path fill-rule="evenodd" clip-rule="evenodd" d="M342.467 152.255L345.74 154.116L345.962 152.7L342.689 150.839L342.467 152.255Z" fill="#7087BE"/>
<path fill-rule="evenodd" clip-rule="evenodd" d="M329.907 145.111L328.516 144.32L328.738 142.904L330.129 143.696L329.907 145.111Z" fill="#7087BE"/>
<path fill-rule="evenodd" clip-rule="evenodd" d="M334.037 147.462L330.904 145.68L331.127 144.264L334.259 146.046L334.037 147.462Z" fill="#7087BE"/>
<path fill-rule="evenodd" clip-rule="evenodd" d="M360.241 134.117L353.695 130.394L353.918 128.979L360.463 132.701L360.241 134.117Z" fill="#7087BE"/>
<path fill-rule="evenodd" clip-rule="evenodd" d="M363.597 136.025L361.24 134.685L361.463 133.269L363.819 134.61L363.597 136.025Z" fill="#7087BE"/>
<path fill-rule="evenodd" clip-rule="evenodd" d="M366.197 137.505L364.596 136.595L364.818 135.178L366.42 136.09L366.197 137.505Z" fill="#7087BE"/>
<path fill-rule="evenodd" clip-rule="evenodd" d="M356.755 135.657L353.189 133.629L353.412 132.212L356.978 134.241L356.755 135.657Z" fill="#7087BE"/>
<path fill-rule="evenodd" clip-rule="evenodd" d="M362.128 138.711L357.758 136.225L357.98 134.81L362.35 137.296L362.128 138.711Z" fill="#7087BE"/>
<path fill-rule="evenodd" clip-rule="evenodd" d="M364.726 140.19L363.125 139.28L363.347 137.864L364.949 138.775L364.726 140.19Z" fill="#7087BE"/>
<path fill-rule="evenodd" clip-rule="evenodd" d="M367.201 141.598L365.6 140.688L365.822 139.271L367.423 140.183L367.201 141.598Z" fill="#7087BE"/>
<path fill-rule="evenodd" clip-rule="evenodd" d="M355.26 138.331L352.68 136.863L352.902 135.447L355.482 136.915L355.26 138.331Z" fill="#7087BE"/>
<path fill-rule="evenodd" clip-rule="evenodd" d="M357.143 139.401L356.262 138.899L356.484 137.484L357.366 137.985L357.143 139.401Z" fill="#7087BE"/>
<path fill-rule="evenodd" clip-rule="evenodd" d="M359.742 140.88L358.141 139.969L358.363 138.553L359.964 139.465L359.742 140.88Z" fill="#7087BE"/>
<path fill-rule="evenodd" clip-rule="evenodd" d="M361.696 145.514L352.172 140.097L352.394 138.681L361.919 144.098L361.696 145.514Z" fill="#8648FE"/>
<path fill-rule="evenodd" clip-rule="evenodd" d="M365.052 147.423L362.695 146.083L362.918 144.667L365.274 146.007L365.052 147.423Z" fill="#7087BE"/>
<path fill-rule="evenodd" clip-rule="evenodd" d="M354.243 144.799L351.662 143.331L351.884 141.916L354.465 143.383L354.243 144.799Z" fill="#7087BE"/>
<path fill-rule="evenodd" clip-rule="evenodd" d="M360.3 148.243L355.244 145.368L355.466 143.952L360.523 146.827L360.3 148.243Z" fill="#7087BE"/>
<path fill-rule="evenodd" clip-rule="evenodd" d="M362.9 149.723L361.299 148.812L361.521 147.396L363.123 148.307L362.9 149.723Z" fill="#7087BE"/>
<path fill-rule="evenodd" clip-rule="evenodd" d="M356.436 149.568L351.156 146.566L351.379 145.15L356.658 148.153L356.436 149.568Z" fill="#7087BE"/>
<path fill-rule="evenodd" clip-rule="evenodd" d="M361.253 152.309L357.436 150.137L357.658 148.721L361.476 150.893L361.253 152.309Z" fill="#7087BE"/>
<path fill-rule="evenodd" clip-rule="evenodd" d="M364.835 154.345L362.254 152.877L362.476 151.462L365.056 152.929L364.835 154.345Z" fill="#7087BE"/>
<path fill-rule="evenodd" clip-rule="evenodd" d="M352.43 150.814L350.646 149.8L350.869 148.384L352.652 149.399L352.43 150.814Z" fill="#7087BE"/>
<path fill-rule="evenodd" clip-rule="evenodd" d="M355.787 152.724L353.43 151.384L353.653 149.967L356.009 151.308L355.787 152.724Z" fill="#7087BE"/>
<path fill-rule="evenodd" clip-rule="evenodd" d="M360.584 155.451L356.787 153.292L357.009 151.876L360.807 154.036L360.584 155.451Z" fill="#7087BE"/>
<path fill-rule="evenodd" clip-rule="evenodd" d="M355.601 156.141L350.139 153.035L350.361 151.619L355.823 154.726L355.601 156.141Z" fill="#7087BE"/>
<path fill-rule="evenodd" clip-rule="evenodd" d="M361.718 159.62L356.6 156.709L356.822 155.294L361.94 158.205L361.718 159.62Z" fill="#7087BE"/>
<path fill-rule="evenodd" clip-rule="evenodd" d="M364.32 161.1L362.719 160.189L362.941 158.773L364.542 159.684L364.32 161.1Z" fill="#7087BE"/>
<path fill-rule="evenodd" clip-rule="evenodd" d="M366.816 162.52L365.215 161.608L365.437 160.193L367.039 161.104L366.816 162.52Z" fill="#7087BE"/>
<path fill-rule="evenodd" clip-rule="evenodd" d="M352.902 158.13L349.629 156.27L349.852 154.853L353.124 156.715L352.902 158.13Z" fill="#7087BE"/>
<path fill-rule="evenodd" clip-rule="evenodd" d="M370.654 140.039L375.193 142.621L375.415 141.204L370.877 138.624L370.654 140.039Z" fill="#7087BE"/>
<path fill-rule="evenodd" clip-rule="evenodd" d="M371.121 143.827L374.687 145.855L374.909 144.439L371.343 142.411L371.121 143.827Z" fill="#7087BE"/>
<path fill-rule="evenodd" clip-rule="evenodd" d="M371.598 147.621L374.178 149.089L374.401 147.673L371.82 146.206L371.598 147.621Z" fill="#7087BE"/>
<path fill-rule="evenodd" clip-rule="evenodd" d="M369.916 150.189L373.669 152.323L373.892 150.907L370.138 148.773L369.916 150.189Z" fill="#7087BE"/>
<path fill-rule="evenodd" clip-rule="evenodd" d="M370.584 154.09L373.165 155.558L373.387 154.142L370.806 152.675L370.584 154.09Z" fill="#7087BE"/>
<path fill-rule="evenodd" clip-rule="evenodd" d="M369.383 156.931L372.656 158.792L372.878 157.376L369.605 155.516L369.383 156.931Z" fill="#7087BE"/>
<path fill-rule="evenodd" clip-rule="evenodd" d="M370.365 161.012L372.149 162.026L372.371 160.61L370.587 159.597L370.365 161.012Z" fill="#7087BE"/>
<path fill-rule="evenodd" clip-rule="evenodd" d="M368.182 163.296L371.636 165.261L371.859 163.845L368.404 161.88L368.182 163.296Z" fill="#7087BE"/>
<path fill-rule="evenodd" clip-rule="evenodd" d="M367.859 166.634L371.132 168.495L371.355 167.078L368.082 165.218L367.859 166.634Z" fill="#7087BE"/>
<path fill-rule="evenodd" clip-rule="evenodd" d="M355.294 159.49L353.902 158.699L354.125 157.283L355.516 158.075L355.294 159.49Z" fill="#7087BE"/>
<path fill-rule="evenodd" clip-rule="evenodd" d="M359.429 161.841L356.297 160.059L356.519 158.643L359.652 160.425L359.429 161.841Z" fill="#7087BE"/>
<path fill-rule="evenodd" clip-rule="evenodd" d="M330.276 148.865L323.73 145.143L323.953 143.728L330.498 147.45L330.276 148.865Z" fill="#7087BE"/>
<path fill-rule="evenodd" clip-rule="evenodd" d="M333.634 150.774L331.277 149.434L331.5 148.018L333.857 149.358L333.634 150.774Z" fill="#7087BE"/>
<path fill-rule="evenodd" clip-rule="evenodd" d="M336.232 152.254L334.631 151.343L334.853 149.927L336.455 150.838L336.232 152.254Z" fill="#7087BE"/>
<path fill-rule="evenodd" clip-rule="evenodd" d="M326.791 150.406L323.225 148.377L323.447 146.961L327.014 148.99L326.791 150.406Z" fill="#7087BE"/>
<path fill-rule="evenodd" clip-rule="evenodd" d="M332.158 153.46L327.787 150.975L328.009 149.558L332.38 152.044L332.158 153.46Z" fill="#7087BE"/>
<path fill-rule="evenodd" clip-rule="evenodd" d="M334.76 154.939L333.158 154.028L333.381 152.613L334.982 153.524L334.76 154.939Z" fill="#7087BE"/>
<path fill-rule="evenodd" clip-rule="evenodd" d="M337.238 156.347L335.637 155.436L335.859 154.021L337.461 154.932L337.238 156.347Z" fill="#7087BE"/>
<path fill-rule="evenodd" clip-rule="evenodd" d="M325.294 153.079L322.713 151.612L322.935 150.196L325.516 151.664L325.294 153.079Z" fill="#7087BE"/>
<path fill-rule="evenodd" clip-rule="evenodd" d="M327.173 154.149L326.291 153.648L326.513 152.232L327.396 152.734L327.173 154.149Z" fill="#7087BE"/>
<path fill-rule="evenodd" clip-rule="evenodd" d="M329.781 155.629L328.18 154.718L328.402 153.302L330.003 154.213L329.781 155.629Z" fill="#7087BE"/>
<path fill-rule="evenodd" clip-rule="evenodd" d="M331.732 160.262L322.207 154.846L322.429 153.43L331.954 158.847L331.732 160.262Z" fill="#7087BE"/>
<path fill-rule="evenodd" clip-rule="evenodd" d="M335.087 162.172L332.73 160.831L332.953 159.416L335.31 160.756L335.087 162.172Z" fill="#7087BE"/>
<path fill-rule="evenodd" clip-rule="evenodd" d="M324.275 159.548L321.695 158.08L321.918 156.665L324.498 158.132L324.275 159.548Z" fill="#7087BE"/>
<path fill-rule="evenodd" clip-rule="evenodd" d="M330.335 162.992L325.279 160.117L325.502 158.701L330.557 161.577L330.335 162.992Z" fill="#7087BE"/>
<path fill-rule="evenodd" clip-rule="evenodd" d="M332.934 164.471L331.332 163.56L331.554 162.144L333.156 163.056L332.934 164.471Z" fill="#7087BE"/>
<path fill-rule="evenodd" clip-rule="evenodd" d="M326.471 164.318L321.191 161.315L321.414 159.899L326.693 162.902L326.471 164.318Z" fill="#7087BE"/>
<path fill-rule="evenodd" clip-rule="evenodd" d="M331.287 167.057L327.469 164.886L327.691 163.47L331.509 165.642L331.287 167.057Z" fill="#7087BE"/>
<path fill-rule="evenodd" clip-rule="evenodd" d="M334.868 169.094L332.287 167.626L332.509 166.211L335.09 167.678L334.868 169.094Z" fill="#7087BE"/>
<path fill-rule="evenodd" clip-rule="evenodd" d="M322.463 165.563L320.68 164.549L320.903 163.134L322.685 164.148L322.463 165.563Z" fill="#7087BE"/>
<path fill-rule="evenodd" clip-rule="evenodd" d="M325.822 167.472L323.465 166.132L323.688 164.716L326.043 166.057L325.822 167.472Z" fill="#7087BE"/>
<path fill-rule="evenodd" clip-rule="evenodd" d="M330.618 170.2L326.82 168.041L327.043 166.625L330.84 168.784L330.618 170.2Z" fill="#7087BE"/>
<path fill-rule="evenodd" clip-rule="evenodd" d="M325.636 170.89L320.174 167.784L320.396 166.368L325.859 169.475L325.636 170.89Z" fill="#7087BE"/>
<path fill-rule="evenodd" clip-rule="evenodd" d="M331.753 174.369L326.635 171.458L326.857 170.042L331.975 172.954L331.753 174.369Z" fill="#7087BE"/>
<path fill-rule="evenodd" clip-rule="evenodd" d="M334.355 175.849L332.754 174.938L332.976 173.522L334.578 174.433L334.355 175.849Z" fill="#7087BE"/>
<path fill-rule="evenodd" clip-rule="evenodd" d="M336.853 177.268L335.252 176.358L335.474 174.941L337.076 175.853L336.853 177.268Z" fill="#7087BE"/>
<path fill-rule="evenodd" clip-rule="evenodd" d="M322.937 172.879L319.664 171.018L319.887 169.603L323.159 171.464L322.937 172.879Z" fill="#7087BE"/>
<path fill-rule="evenodd" clip-rule="evenodd" d="M340.689 154.788L345.228 157.369L345.45 155.953L340.912 153.372L340.689 154.788Z" fill="#7087BE"/>
<path fill-rule="evenodd" clip-rule="evenodd" d="M341.156 158.575L344.722 160.603L344.945 159.187L341.379 157.16L341.156 158.575Z" fill="#7087BE"/>
<path fill-rule="evenodd" clip-rule="evenodd" d="M341.631 162.37L344.212 163.838L344.434 162.422L341.853 160.955L341.631 162.37Z" fill="#7087BE"/>
<path fill-rule="evenodd" clip-rule="evenodd" d="M339.951 164.937L343.705 167.072L343.927 165.656L340.173 163.522L339.951 164.937Z" fill="#7087BE"/>
<path fill-rule="evenodd" clip-rule="evenodd" d="M340.615 168.839L343.196 170.307L343.418 168.891L340.838 167.424L340.615 168.839Z" fill="#7087BE"/>
<path fill-rule="evenodd" clip-rule="evenodd" d="M340.395 175.761L342.178 176.775L342.4 175.359L340.617 174.345L340.395 175.761Z" fill="#7087BE"/>
<path fill-rule="evenodd" clip-rule="evenodd" d="M338.215 178.045L341.67 180.009L341.893 178.594L338.437 176.629L338.215 178.045Z" fill="#7087BE"/>
<path fill-rule="evenodd" clip-rule="evenodd" d="M337.891 181.382L341.164 183.244L341.386 181.828L338.113 179.967L337.891 181.382Z" fill="#7087BE"/>
<path fill-rule="evenodd" clip-rule="evenodd" d="M325.329 174.239L323.938 173.448L324.16 172.032L325.551 172.824L325.329 174.239Z" fill="#7087BE"/>
<path fill-rule="evenodd" clip-rule="evenodd" d="M329.462 176.589L326.33 174.807L326.552 173.392L329.685 175.174L329.462 176.589Z" fill="#7087BE"/>
<path fill-rule="evenodd" clip-rule="evenodd" d="M330.578 187.469L325.291 184.463L325.513 183.047L330.8 186.054L330.578 187.469Z" fill="#7087BE"/>
<path fill-rule="evenodd" clip-rule="evenodd" d="M334.195 189.528L332.113 188.343L332.336 186.928L334.417 188.113L334.195 189.528Z" fill="#7087BE"/>
<path fill-rule="evenodd" clip-rule="evenodd" d="M355.664 163.245L349.119 159.522L349.341 158.106L355.887 161.829L355.664 163.245Z" fill="#7087BE"/>
<path fill-rule="evenodd" clip-rule="evenodd" d="M361.625 166.633L360.023 165.722L360.246 164.306L361.847 165.217L361.625 166.633Z" fill="#7087BE"/>
<path fill-rule="evenodd" clip-rule="evenodd" d="M352.175 164.785L348.609 162.756L348.832 161.341L352.398 163.369L352.175 164.785Z" fill="#7087BE"/>
<path fill-rule="evenodd" clip-rule="evenodd" d="M360.15 169.318L358.549 168.408L358.771 166.991L360.372 167.903L360.15 169.318Z" fill="#7087BE"/>
<path fill-rule="evenodd" clip-rule="evenodd" d="M362.627 170.726L361.025 169.816L361.248 168.399L362.849 169.311L362.627 170.726Z" fill="#7087BE"/>
<path fill-rule="evenodd" clip-rule="evenodd" d="M350.682 167.458L348.102 165.99L348.324 164.575L350.905 166.043L350.682 167.458Z" fill="#7087BE"/>
<path fill-rule="evenodd" clip-rule="evenodd" d="M352.567 168.528L351.686 168.027L351.908 166.611L352.79 167.113L352.567 168.528Z" fill="#7087BE"/>
<path fill-rule="evenodd" clip-rule="evenodd" d="M355.169 170.008L353.568 169.097L353.791 167.681L355.391 168.592L355.169 170.008Z" fill="#7087BE"/>
<path fill-rule="evenodd" clip-rule="evenodd" d="M360.478 176.55L358.121 175.21L358.344 173.794L360.7 175.135L360.478 176.55Z" fill="#7087BE"/>
<path fill-rule="evenodd" clip-rule="evenodd" d="M349.67 173.927L347.09 172.459L347.312 171.044L349.893 172.511L349.67 173.927Z" fill="#7087BE"/>
<path fill-rule="evenodd" clip-rule="evenodd" d="M358.326 178.85L356.725 177.94L356.947 176.523L358.548 177.435L358.326 178.85Z" fill="#7087BE"/>
<path fill-rule="evenodd" clip-rule="evenodd" d="M356.677 181.437L352.859 179.265L353.081 177.849L356.899 180.021L356.677 181.437Z" fill="#8648FE"/>
<path fill-rule="evenodd" clip-rule="evenodd" d="M360.26 183.472L357.68 182.005L357.902 180.59L360.483 182.057L360.26 183.472Z" fill="#7087BE"/>
<path fill-rule="evenodd" clip-rule="evenodd" d="M347.856 179.942L346.072 178.928L346.295 177.513L348.078 178.527L347.856 179.942Z" fill="#7087BE"/>
<path fill-rule="evenodd" clip-rule="evenodd" d="M351.212 181.851L348.855 180.511L349.078 179.095L351.435 180.436L351.212 181.851Z" fill="#7087BE"/>
<path fill-rule="evenodd" clip-rule="evenodd" d="M356.011 184.579L352.215 182.42L352.437 181.004L356.234 183.164L356.011 184.579Z" fill="#7087BE"/>
<path fill-rule="evenodd" clip-rule="evenodd" d="M351.028 185.269L345.566 182.162L345.788 180.746L351.251 183.853L351.028 185.269Z" fill="#8648FE"/>
<path fill-rule="evenodd" clip-rule="evenodd" d="M357.145 188.748L352.027 185.838L352.25 184.422L357.367 187.333L357.145 188.748Z" fill="#7087BE"/>
<path fill-rule="evenodd" clip-rule="evenodd" d="M359.744 190.227L358.143 189.317L358.365 187.901L359.966 188.812L359.744 190.227Z" fill="#7087BE"/>
<path fill-rule="evenodd" clip-rule="evenodd" d="M362.244 191.647L360.643 190.737L360.865 189.32L362.466 190.232L362.244 191.647Z" fill="#7087BE"/>
<path fill-rule="evenodd" clip-rule="evenodd" d="M348.328 187.258L345.055 185.397L345.278 183.981L348.55 185.843L348.328 187.258Z" fill="#7087BE"/>
<path fill-rule="evenodd" clip-rule="evenodd" d="M366.08 169.167L370.618 171.748L370.84 170.332L366.302 167.751L366.08 169.167Z" fill="#7087BE"/>
<path fill-rule="evenodd" clip-rule="evenodd" d="M366.543 172.954L370.109 174.982L370.331 173.567L366.765 171.539L366.543 172.954Z" fill="#7087BE"/>
<path fill-rule="evenodd" clip-rule="evenodd" d="M367.021 176.749L369.602 178.217L369.824 176.801L367.244 175.334L367.021 176.749Z" fill="#7087BE"/>
<path fill-rule="evenodd" clip-rule="evenodd" d="M365.342 179.317L369.096 181.451L369.318 180.036L365.564 177.901L365.342 179.317Z" fill="#7087BE"/>
<path fill-rule="evenodd" clip-rule="evenodd" d="M366.008 183.218L368.588 184.685L368.81 183.269L366.229 181.803L366.008 183.218Z" fill="#7087BE"/>
<path fill-rule="evenodd" clip-rule="evenodd" d="M364.807 186.059L368.08 187.92L368.302 186.503L365.029 184.643L364.807 186.059Z" fill="#7087BE"/>
<path fill-rule="evenodd" clip-rule="evenodd" d="M365.789 190.14L367.572 191.154L367.795 189.738L366.011 188.725L365.789 190.14Z" fill="#7087BE"/>
<path fill-rule="evenodd" clip-rule="evenodd" d="M363.605 192.423L367.061 194.388L367.283 192.973L363.828 191.008L363.605 192.423Z" fill="#7087BE"/>
<path fill-rule="evenodd" clip-rule="evenodd" d="M363.279 195.761L366.552 197.623L366.775 196.207L363.502 194.346L363.279 195.761Z" fill="#7087BE"/>
<path fill-rule="evenodd" clip-rule="evenodd" d="M350.719 188.618L349.328 187.827L349.55 186.41L350.941 187.203L350.719 188.618Z" fill="#7087BE"/>
<path fill-rule="evenodd" clip-rule="evenodd" d="M354.853 190.968L351.721 189.187L351.943 187.771L355.075 189.553L354.853 190.968Z" fill="#7087BE"/>
<path fill-rule="evenodd" clip-rule="evenodd" d="M355.966 201.848L350.68 198.842L350.902 197.426L356.188 200.432L355.966 201.848Z" fill="#7087BE"/>
<path fill-rule="evenodd" clip-rule="evenodd" d="M359.588 203.907L357.506 202.723L357.728 201.307L359.811 202.491L359.588 203.907Z" fill="#7087BE"/>
<path fill-rule="evenodd" clip-rule="evenodd" d="M273.829 84.7288L267.283 81.0064L267.506 79.5908L274.051 83.3132L273.829 84.7288Z" fill="#8648FE"/>
<path fill-rule="evenodd" clip-rule="evenodd" d="M277.189 86.6376L274.832 85.2976L275.055 83.8813L277.411 85.2221L277.189 86.6376Z" fill="#7087BE"/>
<path fill-rule="evenodd" clip-rule="evenodd" d="M279.79 88.117L278.189 87.2065L278.411 85.7903L280.013 86.7015L279.79 88.117Z" fill="#7087BE"/>
<path fill-rule="evenodd" clip-rule="evenodd" d="M270.342 86.269L266.775 84.2407L266.998 82.8245L270.564 84.8534L270.342 86.269Z" fill="#7087BE"/>
<path fill-rule="evenodd" clip-rule="evenodd" d="M275.717 89.3232L271.346 86.8373L271.569 85.4218L275.939 87.9077L275.717 89.3232Z" fill="#7087BE"/>
<path fill-rule="evenodd" clip-rule="evenodd" d="M278.316 90.8023L276.715 89.8918L276.937 88.4756L278.538 89.3868L278.316 90.8023Z" fill="#7087BE"/>
<path fill-rule="evenodd" clip-rule="evenodd" d="M280.791 92.2104L279.189 91.2992L279.412 89.8837L281.013 90.7942L280.791 92.2104Z" fill="#7087BE"/>
<path fill-rule="evenodd" clip-rule="evenodd" d="M268.848 88.9427L266.268 87.475L266.49 86.0594L269.071 87.5271L268.848 88.9427Z" fill="#7087BE"/>
<path fill-rule="evenodd" clip-rule="evenodd" d="M270.731 90.0128L269.85 89.5112L270.072 88.0957L270.954 88.5973L270.731 90.0128Z" fill="#7087BE"/>
<path fill-rule="evenodd" clip-rule="evenodd" d="M273.334 91.4922L271.732 90.5816L271.955 89.1654L273.556 90.0766L273.334 91.4922Z" fill="#7087BE"/>
<path fill-rule="evenodd" clip-rule="evenodd" d="M275.282 96.1258L265.758 90.7092L265.98 89.2937L275.504 94.7102L275.282 96.1258Z" fill="#7087BE"/>
<path fill-rule="evenodd" clip-rule="evenodd" d="M278.644 98.0347L276.287 96.6947L276.51 95.2784L278.866 96.6192L278.644 98.0347Z" fill="#7087BE"/>
<path fill-rule="evenodd" clip-rule="evenodd" d="M267.833 95.4112L265.252 93.9435L265.474 92.528L268.055 93.9956L267.833 95.4112Z" fill="#7087BE"/>
<path fill-rule="evenodd" clip-rule="evenodd" d="M273.892 98.8553L268.836 95.9803L269.058 94.5641L274.114 97.4391L273.892 98.8553Z" fill="#7087BE"/>
<path fill-rule="evenodd" clip-rule="evenodd" d="M276.488 100.335L274.887 99.424L275.109 98.0078L276.71 98.919L276.488 100.335Z" fill="#7087BE"/>
<path fill-rule="evenodd" clip-rule="evenodd" d="M270.023 100.181L264.744 97.1781L264.966 95.7626L270.246 98.7652L270.023 100.181Z" fill="#7087BE"/>
<path fill-rule="evenodd" clip-rule="evenodd" d="M274.841 102.921L271.023 100.749L271.246 99.3335L275.064 101.505L274.841 102.921Z" fill="#7087BE"/>
<path fill-rule="evenodd" clip-rule="evenodd" d="M278.424 104.957L275.844 103.489L276.066 102.074L278.647 103.541L278.424 104.957Z" fill="#7087BE"/>
<path fill-rule="evenodd" clip-rule="evenodd" d="M266.02 101.426L264.236 100.412L264.459 98.9961L266.242 100.011L266.02 101.426Z" fill="#7087BE"/>
<path fill-rule="evenodd" clip-rule="evenodd" d="M269.378 103.335L267.021 101.995L267.244 100.579L269.601 101.92L269.378 103.335Z" fill="#7087BE"/>
<path fill-rule="evenodd" clip-rule="evenodd" d="M274.174 106.064L270.377 103.904L270.6 102.488L274.396 104.648L274.174 106.064Z" fill="#7087BE"/>
<path fill-rule="evenodd" clip-rule="evenodd" d="M269.194 106.753L263.732 103.647L263.955 102.231L269.417 105.338L269.194 106.753Z" fill="#7087BE"/>
<path fill-rule="evenodd" clip-rule="evenodd" d="M275.308 110.233L270.189 107.322L270.412 105.906L275.53 108.817L275.308 110.233Z" fill="#7087BE"/>
<path fill-rule="evenodd" clip-rule="evenodd" d="M277.914 111.712L276.312 110.801L276.535 109.385L278.136 110.296L277.914 111.712Z" fill="#7087BE"/>
<path fill-rule="evenodd" clip-rule="evenodd" d="M280.404 113.132L278.803 112.221L279.024 110.805L280.626 111.716L280.404 113.132Z" fill="#7087BE"/>
<path fill-rule="evenodd" clip-rule="evenodd" d="M266.496 108.742L263.223 106.881L263.446 105.465L266.718 107.327L266.496 108.742Z" fill="#7087BE"/>
<path fill-rule="evenodd" clip-rule="evenodd" d="M284.244 90.6513L288.782 93.2326L289.005 91.8164L284.466 89.2357L284.244 90.6513Z" fill="#7087BE"/>
<path fill-rule="evenodd" clip-rule="evenodd" d="M284.707 94.4386L288.273 96.4669L288.495 95.0507L284.929 93.0231L284.707 94.4386Z" fill="#7087BE"/>
<path fill-rule="evenodd" clip-rule="evenodd" d="M285.184 98.2335L287.764 99.7012L287.987 98.285L285.406 96.818L285.184 98.2335Z" fill="#7087BE"/>
<path fill-rule="evenodd" clip-rule="evenodd" d="M283.506 100.801L287.259 102.936L287.481 101.519L283.728 99.3854L283.506 100.801Z" fill="#7087BE"/>
<path fill-rule="evenodd" clip-rule="evenodd" d="M284.168 104.702L286.749 106.17L286.971 104.754L284.39 103.287L284.168 104.702Z" fill="#7087BE"/>
<path fill-rule="evenodd" clip-rule="evenodd" d="M282.973 107.543L286.246 109.404L286.468 107.988L283.195 106.127L282.973 107.543Z" fill="#7087BE"/>
<path fill-rule="evenodd" clip-rule="evenodd" d="M283.951 111.624L285.735 112.639L285.957 111.223L284.173 110.209L283.951 111.624Z" fill="#7087BE"/>
<path fill-rule="evenodd" clip-rule="evenodd" d="M281.771 113.908L285.227 115.873L285.449 114.457L281.994 112.492L281.771 113.908Z" fill="#7087BE"/>
<path fill-rule="evenodd" clip-rule="evenodd" d="M281.449 117.246L284.722 119.107L284.945 117.691L281.672 115.83L281.449 117.246Z" fill="#7087BE"/>
<path fill-rule="evenodd" clip-rule="evenodd" d="M268.884 110.102L267.492 109.311L267.715 107.895L269.106 108.687L268.884 110.102Z" fill="#7087BE"/>
<path fill-rule="evenodd" clip-rule="evenodd" d="M273.016 112.453L269.883 110.671L270.105 109.255L273.238 111.037L273.016 112.453Z" fill="#7087BE"/>
<path fill-rule="evenodd" clip-rule="evenodd" d="M299.223 99.1077L292.678 95.3853L292.9 93.9697L299.445 97.6921L299.223 99.1077Z" fill="#7087BE"/>
<path fill-rule="evenodd" clip-rule="evenodd" d="M302.576 101.017L300.219 99.6766L300.442 98.2604L302.798 99.6011L302.576 101.017Z" fill="#7087BE"/>
<path fill-rule="evenodd" clip-rule="evenodd" d="M305.179 102.496L303.578 101.585L303.8 100.169L305.401 101.08L305.179 102.496Z" fill="#7087BE"/>
<path fill-rule="evenodd" clip-rule="evenodd" d="M295.734 100.648L292.168 98.6195L292.39 97.204L295.956 99.2323L295.734 100.648Z" fill="#7087BE"/>
<path fill-rule="evenodd" clip-rule="evenodd" d="M301.103 103.702L296.732 101.217L296.955 99.8005L301.326 102.286L301.103 103.702Z" fill="#7087BE"/>
<path fill-rule="evenodd" clip-rule="evenodd" d="M303.703 105.181L302.102 104.271L302.324 102.855L303.925 103.766L303.703 105.181Z" fill="#7087BE"/>
<path fill-rule="evenodd" clip-rule="evenodd" d="M306.178 106.589L304.576 105.679L304.798 104.263L306.4 105.174L306.178 106.589Z" fill="#7087BE"/>
<path fill-rule="evenodd" clip-rule="evenodd" d="M294.241 103.321L291.66 101.854L291.882 100.438L294.463 101.906L294.241 103.321Z" fill="#7087BE"/>
<path fill-rule="evenodd" clip-rule="evenodd" d="M296.122 104.392L295.24 103.89L295.462 102.475L296.344 102.976L296.122 104.392Z" fill="#7087BE"/>
<path fill-rule="evenodd" clip-rule="evenodd" d="M298.725 105.871L297.123 104.961L297.345 103.544L298.947 104.456L298.725 105.871Z" fill="#7087BE"/>
<path fill-rule="evenodd" clip-rule="evenodd" d="M300.675 110.505L291.15 105.088L291.373 103.672L300.897 109.089L300.675 110.505Z" fill="#8648FE"/>
<path fill-rule="evenodd" clip-rule="evenodd" d="M304.029 112.414L301.672 111.074L301.895 109.657L304.251 110.998L304.029 112.414Z" fill="#7087BE"/>
<path fill-rule="evenodd" clip-rule="evenodd" d="M293.225 109.79L290.645 108.323L290.867 106.907L293.447 108.375L293.225 109.79Z" fill="#7087BE"/>
<path fill-rule="evenodd" clip-rule="evenodd" d="M299.28 113.234L294.225 110.359L294.447 108.943L299.503 111.819L299.28 113.234Z" fill="#7087BE"/>
<path fill-rule="evenodd" clip-rule="evenodd" d="M301.88 114.714L300.279 113.803L300.502 112.387L302.102 113.298L301.88 114.714Z" fill="#7087BE"/>
<path fill-rule="evenodd" clip-rule="evenodd" d="M295.412 114.56L290.133 111.557L290.355 110.141L295.634 113.144L295.412 114.56Z" fill="#7087BE"/>
<path fill-rule="evenodd" clip-rule="evenodd" d="M300.236 117.299L296.418 115.128L296.64 113.712L300.458 115.884L300.236 117.299Z" fill="#7087BE"/>
<path fill-rule="evenodd" clip-rule="evenodd" d="M303.809 119.336L301.229 117.868L301.451 116.453L304.031 117.92L303.809 119.336Z" fill="#7087BE"/>
<path fill-rule="evenodd" clip-rule="evenodd" d="M291.41 115.806L289.627 114.791L289.85 113.375L291.633 114.39L291.41 115.806Z" fill="#7087BE"/>
<path fill-rule="evenodd" clip-rule="evenodd" d="M294.763 117.714L292.406 116.374L292.629 114.958L294.986 116.299L294.763 117.714Z" fill="#7087BE"/>
<path fill-rule="evenodd" clip-rule="evenodd" d="M299.561 120.443L295.764 118.283L295.986 116.868L299.783 119.027L299.561 120.443Z" fill="#7087BE"/>
<path fill-rule="evenodd" clip-rule="evenodd" d="M294.578 121.132L289.115 118.026L289.338 116.61L294.8 119.716L294.578 121.132Z" fill="#7087BE"/>
<path fill-rule="evenodd" clip-rule="evenodd" d="M300.7 124.611L295.582 121.701L295.804 120.285L300.922 123.196L300.7 124.611Z" fill="#7087BE"/>
<path fill-rule="evenodd" clip-rule="evenodd" d="M303.301 126.091L301.699 125.18L301.922 123.764L303.523 124.676L303.301 126.091Z" fill="#7087BE"/>
<path fill-rule="evenodd" clip-rule="evenodd" d="M305.797 127.51L304.195 126.6L304.418 125.184L306.019 126.095L305.797 127.51Z" fill="#7087BE"/>
<path fill-rule="evenodd" clip-rule="evenodd" d="M291.882 123.121L288.609 121.26L288.832 119.844L292.105 121.706L291.882 123.121Z" fill="#7087BE"/>
<path fill-rule="evenodd" clip-rule="evenodd" d="M309.637 105.03L314.175 107.611L314.397 106.196L309.859 103.615L309.637 105.03Z" fill="#7087BE"/>
<path fill-rule="evenodd" clip-rule="evenodd" d="M310.102 108.817L313.668 110.846L313.891 109.43L310.324 107.402L310.102 108.817Z" fill="#7087BE"/>
<path fill-rule="evenodd" clip-rule="evenodd" d="M310.578 112.613L313.158 114.08L313.38 112.664L310.8 111.197L310.578 112.613Z" fill="#7087BE"/>
<path fill-rule="evenodd" clip-rule="evenodd" d="M308.895 115.18L312.648 117.314L312.87 115.898L309.117 113.764L308.895 115.18Z" fill="#7087BE"/>
<path fill-rule="evenodd" clip-rule="evenodd" d="M309.562 119.081L312.143 120.549L312.365 119.133L309.785 117.666L309.562 119.081Z" fill="#7087BE"/>
<path fill-rule="evenodd" clip-rule="evenodd" d="M308.359 121.922L311.632 123.783L311.855 122.367L308.582 120.506L308.359 121.922Z" fill="#7087BE"/>
<path fill-rule="evenodd" clip-rule="evenodd" d="M309.34 126.003L311.123 127.017L311.345 125.602L309.562 124.588L309.34 126.003Z" fill="#7087BE"/>
<path fill-rule="evenodd" clip-rule="evenodd" d="M307.16 128.287L310.616 130.252L310.838 128.836L307.382 126.871L307.16 128.287Z" fill="#7087BE"/>
<path fill-rule="evenodd" clip-rule="evenodd" d="M306.838 131.625L310.111 133.486L310.333 132.07L307.06 130.209L306.838 131.625Z" fill="#7087BE"/>
<path fill-rule="evenodd" clip-rule="evenodd" d="M294.274 124.481L292.883 123.69L293.105 122.274L294.497 123.066L294.274 124.481Z" fill="#7087BE"/>
<path fill-rule="evenodd" clip-rule="evenodd" d="M298.404 126.832L295.271 125.05L295.494 123.634L298.626 125.416L298.404 126.832Z" fill="#7087BE"/>
<path fill-rule="evenodd" clip-rule="evenodd" d="M269.256 113.857L262.711 110.134L262.933 108.719L269.479 112.441L269.256 113.857Z" fill="#7087BE"/>
<path fill-rule="evenodd" clip-rule="evenodd" d="M272.612 115.765L270.256 114.425L270.478 113.009L272.834 114.35L272.612 115.765Z" fill="#7087BE"/>
<path fill-rule="evenodd" clip-rule="evenodd" d="M275.211 117.245L273.609 116.334L273.832 114.918L275.433 115.829L275.211 117.245Z" fill="#7087BE"/>
<path fill-rule="evenodd" clip-rule="evenodd" d="M265.772 115.397L262.205 113.369L262.427 111.952L265.994 113.981L265.772 115.397Z" fill="#7087BE"/>
<path fill-rule="evenodd" clip-rule="evenodd" d="M271.136 118.451L266.766 115.965L266.988 114.55L271.359 117.036L271.136 118.451Z" fill="#7087BE"/>
<path fill-rule="evenodd" clip-rule="evenodd" d="M273.74 119.93L272.139 119.02L272.361 117.604L273.962 118.515L273.74 119.93Z" fill="#7087BE"/>
<path fill-rule="evenodd" clip-rule="evenodd" d="M276.217 121.338L274.615 120.428L274.838 119.011L276.439 119.923L276.217 121.338Z" fill="#7087BE"/>
<path fill-rule="evenodd" clip-rule="evenodd" d="M264.275 118.07L261.695 116.603L261.918 115.187L264.498 116.655L264.275 118.07Z" fill="#7087BE"/>
<path fill-rule="evenodd" clip-rule="evenodd" d="M266.153 119.141L265.271 118.639L265.494 117.223L266.376 117.725L266.153 119.141Z" fill="#7087BE"/>
<path fill-rule="evenodd" clip-rule="evenodd" d="M268.754 120.62L267.152 119.71L267.375 118.293L268.976 119.205L268.754 120.62Z" fill="#7087BE"/>
<path fill-rule="evenodd" clip-rule="evenodd" d="M270.712 125.254L261.188 119.837L261.41 118.421L270.934 123.838L270.712 125.254Z" fill="#8648FE"/>
<path fill-rule="evenodd" clip-rule="evenodd" d="M274.064 127.163L271.707 125.822L271.93 124.406L274.286 125.747L274.064 127.163Z" fill="#7087BE"/>
<path fill-rule="evenodd" clip-rule="evenodd" d="M263.258 124.539L260.678 123.071L260.9 121.656L263.48 123.123L263.258 124.539Z" fill="#7087BE"/>
<path fill-rule="evenodd" clip-rule="evenodd" d="M269.31 127.983L264.254 125.108L264.477 123.692L269.533 126.567L269.31 127.983Z" fill="#7087BE"/>
<path fill-rule="evenodd" clip-rule="evenodd" d="M271.914 129.463L270.312 128.552L270.535 127.136L272.136 128.047L271.914 129.463Z" fill="#7087BE"/>
<path fill-rule="evenodd" clip-rule="evenodd" d="M265.451 129.308L260.172 126.306L260.394 124.89L265.673 127.893L265.451 129.308Z" fill="#7087BE"/>
<path fill-rule="evenodd" clip-rule="evenodd" d="M270.267 132.049L266.449 129.877L266.672 128.461L270.489 130.633L270.267 132.049Z" fill="#8648FE"/>
<path fill-rule="evenodd" clip-rule="evenodd" d="M273.848 134.085L271.268 132.617L271.49 131.201L274.071 132.669L273.848 134.085Z" fill="#7087BE"/>
<path fill-rule="evenodd" clip-rule="evenodd" d="M261.443 130.554L259.66 129.54L259.882 128.124L261.666 129.139L261.443 130.554Z" fill="#7087BE"/>
<path fill-rule="evenodd" clip-rule="evenodd" d="M264.8 132.463L262.443 131.123L262.666 129.707L265.022 131.048L264.8 132.463Z" fill="#7087BE"/>
<path fill-rule="evenodd" clip-rule="evenodd" d="M269.596 135.191L265.799 133.032L266.021 131.616L269.818 133.776L269.596 135.191Z" fill="#7087BE"/>
<path fill-rule="evenodd" clip-rule="evenodd" d="M264.616 135.881L259.154 132.775L259.377 131.359L264.838 134.466L264.616 135.881Z" fill="#8648FE"/>
<path fill-rule="evenodd" clip-rule="evenodd" d="M270.733 139.36L265.615 136.45L265.838 135.034L270.956 137.945L270.733 139.36Z" fill="#7087BE"/>
<path fill-rule="evenodd" clip-rule="evenodd" d="M273.335 140.84L271.734 139.929L271.957 138.513L273.557 139.424L273.335 140.84Z" fill="#7087BE"/>
<path fill-rule="evenodd" clip-rule="evenodd" d="M275.83 142.259L274.229 141.349L274.451 139.932L276.052 140.844L275.83 142.259Z" fill="#7087BE"/>
<path fill-rule="evenodd" clip-rule="evenodd" d="M261.918 137.87L258.645 136.009L258.867 134.593L262.14 136.455L261.918 137.87Z" fill="#7087BE"/>
<path fill-rule="evenodd" clip-rule="evenodd" d="M279.668 119.779L284.206 122.361L284.429 120.944L279.89 118.364L279.668 119.779Z" fill="#7087BE"/>
<path fill-rule="evenodd" clip-rule="evenodd" d="M280.137 123.566L283.703 125.595L283.925 124.178L280.359 122.151L280.137 123.566Z" fill="#7087BE"/>
<path fill-rule="evenodd" clip-rule="evenodd" d="M280.613 127.361L283.194 128.829L283.416 127.413L280.836 125.946L280.613 127.361Z" fill="#7087BE"/>
<path fill-rule="evenodd" clip-rule="evenodd" d="M278.932 129.928L282.685 132.063L282.908 130.648L279.154 128.513L278.932 129.928Z" fill="#7087BE"/>
<path fill-rule="evenodd" clip-rule="evenodd" d="M279.596 133.83L282.176 135.298L282.399 133.882L279.818 132.415L279.596 133.83Z" fill="#7087BE"/>
<path fill-rule="evenodd" clip-rule="evenodd" d="M278.395 136.671L281.668 138.532L281.89 137.116L278.617 135.255L278.395 136.671Z" fill="#7087BE"/>
<path fill-rule="evenodd" clip-rule="evenodd" d="M279.373 140.752L281.156 141.766L281.379 140.351L279.595 139.337L279.373 140.752Z" fill="#7087BE"/>
<path fill-rule="evenodd" clip-rule="evenodd" d="M277.195 143.036L280.651 145.001L280.873 143.584L277.418 141.62L277.195 143.036Z" fill="#7087BE"/>
<path fill-rule="evenodd" clip-rule="evenodd" d="M276.869 146.374L280.141 148.235L280.364 146.819L277.091 144.958L276.869 146.374Z" fill="#7087BE"/>
<path fill-rule="evenodd" clip-rule="evenodd" d="M264.308 139.23L262.916 138.439L263.138 137.023L264.53 137.815L264.308 139.23Z" fill="#7087BE"/>
<path fill-rule="evenodd" clip-rule="evenodd" d="M268.442 141.581L265.309 139.799L265.531 138.383L268.664 140.165L268.442 141.581Z" fill="#7087BE"/>
<path fill-rule="evenodd" clip-rule="evenodd" d="M269.554 152.46L264.268 149.454L264.491 148.038L269.777 151.045L269.554 152.46Z" fill="#7087BE"/>
<path fill-rule="evenodd" clip-rule="evenodd" d="M273.174 154.519L271.092 153.335L271.315 151.919L273.397 153.104L273.174 154.519Z" fill="#7087BE"/>
<path fill-rule="evenodd" clip-rule="evenodd" d="M294.643 128.236L288.098 124.513L288.32 123.098L294.865 126.82L294.643 128.236Z" fill="#7087BE"/>
<path fill-rule="evenodd" clip-rule="evenodd" d="M298.003 130.144L295.646 128.804L295.869 127.388L298.226 128.729L298.003 130.144Z" fill="#7087BE"/>
<path fill-rule="evenodd" clip-rule="evenodd" d="M300.601 131.624L299 130.713L299.222 129.297L300.824 130.208L300.601 131.624Z" fill="#7087BE"/>
<path fill-rule="evenodd" clip-rule="evenodd" d="M291.158 129.776L287.592 127.747L287.814 126.332L291.38 128.36L291.158 129.776Z" fill="#7087BE"/>
<path fill-rule="evenodd" clip-rule="evenodd" d="M296.532 132.83L292.162 130.345L292.384 128.928L296.755 131.414L296.532 132.83Z" fill="#7087BE"/>
<path fill-rule="evenodd" clip-rule="evenodd" d="M299.131 134.309L297.529 133.399L297.752 131.983L299.353 132.894L299.131 134.309Z" fill="#7087BE"/>
<path fill-rule="evenodd" clip-rule="evenodd" d="M301.607 135.717L300.006 134.807L300.228 133.391L301.829 134.302L301.607 135.717Z" fill="#7087BE"/>
<path fill-rule="evenodd" clip-rule="evenodd" d="M289.662 132.449L287.082 130.982L287.304 129.566L289.884 131.034L289.662 132.449Z" fill="#7087BE"/>
<path fill-rule="evenodd" clip-rule="evenodd" d="M291.544 133.52L290.662 133.018L290.884 131.603L291.766 132.104L291.544 133.52Z" fill="#7087BE"/>
<path fill-rule="evenodd" clip-rule="evenodd" d="M294.146 134.999L292.545 134.088L292.767 132.672L294.369 133.583L294.146 134.999Z" fill="#7087BE"/>
<path fill-rule="evenodd" clip-rule="evenodd" d="M296.097 139.633L286.572 134.216L286.795 132.8L296.319 138.217L296.097 139.633Z" fill="#7087BE"/>
<path fill-rule="evenodd" clip-rule="evenodd" d="M299.459 141.542L297.102 140.202L297.325 138.785L299.681 140.126L299.459 141.542Z" fill="#7087BE"/>
<path fill-rule="evenodd" clip-rule="evenodd" d="M288.645 138.918L286.064 137.451L286.287 136.035L288.867 137.502L288.645 138.918Z" fill="#7087BE"/>
<path fill-rule="evenodd" clip-rule="evenodd" d="M294.7 142.362L289.645 139.487L289.867 138.071L294.922 140.946L294.7 142.362Z" fill="#7087BE"/>
<path fill-rule="evenodd" clip-rule="evenodd" d="M297.305 143.841L295.703 142.931L295.925 141.515L297.527 142.426L297.305 143.841Z" fill="#7087BE"/>
<path fill-rule="evenodd" clip-rule="evenodd" d="M290.838 143.687L285.559 140.685L285.781 139.269L291.06 142.272L290.838 143.687Z" fill="#7087BE"/>
<path fill-rule="evenodd" clip-rule="evenodd" d="M295.658 146.427L291.84 144.256L292.062 142.84L295.88 145.012L295.658 146.427Z" fill="#7087BE"/>
<path fill-rule="evenodd" clip-rule="evenodd" d="M299.241 148.464L296.66 146.997L296.882 145.58L299.463 147.048L299.241 148.464Z" fill="#7087BE"/>
<path fill-rule="evenodd" clip-rule="evenodd" d="M286.836 144.934L285.053 143.919L285.275 142.503L287.058 143.518L286.836 144.934Z" fill="#7087BE"/>
<path fill-rule="evenodd" clip-rule="evenodd" d="M290.193 146.842L287.836 145.502L288.059 144.086L290.415 145.427L290.193 146.842Z" fill="#7087BE"/>
<path fill-rule="evenodd" clip-rule="evenodd" d="M294.993 149.57L291.195 147.411L291.418 145.995L295.215 148.155L294.993 149.57Z" fill="#7087BE"/>
<path fill-rule="evenodd" clip-rule="evenodd" d="M290.007 150.26L284.545 147.154L284.767 145.738L290.23 148.844L290.007 150.26Z" fill="#7087BE"/>
<path fill-rule="evenodd" clip-rule="evenodd" d="M296.12 153.739L291.002 150.829L291.224 149.413L296.342 152.324L296.12 153.739Z" fill="#7087BE"/>
<path fill-rule="evenodd" clip-rule="evenodd" d="M298.726 155.219L297.125 154.308L297.347 152.892L298.948 153.803L298.726 155.219Z" fill="#7087BE"/>
<path fill-rule="evenodd" clip-rule="evenodd" d="M301.221 156.638L299.619 155.728L299.841 154.312L301.443 155.223L301.221 156.638Z" fill="#7087BE"/>
<path fill-rule="evenodd" clip-rule="evenodd" d="M287.308 152.249L284.035 150.388L284.258 148.972L287.53 150.834L287.308 152.249Z" fill="#7087BE"/>
<path fill-rule="evenodd" clip-rule="evenodd" d="M305.057 134.158L309.595 136.739L309.817 135.323L305.279 132.743L305.057 134.158Z" fill="#7087BE"/>
<path fill-rule="evenodd" clip-rule="evenodd" d="M305.521 137.945L309.088 139.974L309.31 138.558L305.744 136.53L305.521 137.945Z" fill="#7087BE"/>
<path fill-rule="evenodd" clip-rule="evenodd" d="M306.002 141.74L308.583 143.208L308.805 141.792L306.224 140.325L306.002 141.74Z" fill="#7087BE"/>
<path fill-rule="evenodd" clip-rule="evenodd" d="M304.322 144.308L308.076 146.442L308.298 145.026L304.545 142.892L304.322 144.308Z" fill="#7087BE"/>
<path fill-rule="evenodd" clip-rule="evenodd" d="M304.984 148.209L307.565 149.677L307.787 148.261L305.207 146.794L304.984 148.209Z" fill="#7087BE"/>
<path fill-rule="evenodd" clip-rule="evenodd" d="M303.785 151.05L307.058 152.91L307.28 151.495L304.007 149.634L303.785 151.05Z" fill="#7087BE"/>
<path fill-rule="evenodd" clip-rule="evenodd" d="M304.768 155.131L306.552 156.145L306.773 154.73L304.99 153.715L304.768 155.131Z" fill="#7087BE"/>
<path fill-rule="evenodd" clip-rule="evenodd" d="M302.584 157.414L306.039 159.38L306.261 157.964L302.806 155.999L302.584 157.414Z" fill="#7087BE"/>
<path fill-rule="evenodd" clip-rule="evenodd" d="M302.26 160.753L305.533 162.614L305.755 161.198L302.482 159.337L302.26 160.753Z" fill="#7087BE"/>
<path fill-rule="evenodd" clip-rule="evenodd" d="M289.7 153.609L288.309 152.818L288.531 151.402L289.922 152.194L289.7 153.609Z" fill="#7087BE"/>
<path fill-rule="evenodd" clip-rule="evenodd" d="M293.834 155.96L290.701 154.178L290.923 152.762L294.056 154.544L293.834 155.96Z" fill="#7087BE"/>
<path fill-rule="evenodd" clip-rule="evenodd" d="M294.946 166.839L289.66 163.833L289.882 162.417L295.169 165.423L294.946 166.839Z" fill="#7087BE"/>
<path fill-rule="evenodd" clip-rule="evenodd" d="M298.567 168.898L296.484 167.714L296.707 166.298L298.789 167.483L298.567 168.898Z" fill="#7087BE"/>
<path fill-rule="evenodd" clip-rule="evenodd" d="M278.903 112.827V112.821L272.789 116.343L278.756 122.68V127.642C278.756 127.976 278.958 128.363 279.209 128.507L349.895 169.319L349.943 176.305L356.119 172.748C356.125 172.744 356.132 172.742 356.138 172.737L356.142 172.735L356.141 172.733C356.217 172.669 356.266 172.554 356.266 172.394V157.932C356.266 157.599 356.063 157.212 355.813 157.067L279.209 112.839C279.147 112.803 279.089 112.788 279.036 112.788C278.986 112.788 278.942 112.801 278.903 112.827Z" fill="url(#paint7_linear_2455_22681)"/>
<mask id="mask2_2455_22681" style="mask-type:alpha" maskUnits="userSpaceOnUse" x="272" y="116" width="79" height="61">
<path fill-rule="evenodd" clip-rule="evenodd" d="M272.607 116.719V131.179C272.607 131.513 272.811 131.901 273.06 132.045L349.665 176.272C349.916 176.417 350.119 176.264 350.119 175.93V161.469C350.119 161.136 349.916 160.748 349.665 160.605L273.06 116.376C272.996 116.34 272.935 116.322 272.881 116.322C272.72 116.322 272.607 116.47 272.607 116.719Z" fill="white"/>
</mask>
<g mask="url(#mask2_2455_22681)">
<path fill-rule="evenodd" clip-rule="evenodd" d="M272.607 116.719V131.179C272.607 131.513 272.811 131.901 273.06 132.045L349.665 176.272C349.916 176.417 350.119 176.264 350.119 175.93V161.469C350.119 161.136 349.916 160.748 349.665 160.605L273.06 116.376C272.996 116.34 272.935 116.322 272.881 116.322C272.72 116.322 272.607 116.47 272.607 116.719Z" fill="url(#paint8_linear_2455_22681)"/>
</g>
<path fill-rule="evenodd" clip-rule="evenodd" d="M282.263 128.43L341.91 163.502C340.066 165.089 338.321 166.906 336.718 168.899L276.631 134.208C278.361 132.055 280.256 130.103 282.263 128.43Z" fill="#FF715B" fill-opacity="0.190778"/>
<path fill-rule="evenodd" clip-rule="evenodd" d="M275.255 127.702L347.489 169.406C347.66 169.504 347.799 169.4 347.799 169.172V165.539C347.799 165.311 347.66 165.046 347.489 164.948L275.255 123.243C275.084 123.144 274.945 123.249 274.945 123.477V127.11C274.945 127.338 275.084 127.603 275.255 127.702Z" fill="url(#paint9_linear_2455_22681)"/>
<path fill-rule="evenodd" clip-rule="evenodd" d="M275.255 123.243L276.724 124.091V126.052C276.724 126.28 276.862 126.545 277.033 126.644L347.799 167.5V169.172C347.799 169.4 347.66 169.505 347.489 169.406L275.255 127.702C275.084 127.603 274.945 127.338 274.945 127.11V123.477C274.945 123.249 275.084 123.144 275.255 123.243Z" fill="url(#paint10_linear_2455_22681)"/>
<g filter="url(#filter0_b_2455_22681)">
<path fill-rule="evenodd" clip-rule="evenodd" d="M234.675 284.176L174.582 249.481C182.334 245.006 188.868 235.209 190.864 225.842C191.673 222.045 193.997 218.748 197.358 216.807L242.768 190.593C255.416 183.292 263.615 170.145 264.474 155.566C265.2 143.257 274.506 131.151 281.73 126.981L341.823 161.676C334.707 165.784 326.873 177.265 325.981 189.366C324.907 203.944 316.978 217.139 304.319 224.446L257.451 251.502C254.09 253.443 251.766 256.74 250.958 260.537C248.961 269.904 242.427 279.7 234.675 284.176Z" fill="url(#paint11_linear_2455_22681)"/>
</g>
<path fill-rule="evenodd" clip-rule="evenodd" d="M281.729 126.981L341.822 161.675C341.34 161.954 340.864 162.255 340.39 162.568L340.386 162.564L280.301 127.87C280.773 127.559 281.248 127.258 281.729 126.981Z" fill="#E9E9E9"/>
<path fill-rule="evenodd" clip-rule="evenodd" d="M276.813 152.069L283.667 156.041L283.804 154.898L276.962 150.941L276.813 152.069ZM297.448 164.028L294.943 162.576L295.063 161.408L297.563 162.853L297.448 164.028ZM299.016 164.939L302.739 167.097L302.845 165.91L299.127 163.76L299.016 164.939ZM304.328 168.018L314.866 174.125L314.952 172.91L304.432 166.827L304.328 168.018ZM308.877 173.542L314.672 176.919L314.757 175.693L308.974 172.33L308.877 173.542ZM307.267 172.603L300.287 168.536L300.398 167.345L307.366 171.395L307.267 172.603ZM296.178 166.143L298.701 167.614L298.815 166.426L296.296 164.962L296.178 166.143ZM294.808 165.345L292.307 163.887L292.431 162.715L294.928 164.166L294.808 165.345ZM310.258 177.265L314.475 179.736L314.561 178.499L310.352 176.039L310.258 177.265ZM308.632 176.314L307.205 175.478L307.305 174.259L308.73 175.092L308.632 176.314ZM303.021 173.026L305.594 174.532L305.695 173.318L303.128 171.817L303.021 173.026ZM314.275 182.576L298.836 173.483L298.95 172.274L314.362 181.33L314.275 182.576ZM293.516 170.349L297.245 172.546L297.361 171.34L293.639 169.153L293.516 170.349ZM314.073 185.441L309.822 182.923L309.918 181.677L314.162 184.184L314.073 185.441ZM299.996 177.105L308.185 181.954L308.284 180.712L300.109 175.883L299.996 177.105ZM298.393 176.157L295.838 174.644L295.959 173.43L298.509 174.938L298.393 176.157ZM305.184 183.156L313.874 188.33L313.964 187.062L305.288 181.91L305.184 183.156ZM303.55 182.187L297.387 178.517L297.505 177.29L303.658 180.944L303.55 182.187ZM291.684 175.121L295.788 177.565L295.909 176.341L291.812 173.906L291.684 175.121ZM313.667 191.245L310.701 189.47L310.797 188.198L313.757 189.966L313.667 191.245ZM305.17 186.159L309.046 188.479L309.145 187.212L305.274 184.901L305.17 186.159ZM303.536 185.18L297.379 181.494L297.497 180.255L303.644 183.926L303.536 185.18ZM304.398 188.731L313.461 194.185L313.551 192.895L304.505 187.463L304.398 188.731ZM302.761 187.744L294.457 182.746L294.581 181.503L302.871 186.48L302.761 187.744ZM290.289 180.24L292.848 181.78L292.974 180.541L290.419 179.008L290.289 180.24ZM288.867 179.383L286.33 177.857L286.468 176.634L289.001 178.154L288.867 179.383ZM307.777 193.839L313.251 197.151L313.341 195.85L307.878 192.551L307.777 193.839ZM281.866 157.804L276.469 154.659L276.619 153.523L282.008 156.655L281.866 157.804ZM276.125 157.269L280.038 159.562L280.183 158.407L276.277 156.124L276.125 157.269ZM281.498 163.273L275.773 159.901L275.926 158.746L281.641 162.105L281.498 163.273ZM275.422 162.556L279.364 164.89L279.511 163.716L275.576 161.391L275.422 162.556ZM280.097 168.222L275.072 165.231L275.227 164.057L280.244 167.036L280.097 168.222ZM274.717 167.928L277.458 169.57L277.61 168.379L274.873 166.745L274.717 167.928ZM279.702 173.867L274.355 170.65L274.513 169.455L279.851 172.661L279.702 173.867ZM273.992 173.392L279.074 176.467L279.225 175.252L274.151 172.188L273.992 173.392ZM303.82 191.442L306.12 192.834L306.224 191.551L303.928 190.165L303.82 191.442ZM302.172 190.447L297.055 187.35L297.175 186.089L302.283 189.173L302.172 190.447Z" fill="url(#paint12_linear_2455_22681)"/>
<path fill-rule="evenodd" clip-rule="evenodd" d="M249.854 198.761L265.523 207.808L266.641 207.161L250.973 198.115L249.854 198.761ZM268.979 209.802L274.633 213.067L275.752 212.422L270.098 209.157L268.979 209.802ZM279.171 215.686L277.514 214.729L278.633 214.084L280.291 215.041L279.171 215.686ZM282.049 217.349L287.703 220.614L288.822 219.968L283.168 216.703L282.049 217.349ZM252.119 202.741L247.541 200.098L248.659 199.452L253.238 202.095L252.119 202.741ZM255.57 204.736L272.315 214.404L273.434 213.758L256.689 204.09L255.57 204.736ZM276.856 217.023L275.199 216.066L276.318 215.42L277.975 216.378L276.856 217.023ZM279.734 218.686L285.388 221.95L286.507 221.305L280.853 218.04L279.734 218.686ZM247.512 202.756L245.223 201.434L246.341 200.789L248.63 202.11L247.512 202.756ZM250.967 204.752L253.681 206.319L254.8 205.672L252.086 204.105L250.967 204.752ZM258.22 208.938L256.563 207.981L257.681 207.335L259.339 208.292L258.22 208.938ZM261.102 210.601L266.756 213.865L267.875 213.22L262.22 209.955L261.102 210.601ZM247.488 205.414L242.91 202.771L244.029 202.125L248.607 204.769L247.488 205.414ZM250.941 207.41L256.596 210.674L257.715 210.029L252.061 206.764L250.941 207.41ZM261.134 213.293L259.477 212.336L260.596 211.691L262.253 212.648L261.134 213.293ZM264.014 214.956L269.668 218.221L270.787 217.575L265.133 214.31L264.014 214.956ZM256.089 213.255L240.42 204.208L241.539 203.562L257.207 212.609L256.089 213.255ZM259.545 215.25L265.2 218.514L266.319 217.869L260.664 214.604L259.545 215.25ZM269.734 221.134L268.076 220.177L269.195 219.531L270.853 220.489L269.734 221.134ZM272.617 222.797L278.272 226.061L279.391 225.416L273.736 222.151L272.617 222.797ZM242.683 208.188L238.105 205.545L239.224 204.899L243.802 207.543L242.683 208.188ZM246.135 210.184L262.88 219.851L263.999 219.205L247.254 209.537L246.135 210.184ZM267.419 222.471L265.762 221.514L266.881 220.867L268.538 221.825L267.419 222.471ZM270.303 224.133L275.957 227.398L277.076 226.752L271.421 223.487L270.303 224.133ZM238.082 208.203L235.793 206.882L236.911 206.236L239.2 207.557L238.082 208.203ZM241.533 210.199L244.248 211.766L245.367 211.12L242.652 209.552L241.533 210.199ZM248.786 214.385L247.129 213.428L248.247 212.782L249.905 213.739L248.786 214.385ZM251.664 216.047L257.318 219.312L258.437 218.667L252.783 215.402L251.664 216.047ZM238.053 210.862L233.475 208.218L234.593 207.572L239.171 210.216L238.053 210.862ZM241.51 212.857L247.164 216.121L248.283 215.476L242.628 212.211L241.51 212.857ZM251.701 218.741L250.043 217.784L251.162 217.138L252.82 218.095L251.701 218.741ZM254.578 220.404L260.233 223.668L261.352 223.022L255.697 219.758L254.578 220.404ZM246.655 218.702L230.986 209.656L232.105 209.01L247.774 218.056L246.655 218.702ZM250.105 220.697L255.76 223.962L256.879 223.316L251.225 220.052L250.105 220.697ZM260.302 226.581L258.645 225.624L259.764 224.978L261.421 225.936L260.302 226.581ZM263.18 228.244L268.834 231.508L269.953 230.863L264.299 227.598L263.18 228.244ZM233.244 213.635L228.666 210.992L229.784 210.346L234.363 212.99L233.244 213.635ZM236.705 215.631L253.45 225.299L254.569 224.653L237.824 214.985L236.705 215.631ZM257.984 227.918L256.326 226.961L257.445 226.315L259.102 227.272L257.984 227.918ZM260.863 229.58L266.517 232.845L267.636 232.199L261.982 228.935L260.863 229.58ZM228.643 213.651L226.354 212.329L227.472 211.683L229.761 213.005L228.643 213.651ZM232.098 215.646L234.812 217.213L235.931 216.567L233.217 214.999L232.098 215.646ZM239.352 219.832L237.695 218.875L238.814 218.23L240.472 219.187L239.352 219.832ZM242.23 221.495L247.884 224.76L249.004 224.113L243.35 220.849L242.23 221.495ZM228.617 216.309L224.039 213.665L225.158 213.02L229.736 215.664L228.617 216.309ZM232.072 218.304L237.726 221.568L238.845 220.923L233.191 217.659L232.072 218.304ZM242.263 224.188L240.605 223.231L241.725 222.586L243.382 223.543L242.263 224.188ZM245.145 225.851L250.799 229.115L251.918 228.47L246.264 225.205L245.145 225.851Z" fill="url(#paint13_linear_2455_22681)"/>
<path fill-rule="evenodd" clip-rule="evenodd" d="M156.329 193.154C155.766 193.154 155.225 193.037 154.812 192.799L108.747 166.202C108.289 165.938 108.036 165.554 108.035 165.121C108.035 164.627 108.375 164.149 108.967 163.806L154.59 137.466C155.614 136.876 157.122 136.82 158.023 137.338L204.089 163.935C204.548 164.2 204.801 164.583 204.801 165.017C204.8 165.51 204.46 165.988 203.868 166.33L158.245 192.671C157.691 192.99 156.994 193.154 156.329 193.154V193.154Z" stroke="#1CC8EE"/>
<path opacity="0.4" fill-rule="evenodd" clip-rule="evenodd" d="M155.402 184.631L122.536 165.657C121.973 165.332 122.044 164.765 122.694 164.39L155.244 145.597C155.894 145.222 156.875 145.181 157.438 145.506L190.304 164.482C190.866 164.806 190.796 165.373 190.146 165.748L157.596 184.541C156.946 184.915 155.965 184.956 155.402 184.631Z" fill="#4DCAFF"/>
<path fill-rule="evenodd" clip-rule="evenodd" d="M155.244 133.007L132.432 146.178L122.156 146.184L122.159 152.54H122.163C122.173 152.738 122.291 152.926 122.536 153.067L155.402 172.042C155.964 172.367 156.947 172.326 157.596 171.951L190.146 153.159C190.484 152.962 190.661 152.716 190.678 152.478V146.139L180.35 146.146L157.437 132.916C157.182 132.769 156.842 132.697 156.485 132.697C156.053 132.697 155.599 132.802 155.244 133.007Z" fill="url(#paint14_linear_2455_22681)"/>
<path fill-rule="evenodd" clip-rule="evenodd" d="M155.244 126.667L122.694 145.46C122.044 145.835 121.974 146.401 122.536 146.726L155.402 165.702C155.964 166.027 156.947 165.986 157.596 165.611L190.146 146.818C190.796 146.443 190.866 145.876 190.303 145.552L157.437 126.575C157.183 126.428 156.842 126.357 156.485 126.357C156.054 126.357 155.599 126.462 155.244 126.667Z" fill="#5F2EEA"/>
<path fill-rule="evenodd" clip-rule="evenodd" d="M155.515 163.479L126.381 146.659C125.883 146.372 125.945 145.869 126.521 145.537L155.374 128.878C155.949 128.546 156.82 128.511 157.318 128.798L186.451 145.618C186.949 145.906 186.887 146.408 186.312 146.741L157.459 163.399C156.883 163.731 156.012 163.767 155.515 163.479Z" fill="#5F2EEA"/>
<path fill-rule="evenodd" clip-rule="evenodd" d="M155.59 162.07L128.824 146.617C128.367 146.353 128.424 145.891 128.952 145.586L155.461 130.281C155.989 129.976 156.789 129.943 157.248 130.207L184.012 145.661C184.47 145.925 184.413 146.386 183.885 146.692L157.376 161.996C156.848 162.302 156.049 162.335 155.59 162.07Z" fill="white"/>
<path opacity="0.399879" fill-rule="evenodd" clip-rule="evenodd" d="M190.683 137.615L176.702 137.698L157.438 126.576C156.875 126.251 155.893 126.292 155.244 126.666L135.715 137.942L122.158 138.022V146.259L122.167 146.264C122.197 146.437 122.317 146.6 122.536 146.726L155.402 165.702C155.965 166.027 156.946 165.985 157.596 165.611L190.146 146.817C190.443 146.647 190.612 146.435 190.662 146.225L190.683 146.214V137.615Z" fill="white"/>
<path fill-rule="evenodd" clip-rule="evenodd" d="M155.244 118.959L132.432 132.13L122.156 132.136L122.159 138.492H122.163C122.173 138.69 122.291 138.877 122.536 139.019L155.402 157.994C155.964 158.319 156.947 158.278 157.596 157.903L190.146 139.11C190.484 138.915 190.661 138.669 190.678 138.43V132.09L180.35 132.097L157.437 118.868C157.182 118.721 156.842 118.649 156.485 118.649C156.053 118.649 155.599 118.754 155.244 118.959Z" fill="url(#paint15_linear_2455_22681)"/>
<path fill-rule="evenodd" clip-rule="evenodd" d="M155.244 112.618L122.694 131.411C122.044 131.786 121.974 132.353 122.536 132.677L155.402 151.654C155.964 151.978 156.947 151.937 157.596 151.562L190.146 132.769C190.796 132.395 190.866 131.828 190.303 131.503L157.437 112.528C157.183 112.38 156.842 112.308 156.484 112.308C156.053 112.308 155.599 112.414 155.244 112.618Z" fill="url(#paint16_linear_2455_22681)"/>
<path fill-rule="evenodd" clip-rule="evenodd" d="M155.515 149.431L126.381 132.611C125.883 132.324 125.945 131.821 126.521 131.488L155.374 114.83C155.949 114.498 156.82 114.462 157.318 114.75L186.451 131.57C186.949 131.857 186.887 132.36 186.312 132.692L157.459 149.351C156.883 149.682 156.012 149.719 155.515 149.431Z" fill="#5F2EEA"/>
<path fill-rule="evenodd" clip-rule="evenodd" d="M155.59 148.022L128.824 132.569C128.367 132.305 128.424 131.843 128.952 131.538L155.461 116.233C155.989 115.928 156.789 115.895 157.248 116.159L184.012 131.612C184.47 131.876 184.413 132.338 183.885 132.643L157.376 147.948C156.848 148.253 156.049 148.286 155.59 148.022Z" fill="white"/>
<g style="mix-blend-mode:multiply">
<path d="M108.312 279.56C138.599 275.293 183.051 288.662 206.277 301.745C235.218 317.999 232.85 337.056 219.421 347.539L213.951 344.451C205.712 348.117 197.245 351.253 188.602 353.837C146.192 366.759 96.7601 353.837 96.7601 353.837L88.8821 319.015C88.8821 319.015 47.0428 288.093 108.312 279.56Z" fill="url(#paint17_linear_2455_22681)"/>
</g>
<path d="M148.27 317.389C151.372 316.17 153.862 315.561 155.985 318.568C156.519 319.567 157.178 320.495 157.944 321.331C162.312 325.069 183.864 319.218 185.211 325.394C185.286 325.931 185.252 326.476 185.112 327C184.972 327.523 184.728 328.013 184.395 328.442C174.313 344.695 159.536 338.356 147.944 341.81C140.719 343.923 138.392 343.598 137.78 336.609C137.004 328.442 129.126 325.069 148.27 317.389Z" fill="#F5DFFF"/>
<path d="M140.435 309.628C140.149 310.644 130.434 318.527 125.985 316.861C120.882 314.951 114.188 295.569 94.5135 284.354C84.3496 278.462 89.656 255.911 97.9831 247.378C98.6426 246.447 99.5171 245.688 100.533 245.164C101.549 244.64 102.676 244.366 103.82 244.366C104.964 244.366 106.092 244.64 107.108 245.164C108.123 245.688 108.998 246.447 109.657 247.378C112.079 251.933 114.127 256.675 115.78 261.559C119.046 269.117 140.72 308.572 140.435 309.628Z" fill="#211A20"/>
<path d="M54.7362 289.84C60.5325 296.422 99.3302 303.086 107.902 305.037L109.494 309.398C120.401 304.7 129.475 303.168 141.03 300.404C138.295 298.982 137.169 296.788 132.965 294.553L123.862 277.203C136.884 278.991 164.681 282.891 174.559 284.395C181.743 285.492 192.601 284.395 192.56 295.569C192.56 305.362 186.805 310.156 177.866 314.382C162.646 322.133 147.997 330.945 134.026 340.753C125.577 346.279 116.842 351.968 106.882 353.634C98.237 355.024 89.3777 353.295 81.9006 348.758C77.3891 345.994 72.7672 343.795 68.1854 341.2C64.6683 338.89 61.7753 335.755 59.761 332.07C57.7467 328.386 56.6728 324.265 56.6338 320.071C56.2256 311.782 51.634 297.601 54.7362 289.84Z" fill="#0B0D11"/>
<path d="M51.3371 240.756C51.3371 232.629 57.2496 217.919 63.4132 210.483C64.7344 209.147 66.4556 208.274 68.318 207.996C70.1804 207.717 72.0832 208.048 73.7404 208.939C82.5572 213.287 108.273 229.256 111.416 231.125C112.595 231.671 113.647 232.456 114.502 233.431C115.357 234.406 115.998 235.549 116.383 236.785C116.767 238.022 116.887 239.325 116.735 240.611C116.582 241.896 116.161 243.136 115.498 244.249C112.653 252.645 110.389 261.225 108.722 269.929C108.396 272.489 108.232 275.09 108.11 277.69C107.579 286.874 107.783 295.813 108.11 305.037C108.518 318.324 51.7193 309.75 51.6785 293.09C51.4744 283.785 51.2555 249.451 51.3371 240.756Z" fill="url(#paint18_linear_2455_22681)"/>
<path d="M114.968 233.766C119.907 235.757 134.765 272.124 135.663 272.611C136.561 273.099 185.177 268.995 186.973 267.492C189.463 265.013 198.075 263.428 202.81 262.778C203.948 262.622 204.984 262.041 205.708 261.153C207.096 259.508 208.582 257.947 210.158 256.48C212.811 254.042 214.24 256.48 210.607 260.787C215.546 255.18 221.138 255.098 219.832 257.09C225.71 256.358 218.975 260.828 214.811 265.744L219.709 264.525C220.327 264.38 220.97 264.38 221.587 264.525C221.889 264.602 222.154 264.783 222.333 265.036C222.513 265.289 222.596 265.598 222.567 265.907C222.567 266.354 221.995 266.638 221.628 266.882C219.832 267.939 217.913 268.751 216.117 269.726C211.444 272.418 206.309 274.223 200.973 275.049C195.34 275.821 189.83 276.634 184.197 277.162C178.564 277.691 145.092 291.506 129.826 292.197C124.928 292.4 109.947 263.063 105.866 258.146C97.1303 247.663 103.58 229.418 114.968 233.766Z" fill="#F5DFFF"/>
<path d="M99.4159 174.441C101.289 176.322 102.741 178.576 103.676 181.055C104.612 183.534 105.01 186.182 104.845 188.825C104.701 189.399 104.701 189.999 104.845 190.573C105.212 191.385 106.069 191.751 106.845 192.198C107.62 192.645 108.355 193.417 108.192 194.27C108.029 195.123 107.416 195.327 107.049 195.895C106.784 196.44 106.644 197.037 106.641 197.643C106.336 200.177 106.213 202.73 106.273 205.282C106.437 206.073 106.437 206.888 106.273 207.679C105.62 209.792 103.008 210.442 100.885 211.174C100.363 211.281 99.8839 211.539 99.5068 211.914C99.1297 212.29 98.871 212.767 98.7627 213.287C97.8777 214.939 97.3778 216.769 97.3001 218.64C97.2223 220.511 97.5688 222.375 98.3137 224.095C99.9465 230.068 72.3121 224.705 75.6593 216.7C76.0675 215.643 77.8227 212.027 75.6593 209.386C73.1285 206.094 66.4342 206.216 66.3526 191.71C66.2709 166.68 89.6602 164.689 99.4159 174.441Z" fill="#F5DFFF"/>
<path d="M96.0696 198.117C96.0696 199.417 95.294 202.18 92.9266 201.774C91.253 201.53 90.7223 199.417 90.1508 197.223C89.909 196.587 89.4899 196.033 88.9427 195.625C88.3955 195.218 87.743 194.974 87.0616 194.923C86.3803 194.872 85.6984 195.015 85.096 195.336C84.4936 195.657 83.9957 196.143 83.6607 196.736C81.5789 200.027 83.1708 203.765 87.3752 208.032C87.3752 214.289 64.4349 215.183 62.5165 187.309C61.8852 182.965 60.2663 178.532 62.0336 174.511C63.8009 170.489 68.8839 167.041 72.5171 164.554C74.6524 163.251 76.9771 162.315 79.3947 161.77C81.2659 161.349 83.1926 158.941 85.1301 159.001C86.9319 159.037 88.604 159.228 90.1508 159.549C92.3789 160.011 93.2368 158.521 94.9591 159.444C97.5352 160.825 100.671 165.966 102.192 169.058C105.344 173.165 106.324 171.347 105.54 174.632C105.364 175.347 105.02 180.452 104.538 181.01C104.056 178.236 100.116 179.783 99.4324 180.063C95.6362 181.688 94.1103 186.902 96.0696 198.117Z" fill="#0B0D11"/>
<defs>
<filter id="filter0_b_2455_22681" x="161.582" y="113.981" width="193.24" height="183.195" filterUnits="userSpaceOnUse" color-interpolation-filters="sRGB">
<feFlood flood-opacity="0" result="BackgroundImageFix"/>
<feGaussianBlur in="BackgroundImage" stdDeviation="6.5"/>
<feComposite in2="SourceAlpha" operator="in" result="effect1_backgroundBlur_2455_22681"/>
<feBlend mode="normal" in="SourceGraphic" in2="effect1_backgroundBlur_2455_22681" result="shape"/>
</filter>
<linearGradient id="paint0_linear_2455_22681" x1="429.063" y1="167.427" x2="430.305" y2="209.435" gradientUnits="userSpaceOnUse">
<stop stop-color="#7433FF"/>
<stop offset="1" stop-color="#9155FC" stop-opacity="0.64"/>
</linearGradient>
<linearGradient id="paint1_linear_2455_22681" x1="429.063" y1="153.379" x2="430.305" y2="195.387" gradientUnits="userSpaceOnUse">
<stop stop-color="#7433FF"/>
<stop offset="1" stop-color="#9155FC" stop-opacity="0.64"/>
</linearGradient>
<linearGradient id="paint2_linear_2455_22681" x1="429.066" y1="147.037" x2="430.308" y2="189.046" gradientUnits="userSpaceOnUse">
<stop offset="0.124802" stop-color="#7433FF"/>
<stop offset="1" stop-color="#FFA3FD" stop-opacity="0"/>
</linearGradient>
<linearGradient id="paint3_linear_2455_22681" x1="316.14" y1="57.8811" x2="316.14" y2="232.75" gradientUnits="userSpaceOnUse">
<stop stop-color="white"/>
<stop offset="1" stop-color="#7F9FE8" stop-opacity="0"/>
</linearGradient>
<linearGradient id="paint4_linear_2455_22681" x1="285.205" y1="152.286" x2="289.007" y2="280.818" gradientUnits="userSpaceOnUse">
<stop stop-color="#7433FF"/>
<stop offset="1" stop-color="#9155FC"/>
</linearGradient>
<linearGradient id="paint5_linear_2455_22681" x1="211.6" y1="172.821" x2="332.824" y2="268.283" gradientUnits="userSpaceOnUse">
<stop stop-color="#7433FF"/>
<stop offset="1" stop-color="#FFA3FD"/>
</linearGradient>
<linearGradient id="paint6_linear_2455_22681" x1="212.875" y1="214.917" x2="261.072" y2="252.856" gradientUnits="userSpaceOnUse">
<stop stop-color="#7433FF"/>
<stop offset="1" stop-color="#FFA3FD"/>
</linearGradient>
<linearGradient id="paint7_linear_2455_22681" x1="314.527" y1="112.788" x2="314.527" y2="176.305" gradientUnits="userSpaceOnUse">
<stop stop-color="white"/>
<stop offset="1" stop-color="#7F9FE8" stop-opacity="0.66"/>
</linearGradient>
<linearGradient id="paint8_linear_2455_22681" x1="311.363" y1="116.322" x2="311.363" y2="176.327" gradientUnits="userSpaceOnUse">
<stop stop-color="#BBCFFF"/>
<stop offset="1" stop-color="#1C397B" stop-opacity="0.49"/>
</linearGradient>
<linearGradient id="paint9_linear_2455_22681" x1="266.736" y1="121.568" x2="329.424" y2="220.919" gradientUnits="userSpaceOnUse">
<stop stop-color="#47DEFF"/>
<stop offset="1" stop-color="#9847FF"/>
</linearGradient>
<linearGradient id="paint10_linear_2455_22681" x1="266.736" y1="121.568" x2="329.424" y2="220.919" gradientUnits="userSpaceOnUse">
<stop stop-color="#2AA5C0"/>
<stop offset="1" stop-color="#6027A9"/>
</linearGradient>
<linearGradient id="paint11_linear_2455_22681" x1="258.202" y1="126.981" x2="258.202" y2="284.176" gradientUnits="userSpaceOnUse">
<stop stop-color="white"/>
<stop offset="1" stop-color="#7F9FE8" stop-opacity="0"/>
</linearGradient>
<linearGradient id="paint12_linear_2455_22681" x1="269.377" y1="149.305" x2="338.333" y2="210.784" gradientUnits="userSpaceOnUse">
<stop stop-color="#47DEFF"/>
<stop offset="1" stop-color="#9847FF"/>
</linearGradient>
<linearGradient id="paint13_linear_2455_22681" x1="216.739" y1="196.885" x2="260.046" y2="278.138" gradientUnits="userSpaceOnUse">
<stop stop-color="#47DEFF"/>
<stop offset="1" stop-color="#9847FF"/>
</linearGradient>
<linearGradient id="paint14_linear_2455_22681" x1="162.147" y1="131.06" x2="163.389" y2="173.068" gradientUnits="userSpaceOnUse">
<stop stop-color="#7433FF"/>
<stop offset="1" stop-color="#9155FC" stop-opacity="0.64"/>
</linearGradient>
<linearGradient id="paint15_linear_2455_22681" x1="162.147" y1="117.012" x2="163.389" y2="159.021" gradientUnits="userSpaceOnUse">
<stop stop-color="#7433FF"/>
<stop offset="1" stop-color="#9155FC" stop-opacity="0.64"/>
</linearGradient>
<linearGradient id="paint16_linear_2455_22681" x1="162.15" y1="110.671" x2="163.392" y2="152.68" gradientUnits="userSpaceOnUse">
<stop offset="0.124802" stop-color="#7433FF"/>
<stop offset="1" stop-color="#FFA3FD" stop-opacity="0"/>
</linearGradient>
<linearGradient id="paint17_linear_2455_22681" x1="163" y1="319" x2="192.055" y2="352.241" gradientUnits="userSpaceOnUse">
<stop stop-color="#E2E9FB"/>
<stop offset="1" stop-color="#E2E9FB" stop-opacity="0"/>
</linearGradient>
<linearGradient id="paint18_linear_2455_22681" x1="124.177" y1="204.228" x2="-16.7732" y2="293.792" gradientUnits="userSpaceOnUse">
<stop stop-color="#47DEFF"/>
<stop offset="1" stop-color="#9847FF"/>
</linearGradient>
</defs>
</svg>
